<?xml version="1.0" encoding="utf-8"?>
<!-- Generator: Adobe Illustrator 18.1.0, SVG Export Plug-In . SVG Version: 6.00 Build 0)  -->
<svg version="1.1" id="Layer_1" xmlns="http://www.w3.org/2000/svg" xmlns:xlink="http://www.w3.org/1999/xlink" x="0px" y="0px"
	 viewBox="0 0 195.5 254.1" enable-background="new 0 0 195.5 254.1" xml:space="preserve">
<path stroke="#000000" stroke-miterlimit="10" d="M191,253.7c-3-23,6.7-31.3-20.9-47.8s-36.6,3.7-44-17.9c-7.5-21.6-6-26.9-6-26.9
	s9.7-4.5,14.9-14.2s3.7-13.4,3.7-13.4s9.5-5.8,10.2-11.8c0.7-6-4.2-9.1-4.2-9.1s23.1-37.3,8.2-54.5s-25.4-12.7-25.4-12.7
	s-2.2-14.9-12.7-17.9s-37.3-1.5-51.5,14.9S51.5,71.6,52.2,85.1C53,98.5,51.6,103,51.6,103s-11.3-1.5-10.6,6.7s9.7,14.2,9.7,14.2
	s-2.2,9.7,3,17.2c5.2,7.5,17.2,18,17.2,18s0,27.5-9.7,34.2s-34.3,0.7-41.8,11.2c-7.5,10.4-14.9,29.9-14.2,41
	c0.7,11.2-0.1,8.2-0.1,8.2H191z"/>
</svg>
