<?xml version="1.0" encoding="utf-8"?>
<!-- Generator: Adobe Illustrator 18.1.1, SVG Export Plug-In . SVG Version: 6.00 Build 0)  -->
<!DOCTYPE svg PUBLIC "-//W3C//DTD SVG 1.1//EN" "http://www.w3.org/Graphics/SVG/1.1/DTD/svg11.dtd">
<svg version="1.1" xmlns="http://www.w3.org/2000/svg" xmlns:xlink="http://www.w3.org/1999/xlink" x="0px" y="0px"
	 viewBox="0 0 80 80" style="enable-background:new 0 0 80 80;" xml:space="preserve">
<style type="text/css">
	.st0{fill:none;stroke:#000000;stroke-width:4;stroke-miterlimit:10;}
	.st1{fill:none;stroke:#000000;stroke-miterlimit:10;}
	.st2{fill:#FFFFFF;}
	.st3{fill:none;stroke:#000000;stroke-width:4;stroke-linecap:round;stroke-miterlimit:10;}
	.st4{fill:#7AC943;}
	.st5{fill:#191919;}
	.st6{stroke:#000000;stroke-miterlimit:10;}
	.st7{fill:#FFFFFF;stroke:#000000;stroke-width:4;stroke-miterlimit:10;}
	.st8{fill:none;stroke:#000000;stroke-width:4;stroke-linecap:round;stroke-linejoin:round;stroke-miterlimit:10;}
	.st9{fill:#CCCCCC;}
	.st10{fill:none;stroke:#FFFFFF;stroke-width:2;stroke-linecap:round;stroke-miterlimit:10;}
	.st11{fill:#666666;}
	.st12{fill:none;}
	.st13{fill:#999999;}
	.st14{font-family:'Klavika-Light';}
	.st15{font-size:18;}
	.st16{display:none;}
</style>
<g id="_x2D_Background2">
</g>
<g id="Gfx1">
</g>
<g id="GfxWhite">
	<g>
		<path d="M38.1,21.8c0,1.5-1.2,2.8-2.8,2.8c-1.5,0-2.8-1.2-2.8-2.8c0-1.5,2.8-7.3,2.8-7.3S38.1,20.3,38.1,21.8z"/>
		<path d="M46.7,16.4l-2,2l-1,3l4.5,4.5c1.5,1.5,3.9,1.5,5.5,0l1.2-1.2L46.7,16.4z M53.2,25.3c-1.2,1.2-3.2,1.2-4.4,0l-2.1-2.1
			l2.9-2.9l4.3,4.3L53.2,25.3z"/>
		<path d="M43.6,64.8C43.6,64.8,43.6,64.8,43.6,64.8H30.7v-2.6h12.9c0,0,0,0,0,0c5.3,0,10.4-2.1,14.2-5.9c3.8-3.8,5.9-8.8,5.9-14.2
			c0-5.3-2.1-10.4-5.9-14.2L44.8,15h-9.5v-2.6h10.6l13.7,13.7c4.3,4.3,6.6,10,6.6,16c0,6.1-2.4,11.7-6.6,16
			C55.3,62.4,49.7,64.8,43.6,64.8z"/>
		<g>
			<g>
				<path d="M36,28.4v5.9c0,0.5-0.3,1-0.6,1.2l-3.7,2.1v-5.9c0-0.5,0.3-1,0.6-1.2L36,28.4z"/>
				<path d="M25.4,28.4v5.9c0,0.5,0.3,1,0.6,1.2l3.7,2.1v-5.9c0-0.5-0.3-1-0.6-1.2L25.4,28.4z"/>
			</g>
			<g>
				<path d="M36,36.9v5.9c0,0.5-0.3,1-0.6,1.2l-3.7,2.1v-5.9c0-0.5,0.3-1,0.6-1.2L36,36.9z"/>
				<path d="M25.4,36.9v5.9c0,0.5,0.3,1,0.6,1.2l3.7,2.1v-5.9c0-0.5-0.3-1-0.6-1.2L25.4,36.9z"/>
			</g>
			<g>
				<path d="M36,45.4v5.9c0,0.5-0.3,1-0.6,1.2l-3.7,2.1v-5.9c0-0.5,0.3-1,0.6-1.2L36,45.4z"/>
				<path d="M25.4,45.4v5.9c0,0.5,0.3,1,0.6,1.2l3.7,2.1v-5.9c0-0.5-0.3-1-0.6-1.2L25.4,45.4z"/>
			</g>
			<rect x="29.6" y="54.6" width="2.2" height="13"/>
		</g>
		<g>
			<g>
				<path d="M21.6,33.3v4.4c0,0.3-0.2,0.7-0.5,0.9l-2.8,1.6v-4.4c0-0.3,0.2-0.7,0.5-0.9L21.6,33.3z"/>
				<path d="M13.7,33.3v4.4c0,0.3,0.2,0.7,0.5,0.9l2.8,1.6v-4.4c0-0.3-0.2-0.7-0.5-0.9L13.7,33.3z"/>
			</g>
			<g>
				<path d="M21.6,39.7V44c0,0.3-0.2,0.7-0.5,0.9l-2.8,1.6v-4.4c0-0.3,0.2-0.7,0.5-0.9L21.6,39.7z"/>
				<path d="M13.7,39.7V44c0,0.3,0.2,0.7,0.5,0.9l2.8,1.6v-4.4c0-0.3-0.2-0.7-0.5-0.9L13.7,39.7z"/>
			</g>
			<g>
				<path d="M21.6,46v4.4c0,0.3-0.2,0.7-0.5,0.9l-2.8,1.6v-4.4c0-0.3,0.2-0.7,0.5-0.9L21.6,46z"/>
				<path d="M13.7,46v4.4c0,0.3,0.2,0.7,0.5,0.9l2.8,1.6v-4.4c0-0.3-0.2-0.7-0.5-0.9L13.7,46z"/>
			</g>
			<rect x="16.8" y="52.9" width="1.7" height="14.7"/>
		</g>
	</g>
</g>
<g id="_x2D_GuideText">
	<rect x="-38.5" y="80.6" class="st12" width="157" height="36.8"/>
	<text transform="matrix(1 0 0 1 28.4345 114.6487)" class="st13 st14 st15">Bio</text>
</g>
<g id="nyt_x5F_exporter_x5F_info" class="st16">
</g>
</svg>
