<?xml version="1.0" encoding="utf-8"?>
<!-- Generator: Adobe Illustrator 18.1.1, SVG Export Plug-In . SVG Version: 6.00 Build 0)  -->
<!DOCTYPE svg PUBLIC "-//W3C//DTD SVG 1.1//EN" "http://www.w3.org/Graphics/SVG/1.1/DTD/svg11.dtd">
<svg version="1.1" xmlns="http://www.w3.org/2000/svg" xmlns:xlink="http://www.w3.org/1999/xlink" x="0px" y="0px"
	 viewBox="0 0 80 80" style="enable-background:new 0 0 80 80;" xml:space="preserve">
<style type="text/css">
	.st0{fill:none;stroke:#000000;stroke-width:4;stroke-miterlimit:10;}
	.st1{fill:none;stroke:#000000;stroke-miterlimit:10;}
	.st2{fill:#FFFFFF;}
	.st3{fill:none;stroke:#000000;stroke-width:4;stroke-linecap:round;stroke-miterlimit:10;}
	.st4{fill:#7AC943;}
	.st5{fill:#191919;}
	.st6{stroke:#000000;stroke-miterlimit:10;}
	.st7{fill:#FFFFFF;stroke:#000000;stroke-width:4;stroke-miterlimit:10;}
	.st8{fill:none;stroke:#000000;stroke-width:4;stroke-linecap:round;stroke-linejoin:round;stroke-miterlimit:10;}
	.st9{fill:#CCCCCC;}
	.st10{fill:none;stroke:#FFFFFF;stroke-width:2;stroke-linecap:round;stroke-miterlimit:10;}
	.st11{fill:#666666;}
	.st12{fill:none;}
	.st13{fill:#999999;}
	.st14{font-family:'Klavika-Light';}
	.st15{font-size:18;}
	.st16{display:none;}
</style>
<g id="_x2D_Background2">
</g>
<g id="Gfx1">
</g>
<g id="GfxWhite">
	<g>
		<path d="M57.2,19.5c-0.1-0.3-0.4-0.6-0.7-0.7l-6.3-2.9c-0.7-0.3-1.4,0-1.7,0.6l-1.2,2.5c-0.1,0.3-0.2,0.6-0.1,0.9l1,3.9l-1.1,2.4
			C47,26.5,47,27,47.2,27.3l-7.1,15.1l-2.2-1c-0.3-0.1-0.5-0.2-0.8-0.2c-0.8,0-1.5,0.4-1.8,1.1l-1.9,4.1c-1.3,2.8,1.3,7.8,2.4,8.3
			c0.2,0.1,0.4,0.1,0.7,0.1c1.6,0,6-1.1,7.2-3.6l1.9-4.1c0.2-0.5,0.2-1,0.1-1.5c-0.2-0.5-0.5-0.9-1-1.1l-2.2-1l7.1-15.1
			c0.4-0.1,0.8-0.3,1-0.7l1.1-2.4l3.7-1.7c0.3-0.1,0.5-0.4,0.6-0.6l1.2-2.5C57.3,20.1,57.3,19.8,57.2,19.5z M53.8,21.4l-3.1,1.4
			l-0.9-3.3l0.4-0.9l3.9,1.8L53.8,21.4z"/>
		<polygon points="57,60.8 59.7,59.4 61.8,60.8 62.4,63.1 60.6,64.3 57.4,64.3 55.4,63.1 		"/>
		<polyline points="55.6,64.3 16.1,64.3 17.5,59.4 21.1,54.5 24.9,53 26.9,50.2 30.8,47.2 42.5,52.2 44,56.2 49.4,56.8 53.6,59.7 
			55.6,63.3 		"/>
		<polygon points="61.6,64.3 66.9,64.3 67.6,63.5 66.2,62 63.1,62.5 61.9,63.4 		"/>
		<polygon points="15.6,64.3 13.2,64.3 12.4,63.7 13.2,62.5 15,62.9 		"/>
	</g>
</g>
<g id="_x2D_GuideText">
	<rect x="-38.5" y="80.5" class="st12" width="157" height="36.5"/>
	<text transform="matrix(1 0 0 1 24.5024 114.5693)" class="st13 st14 st15">Coal</text>
</g>
<g id="nyt_x5F_exporter_x5F_info" class="st16">
</g>
</svg>
