<?xml version="1.0" encoding="utf-8"?>
<!-- Generator: Adobe Illustrator 18.1.0, SVG Export Plug-In . SVG Version: 6.00 Build 0)  -->
<svg version="1.1" id="Layer_1" xmlns="http://www.w3.org/2000/svg" xmlns:xlink="http://www.w3.org/1999/xlink" x="0px" y="0px"
	 viewBox="211.6 145.9 293.4 290.7" enable-background="new 211.6 145.9 293.4 290.7" xml:space="preserve">
<g id="_x2D_Background2">
</g>
<g id="Gfx1">
</g>
<g id="GfxWhite">
	<g>
		<path d="M283.5,285.5c0,11.2-8.9,20.8-20.8,20.8c-11.2,0-20.8-8.9-20.8-20.8c0-11.2,20.8-54.3,20.8-54.3S283.5,274.4,283.5,285.5z
			"/>
		<path d="M347.5,245.3l-14.9,14.9l-7.4,22.3l33.5,33.5c11.2,11.2,29,11.2,40.9,0l8.9-8.9L347.5,245.3z M395.9,311.6
			c-8.9,8.9-23.8,8.9-32.7,0l-15.6-15.6l21.6-21.6l32,32L395.9,311.6z"/>
		<path d="M474,436.6c0-39.4-15.6-77.4-43.9-105.7l-96.7-96h-70.7v-19.3h78.9l101.9,101.9c32,32,49.1,74.4,49.1,119.1"/>
		<g>
			<line x1="137.7" y1="626.3" x2="125" y2="626.3"/>
		</g>
	</g>
</g>
<g id="_x2D_GuideText">
	<rect x="-286.5" y="723" fill="none" width="1168.2" height="273.8"/>
	<text transform="matrix(1 0 0 1 211.5818 976.4045)" fill="#999999" font-family="'ArialMT'" font-size="133.938">Bio</text>
</g>
<g id="nyt_x5F_exporter_x5F_info" display="none">
</g>
</svg>
