<?xml version="1.0" encoding="utf-8"?>
<!-- Generator: Adobe Illustrator 18.1.1, SVG Export Plug-In . SVG Version: 6.00 Build 0)  -->
<!DOCTYPE svg PUBLIC "-//W3C//DTD SVG 1.1//EN" "http://www.w3.org/Graphics/SVG/1.1/DTD/svg11.dtd">
<svg version="1.1" xmlns="http://www.w3.org/2000/svg" xmlns:xlink="http://www.w3.org/1999/xlink" x="0px" y="0px"
	 viewBox="0 0 80 80" style="enable-background:new 0 0 80 80;" xml:space="preserve">
<style type="text/css">
	.st0{fill:none;stroke:#000000;stroke-width:4;stroke-miterlimit:10;}
	.st1{fill:none;stroke:#000000;stroke-miterlimit:10;}
	.st2{fill:#FFFFFF;}
	.st3{fill:none;stroke:#000000;stroke-width:4;stroke-linecap:round;stroke-miterlimit:10;}
	.st4{fill:#7AC943;}
	.st5{fill:#191919;}
	.st6{stroke:#000000;stroke-miterlimit:10;}
	.st7{fill:#FFFFFF;stroke:#000000;stroke-width:4;stroke-miterlimit:10;}
	.st8{fill:none;stroke:#000000;stroke-width:4;stroke-linecap:round;stroke-linejoin:round;stroke-miterlimit:10;}
	.st9{fill:#CCCCCC;}
	.st10{fill:none;stroke:#FFFFFF;stroke-width:2;stroke-linecap:round;stroke-miterlimit:10;}
	.st11{fill:#666666;}
	.st12{fill:none;}
	.st13{fill:#999999;}
	.st14{font-family:'Klavika-Light';}
	.st15{font-size:18;}
	.st16{display:none;}
</style>
<g id="_x2D_Background2">
</g>
<g id="Gfx1">
</g>
<g id="GfxWhite">
	<g>
		<path d="M54.7,31.6l-2.2,26.2c-0.2,2.2-2.1,3.9-4.3,3.9H31.8c-2.2,0-4.1-1.8-4.3-3.9l-2.2-26.2H54.7z"/>
		<path d="M46.2,22l-0.5-3.2c-0.2-1.5-1.7-2.5-3.2-2.3l-8.3,1.4c-1.5,0.2-2.5,1.7-2.3,3.2l0.5,3.2c-6.2,1.7-10.4,3.8-10.1,5.6
			l0.1,0.8c0.1,0.8,0.9,1.3,1.7,1.2l32.3-5.2c0.8-0.1,1.3-0.9,1.2-1.7l-0.1-0.8C57.2,22.4,52.6,21.6,46.2,22z M34.2,20.7
			c0-0.2,0.1-0.4,0.3-0.5l8.3-1.4c0.2,0,0.4,0.1,0.5,0.3l0.5,3c-1.5,0.1-3,0.3-4.6,0.6c-1.6,0.3-3.1,0.6-4.5,0.9L34.2,20.7z"/>
		<polygon class="st2" points="35.5,53.3 44.1,44.7 40.2,44.7 44.9,38.2 36.2,38.2 35.1,46.6 37.6,46.6 		"/>
	</g>
</g>
<g id="_x2D_GuideText">
	<rect x="-38.5" y="80" class="st12" width="157" height="37.5"/>
	<text transform="matrix(1 0 0 1 9.8237 114.0918)" class="st13 st14 st15">Garbage</text>
</g>
<g id="nyt_x5F_exporter_x5F_info" class="st16">
</g>
</svg>
