<?xml version="1.0" encoding="utf-8"?>
<!-- Generator: Adobe Illustrator 18.1.1, SVG Export Plug-In . SVG Version: 6.00 Build 0)  -->
<!DOCTYPE svg PUBLIC "-//W3C//DTD SVG 1.1//EN" "http://www.w3.org/Graphics/SVG/1.1/DTD/svg11.dtd">
<svg version="1.1" xmlns="http://www.w3.org/2000/svg" xmlns:xlink="http://www.w3.org/1999/xlink" x="0px" y="0px"
	 viewBox="0 0 80 80" style="enable-background:new 0 0 80 80;" xml:space="preserve">
<style type="text/css">
	.st0{fill:none;stroke:#000000;stroke-width:4;stroke-miterlimit:10;}
	.st1{fill:none;stroke:#000000;stroke-miterlimit:10;}
	.st2{fill:#FFFFFF;}
	.st3{fill:none;stroke:#000000;stroke-width:4;stroke-linecap:round;stroke-miterlimit:10;}
	.st4{fill:#7AC943;}
	.st5{fill:#191919;}
	.st6{stroke:#000000;stroke-miterlimit:10;}
	.st7{fill:#FFFFFF;stroke:#000000;stroke-width:4;stroke-miterlimit:10;}
	.st8{fill:none;stroke:#000000;stroke-width:4;stroke-linecap:round;stroke-linejoin:round;stroke-miterlimit:10;}
	.st9{fill:#CCCCCC;}
	.st10{fill:none;stroke:#FFFFFF;stroke-width:2;stroke-linecap:round;stroke-miterlimit:10;}
	.st11{fill:#666666;}
	.st12{fill:none;}
	.st13{fill:#999999;}
	.st14{font-family:'Klavika-Light';}
	.st15{font-size:18;}
	.st16{display:none;}
</style>
<g id="_x2D_Background2">
</g>
<g id="Gfx1">
</g>
<g id="GfxWhite">
	<g>
		<g>
			<path class="st11" d="M40,63.8c-1.3,0-2-1.6-2.8-3.7c-0.3-0.8-0.8-1.9-1-2.1c-2.4-1.3-4-3.9-4-6.8c0-2.8,1.4-5.3,3.7-6.7
				c-1.1-1.6-1.7-3.5-1.7-5.5c-4.7-1.6-7.9-6-7.9-11.1c0-6.4,5.2-11.7,11.7-11.7c6.4,0,11.7,5.2,11.7,11.7c0,0.9-0.1,1.9-0.4,2.9
				c2.7,1.8,4.4,4.8,4.4,8.1c0,4.2-2.7,7.8-6.5,9.2c0.4,0.9,0.6,2,0.6,3c0,2.9-1.7,5.7-4.3,7c-0.2,0.3-0.6,1.3-0.9,2
				C41.9,62.2,41.3,63.8,40,63.8z"/>
			<path d="M38,17.2c5.9,0,10.7,4.8,10.7,10.7c0,1.2-0.2,2.3-0.6,3.4c2.7,1.5,4.6,4.4,4.6,7.7c0,4.2-3,7.7-6.9,8.6
				c0.7,1.1,1.1,2.3,1.1,3.6c0,2.7-1.6,5-3.8,6.1c-0.9,0.4-1.9,5.5-3,5.5c-1.2,0-2.3-5.1-3.3-5.7c-2.1-1.2-3.5-3.4-3.5-6
				c0-2.9,1.8-5.3,4.3-6.3c-1.4-1.6-2.3-3.6-2.3-5.9c0-0.2,0-0.7,0-0.7c-4.6-1.2-7.9-5.4-7.9-10.3C27.3,22,32.1,17.2,38,17.2
				 M38,15.2c-7,0-12.7,5.7-12.7,12.7c0,5.2,3.2,9.9,7.9,11.8c0.1,1.6,0.6,3.1,1.4,4.5c-2.1,1.6-3.4,4.2-3.4,6.9
				c0,3.1,1.6,6,4.3,7.6c0.2,0.4,0.5,1.2,0.8,1.7c0.9,2.2,1.7,4.3,3.7,4.3c2,0,2.7-2.1,3.6-4.3c0.2-0.5,0.5-1.3,0.7-1.6
				c2.8-1.5,4.6-4.5,4.6-7.7c0-0.8-0.1-1.7-0.3-2.5c3.7-1.7,6.2-5.5,6.2-9.7c0-3.4-1.6-6.6-4.3-8.6c0.2-0.8,0.3-1.7,0.3-2.5
				C50.7,20.9,45,15.2,38,15.2L38,15.2z"/>
		</g>
		<g>
			<g>
				<path d="M45,55.7c1.1-1.2,1.8-2.8,1.8-4.6c0-0.6-0.1-1.1-0.2-1.6c-0.9,3.9-4.4,6.9-8.5,6.9c-1,0-2-0.2-2.9-0.5
					c0.1,0.1,0.2,0.1,0.2,0.2c0,0,0,0,0,0c0,0,0.1,0,0.1,0.1c0.3,0.3,0.6,0.5,0.9,0.7c0.1,0.1,0.2,0.1,0.3,0.2
					c1,0.5,2.1,5.7,3.3,5.7c1.1,0,2.1-5.1,3-5.5c0,0,0,0,0.1,0c0.3-0.2,0.7-0.4,1-0.6c0,0,0.1-0.1,0.1-0.1
					C44.4,56.3,44.7,56.1,45,55.7C45,55.8,45,55.7,45,55.7C45,55.7,45,55.7,45,55.7z"/>
			</g>
		</g>
		<path d="M42,46.1c-1.4,0-2.8-0.3-4-0.8c1.6,1.4,3.6,2.3,5.9,2.3c4.8,0,8.7-3.9,8.7-8.7c0-0.6-0.1-1.1-0.2-1.7
			C51.6,42.3,47.3,46.1,42,46.1z"/>
		<path d="M36,37c-1.8,0-3.5-0.4-5-1.1c1.9,1.6,4.3,2.6,7,2.6c5.9,0,10.7-4.8,10.7-10.7c0-0.6,0-1.1-0.1-1.7
			C47.7,32.3,42.4,37,36,37z"/>
	</g>
</g>
<g id="_x2D_GuideText">
	<rect x="-38.5" y="80.5" class="st12" width="157" height="36.5"/>
	<text transform="matrix(1 0 0 1 26.5811 114.5693)" class="st13 st14 st15">Gas</text>
</g>
<g id="nyt_x5F_exporter_x5F_info" class="st16">
</g>
</svg>
