<?xml version="1.0" encoding="utf-8"?>
<!-- Generator: Adobe Illustrator 18.1.1, SVG Export Plug-In . SVG Version: 6.00 Build 0)  -->
<!DOCTYPE svg PUBLIC "-//W3C//DTD SVG 1.1//EN" "http://www.w3.org/Graphics/SVG/1.1/DTD/svg11.dtd">
<svg version="1.1" xmlns="http://www.w3.org/2000/svg" xmlns:xlink="http://www.w3.org/1999/xlink" x="0px" y="0px"
	 viewBox="0 0 80 80" style="enable-background:new 0 0 80 80;" xml:space="preserve">
<style type="text/css">
	.st0{fill:none;stroke:#000000;stroke-width:4;stroke-miterlimit:10;}
	.st1{fill:none;stroke:#000000;stroke-miterlimit:10;}
	.st2{fill:#FFFFFF;}
	.st3{fill:none;stroke:#000000;stroke-width:4;stroke-linecap:round;stroke-miterlimit:10;}
	.st4{fill:#7AC943;}
	.st5{fill:#191919;}
	.st6{stroke:#000000;stroke-miterlimit:10;}
	.st7{fill:#FFFFFF;stroke:#000000;stroke-width:4;stroke-miterlimit:10;}
	.st8{fill:none;stroke:#000000;stroke-width:4;stroke-linecap:round;stroke-linejoin:round;stroke-miterlimit:10;}
	.st9{fill:#CCCCCC;}
	.st10{fill:none;stroke:#FFFFFF;stroke-width:2;stroke-linecap:round;stroke-miterlimit:10;}
	.st11{fill:#666666;}
	.st12{fill:none;}
	.st13{fill:#999999;}
	.st14{font-family:'Klavika-Light';}
	.st15{font-size:18;}
	.st16{display:none;}
</style>
<g id="_x2D_Background2">
</g>
<g id="Gfx1">
</g>
<g id="GfxWhite">
	<g>
		<path d="M40,67.6c-10.5,0-19-8.5-19-19C21,38.6,38.2,14.9,39,13.8l1-1.4l1,1.4c0.7,1,17.9,24.7,17.9,34.8
			C59,59.1,50.5,67.6,40,67.6z M40,16.9c-3.8,5.4-16.4,23.9-16.4,31.8C23.6,57.7,31,65,40,65c9,0,16.4-7.3,16.4-16.4
			C56.4,40.7,43.8,22.2,40,16.9z"/>
		<path class="st5" d="M40,35.5c-7.1,0-12.8,5.7-12.8,12.8C27.2,55.3,32.9,61,40,61s12.8-5.7,12.8-12.8C52.8,41.2,47.1,35.5,40,35.5
			z M47.8,56c-2-0.2-2.1-1.2-2.2-2.2c-0.5-6.5-5.6-5.6-5.6-5.6s4.2,3,0,8c-0.6,0.7-1.3,1.5,0,3.1c-3,0-5.8-1.2-7.8-3.2
			c0.2-2,1.2-2.1,2.2-2.2c6.5-0.5,5.6-5.6,5.6-5.6s-3,4.2-8,0c-0.7-0.6-1.5-1.3-3.1,0c0-3,1.2-5.8,3.2-7.8c2,0.2,2.1,1.2,2.2,2.2
			c0.5,6.5,5.6,5.6,5.6,5.6s-4.2-3,0-8c0.6-0.7,1.3-1.5,0-3.1c3,0,5.8,1.2,7.8,3.2c-0.2,2-1.2,2.1-2.2,2.2c-6.5,0.5-5.6,5.6-5.6,5.6
			s3-4.2,8,0c0.7,0.6,1.5,1.3,3.1,0C51,51.3,49.8,54.1,47.8,56z"/>
	</g>
</g>
<g id="_x2D_GuideText">
	<rect x="-38.5" y="80" class="st12" width="157" height="37.5"/>
	<text transform="matrix(1 0 0 1 18.5176 114.0918)" class="st13 st14 st15">Hydro</text>
</g>
<g id="nyt_x5F_exporter_x5F_info" class="st16">
</g>
</svg>
