<?xml version="1.0" encoding="utf-8"?>
<!-- Generator: Adobe Illustrator 18.1.1, SVG Export Plug-In . SVG Version: 6.00 Build 0)  -->
<!DOCTYPE svg PUBLIC "-//W3C//DTD SVG 1.1//EN" "http://www.w3.org/Graphics/SVG/1.1/DTD/svg11.dtd">
<svg version="1.1" xmlns="http://www.w3.org/2000/svg" xmlns:xlink="http://www.w3.org/1999/xlink" x="0px" y="0px"
	 viewBox="0 0 80 80" style="enable-background:new 0 0 80 80;" xml:space="preserve">
<style type="text/css">
	.st0{fill:none;stroke:#000000;stroke-width:4;stroke-miterlimit:10;}
	.st1{fill:none;stroke:#000000;stroke-miterlimit:10;}
	.st2{fill:#FFFFFF;}
	.st3{fill:none;stroke:#000000;stroke-width:4;stroke-linecap:round;stroke-miterlimit:10;}
	.st4{fill:#7AC943;}
	.st5{fill:#191919;}
	.st6{stroke:#000000;stroke-miterlimit:10;}
	.st7{fill:#FFFFFF;stroke:#000000;stroke-width:4;stroke-miterlimit:10;}
	.st8{fill:none;stroke:#000000;stroke-width:4;stroke-linecap:round;stroke-linejoin:round;stroke-miterlimit:10;}
	.st9{fill:#CCCCCC;}
	.st10{fill:none;stroke:#FFFFFF;stroke-width:2;stroke-linecap:round;stroke-miterlimit:10;}
	.st11{fill:#666666;}
	.st12{fill:none;}
	.st13{fill:#999999;}
	.st14{font-family:'Klavika-Light';}
	.st15{font-size:18;}
	.st16{display:none;}
</style>
<g id="_x2D_Background2">
</g>
<g id="Gfx1">
</g>
<g id="GfxWhite">
	<g>
		<g>
			<path d="M23.5,57c-4.6,0-6.6-1.7-7.4-3.2c-3.6-6.2,6.8-16.7,18.3-23.4c8-4.6,16.2-7.4,22-7.4c4.6,0,6.6,1.7,7.4,3.2
				c3.6,6.2-6.8,16.7-18.3,23.4C37.6,54.2,29.3,57,23.5,57z M56.5,26c-5.3,0-13,2.6-20.6,7c-12.6,7.3-19.2,16-17.3,19.4
				c0.6,1.1,2.4,1.7,4.9,1.7c5.3,0,13-2.6,20.6-7c12.6-7.3,19.2-16,17.3-19.4C60.7,26.6,59,26,56.5,26z"/>
			<path d="M56.5,57c-5.8,0-14.1-2.7-22-7.4c-11.6-6.7-21.9-17.2-18.3-23.4c0.8-1.4,2.8-3.2,7.4-3.2c5.8,0,14.1,2.7,22,7.4
				c11.6,6.7,21.9,17.2,18.3,23.4C63.1,55.2,61.1,57,56.5,57z M23.5,26c-2.5,0-4.2,0.6-4.9,1.7c-1.9,3.3,4.7,12.1,17.3,19.4
				c7.5,4.4,15.2,7,20.6,7c2.5,0,4.2-0.6,4.9-1.7c1.9-3.3-4.7-12.1-17.3-19.4C36.5,28.6,28.8,26,23.5,26z"/>
			<path d="M40,67.6c-7.2,0-11.1-14.2-11.1-27.6c0-13.4,3.9-27.6,11.1-27.6S51.1,26.6,51.1,40C51.1,53.4,47.2,67.6,40,67.6z
				 M40,15.4c-3.9,0-8.2,10.1-8.2,24.6s4.3,24.6,8.2,24.6c3.9,0,8.2-10.1,8.2-24.6S43.9,15.4,40,15.4z"/>
		</g>
		<circle cx="40" cy="40" r="3.4"/>
	</g>
</g>
<g id="_x2D_GuideText">
	<rect x="-38.5" y="80.5" class="st12" width="157" height="37"/>
	<text transform="matrix(1 0 0 1 12.4336 114.5693)" class="st13 st14 st15">Nuclear</text>
</g>
<g id="nyt_x5F_exporter_x5F_info" class="st16">
</g>
</svg>
