<?xml version="1.0" encoding="utf-8"?>
<!-- Generator: Adobe Illustrator 18.1.1, SVG Export Plug-In . SVG Version: 6.00 Build 0)  -->
<!DOCTYPE svg PUBLIC "-//W3C//DTD SVG 1.1//EN" "http://www.w3.org/Graphics/SVG/1.1/DTD/svg11.dtd">
<svg version="1.1" xmlns="http://www.w3.org/2000/svg" xmlns:xlink="http://www.w3.org/1999/xlink" x="0px" y="0px"
	 viewBox="0 0 80 80" style="enable-background:new 0 0 80 80;" xml:space="preserve">
<style type="text/css">
	.st0{fill:none;stroke:#000000;stroke-width:4;stroke-miterlimit:10;}
	.st1{fill:none;stroke:#000000;stroke-miterlimit:10;}
	.st2{fill:#FFFFFF;}
	.st3{fill:none;stroke:#000000;stroke-width:4;stroke-linecap:round;stroke-miterlimit:10;}
	.st4{fill:#7AC943;}
	.st5{fill:#191919;}
	.st6{stroke:#000000;stroke-miterlimit:10;}
	.st7{fill:#FFFFFF;stroke:#000000;stroke-width:4;stroke-miterlimit:10;}
	.st8{fill:none;stroke:#000000;stroke-width:4;stroke-linecap:round;stroke-linejoin:round;stroke-miterlimit:10;}
	.st9{fill:#CCCCCC;}
	.st10{fill:none;stroke:#FFFFFF;stroke-width:2;stroke-linecap:round;stroke-miterlimit:10;}
	.st11{fill:#666666;}
	.st12{fill:none;}
	.st13{fill:#999999;}
	.st14{font-family:'Klavika-Light';}
	.st15{font-size:18;}
	.st16{display:none;}
</style>
<g id="_x2D_Background2">
</g>
<g id="Gfx1">
</g>
<g id="GfxWhite">
	<g>
		<circle cx="40" cy="40" r="8.6"/>
		<path d="M65.9,41.7H53.8c-0.9,0-1.7-0.7-1.7-1.7c0-0.9,0.7-1.7,1.7-1.7h12.1c0.9,0,1.7,0.7,1.7,1.7C67.6,40.9,66.8,41.7,65.9,41.7
			z"/>
		<path d="M26.2,41.7H14.1c-0.9,0-1.7-0.7-1.7-1.7s0.7-1.7,1.7-1.7h12.1c0.9,0,1.7,0.7,1.7,1.7S27.1,41.7,26.2,41.7z"/>
		<path d="M58.3,60c-0.4,0-0.9-0.2-1.2-0.5l-8.6-8.6c-0.7-0.7-0.7-1.7,0-2.4c0.7-0.7,1.7-0.7,2.4,0l8.6,8.6c0.7,0.7,0.7,1.7,0,2.4
			C59.2,59.8,58.8,60,58.3,60z"/>
		<path d="M30.2,31.9c-0.4,0-0.9-0.2-1.2-0.5l-8.6-8.6c-0.7-0.7-0.7-1.7,0-2.4c0.7-0.7,1.7-0.7,2.4,0l8.6,8.6c0.7,0.7,0.7,1.7,0,2.4
			C31.1,31.7,30.7,31.9,30.2,31.9z"/>
		<path d="M21.7,60c-0.4,0-0.9-0.2-1.2-0.5c-0.7-0.7-0.7-1.7,0-2.4l8.6-8.6c0.7-0.7,1.7-0.7,2.4,0c0.7,0.7,0.7,1.7,0,2.4l-8.6,8.6
			C22.5,59.8,22.1,60,21.7,60z"/>
		<path d="M49.8,31.9c-0.4,0-0.9-0.2-1.2-0.5c-0.7-0.7-0.7-1.7,0-2.4l8.6-8.6c0.7-0.7,1.7-0.7,2.4,0c0.7,0.7,0.7,1.7,0,2.4l-8.6,8.6
			C50.6,31.7,50.2,31.9,49.8,31.9z"/>
		<path d="M40,67.6c-0.9,0-1.7-0.7-1.7-1.7V53.8c0-0.9,0.7-1.7,1.7-1.7c0.9,0,1.7,0.7,1.7,1.7v12.1C41.7,66.8,40.9,67.6,40,67.6z"/>
		<path d="M40,27.9c-0.9,0-1.7-0.7-1.7-1.7V14.1c0-0.9,0.7-1.7,1.7-1.7c0.9,0,1.7,0.7,1.7,1.7v12.1C41.7,27.1,40.9,27.9,40,27.9z"/>
	</g>
</g>
<g id="_x2D_GuideText">
	<rect x="-38.5" y="80" class="st12" width="157" height="37.5"/>
	<text transform="matrix(1 0 0 1 21.3975 114.0918)" class="st13 st14 st15">Solar</text>
</g>
<g id="nyt_x5F_exporter_x5F_info" class="st16">
</g>
</svg>
