<?xml version="1.0" encoding="utf-8"?>
<!-- Generator: Adobe Illustrator 18.1.1, SVG Export Plug-In . SVG Version: 6.00 Build 0)  -->
<!DOCTYPE svg PUBLIC "-//W3C//DTD SVG 1.1//EN" "http://www.w3.org/Graphics/SVG/1.1/DTD/svg11.dtd">
<svg version="1.1" xmlns="http://www.w3.org/2000/svg" xmlns:xlink="http://www.w3.org/1999/xlink" x="0px" y="0px"
	 viewBox="0 0 80 80" style="enable-background:new 0 0 80 80;" xml:space="preserve">
<style type="text/css">
	.st0{fill:none;stroke:#000000;stroke-width:4;stroke-miterlimit:10;}
	.st1{fill:none;stroke:#000000;stroke-miterlimit:10;}
	.st2{fill:#FFFFFF;}
	.st3{fill:none;stroke:#000000;stroke-width:4;stroke-linecap:round;stroke-miterlimit:10;}
	.st4{fill:#7AC943;}
	.st5{fill:#191919;}
	.st6{stroke:#000000;stroke-miterlimit:10;}
	.st7{fill:#FFFFFF;stroke:#000000;stroke-width:4;stroke-miterlimit:10;}
	.st8{fill:none;stroke:#000000;stroke-width:4;stroke-linecap:round;stroke-linejoin:round;stroke-miterlimit:10;}
	.st9{fill:#CCCCCC;}
	.st10{fill:none;stroke:#FFFFFF;stroke-width:2;stroke-linecap:round;stroke-miterlimit:10;}
	.st11{fill:#666666;}
	.st12{fill:none;}
	.st13{fill:#999999;}
	.st14{font-family:'Klavika-Light';}
	.st15{font-size:18;}
	.st16{display:none;}
</style>
<g id="_x2D_Background2">
</g>
<g id="Gfx1">
</g>
<g id="GfxWhite">
	<g>
		<path d="M12.4,24.4c1.3,2.5,3.9,4.2,6.9,4.2c3,0,5.6-1.7,6.9-4.2c1.3,2.5,3.9,4.2,6.9,4.2c3,0,5.6-1.7,6.9-4.2
			c1.3,2.5,3.9,4.2,6.9,4.2c3,0,5.6-1.7,6.9-4.2c1.3,2.5,3.9,4.2,6.9,4.2c3,0,5.6-1.7,6.9-4.2v27c0,2.3-1.9,4.2-4.2,4.2H16.7
			c-2.3,0-4.2-1.9-4.2-4.2L12.4,24.4"/>
		<path class="st2" d="M52.8,40.6c-2.6,0-4.9-1.2-6.4-3.3c-1.5,2.1-3.8,3.3-6.4,3.3s-4.9-1.2-6.4-3.3c-1.5,2.1-3.8,3.3-6.4,3.3
			c-2.9,0-5.6-1.6-7-4.2c-0.2-0.3,0-0.7,0.3-0.9c0.3-0.2,0.7,0,0.9,0.3c1.1,2.2,3.4,3.5,5.8,3.5c2.5,0,4.7-1.4,5.8-3.5l0.6-1.1
			l0.6,1.1c1.1,2.2,3.4,3.5,5.8,3.5s4.7-1.4,5.8-3.5l0.6-1.1l0.6,1.1c1.1,2.2,3.4,3.5,5.8,3.5c2.5,0,4.7-1.4,5.8-3.5
			c0.2-0.3,0.6-0.4,0.9-0.3c0.3,0.2,0.4,0.6,0.3,0.9C58.4,39,55.8,40.6,52.8,40.6z"/>
	</g>
</g>
<g id="_x2D_GuideText">
	<rect x="-38.5" y="80.5" class="st12" width="157" height="37"/>
	<text transform="matrix(1 0 0 1 22.2432 114.5693)" class="st13 st14 st15">Tidal</text>
</g>
<g id="nyt_x5F_exporter_x5F_info" class="st16">
</g>
</svg>
