<?xml version="1.0" encoding="utf-8"?>
<!-- Generator: Adobe Illustrator 18.1.1, SVG Export Plug-In . SVG Version: 6.00 Build 0)  -->
<!DOCTYPE svg PUBLIC "-//W3C//DTD SVG 1.1//EN" "http://www.w3.org/Graphics/SVG/1.1/DTD/svg11.dtd">
<svg version="1.1" xmlns="http://www.w3.org/2000/svg" xmlns:xlink="http://www.w3.org/1999/xlink" x="0px" y="0px"
	 viewBox="0 0 80 80" style="enable-background:new 0 0 80 80;" xml:space="preserve">
<style type="text/css">
	.st0{fill:none;stroke:#000000;stroke-width:4;stroke-miterlimit:10;}
	.st1{fill:none;stroke:#000000;stroke-miterlimit:10;}
	.st2{fill:#FFFFFF;}
	.st3{fill:none;stroke:#000000;stroke-width:4;stroke-linecap:round;stroke-miterlimit:10;}
	.st4{fill:#7AC943;}
	.st5{fill:#191919;}
	.st6{stroke:#000000;stroke-miterlimit:10;}
	.st7{fill:#FFFFFF;stroke:#000000;stroke-width:4;stroke-miterlimit:10;}
	.st8{fill:none;stroke:#000000;stroke-width:4;stroke-linecap:round;stroke-linejoin:round;stroke-miterlimit:10;}
	.st9{fill:#CCCCCC;}
	.st10{fill:none;stroke:#FFFFFF;stroke-width:2;stroke-linecap:round;stroke-miterlimit:10;}
	.st11{fill:#666666;}
	.st12{fill:none;}
	.st13{fill:#999999;}
	.st14{font-family:'Klavika-Light';}
	.st15{font-size:18;}
	.st16{display:none;}
</style>
<g id="_x2D_Background2">
</g>
<g id="Gfx1">
</g>
<g id="GfxWhite">
	<g>
		<g>
			<path d="M41.4,44.7c0.7,0.4,1.4,0.8,2.1,1.3c0.3,0.2,0.5,0.4,0.7,0.7c0.2,0.4,0.2,0.8,0.4,1.2c0.3,0.8,0.8,1.2,1.4,1.6
				c1.4,0.9,4.8,2.3,6.3,2.8c4.3,1.7,8.6,3.3,12.9,5c0.8,0.3,1.3-0.4,0.5-0.9c-7.8-4.5-15.6-9-23.3-13.5c-0.3-0.2-0.7-0.5-0.7-0.8
				c-0.1-0.5-0.3-0.8-0.6-1.1c-0.3-0.2-0.3-0.6-0.3-1c0-0.8,0-1.7,0-2.5c0-0.3,0-0.6,0.3-0.9c0.2-0.3,0.6-0.6,0.8-0.9
				c0.5-0.6,0.7-1.3,0.7-2.1c0.1-1.6-0.5-5.3-0.7-6.9c-0.7-4.6-1.4-9.1-2.2-13.7c-0.1-0.9-1-0.9-1,0c0,9,0,18,0,27
				c0,0.4-0.1,0.8-0.3,1c-0.4,0.3-0.6,0.7-0.6,1.1c-0.1,0.3-0.4,0.6-0.7,0.8c-0.7,0.4-1.4,0.8-2.2,1.2c-0.3,0.1-0.6,0.3-0.9,0.2
				c-0.4,0-0.8-0.2-1.2-0.3c-0.8-0.1-1.5,0.1-2.1,0.4c-1.4,0.7-4.4,3.1-5.6,4c-3.6,2.9-7.2,5.8-10.8,8.7c-0.7,0.6-0.3,1.3,0.5,0.9
				c7.8-4.5,15.6-9,23.3-13.5c0.3-0.2,0.7-0.3,1-0.2c0.5,0.2,0.8,0.2,1.3,0C40.7,44.4,41.1,44.5,41.4,44.7z"/>
			<circle cx="39.7" cy="42.5" r="2.9"/>
		</g>
		<polygon points="42.6,67.6 36.9,67.6 37.6,42.5 41.8,42.5 		"/>
	</g>
</g>
<g id="_x2D_GuideText">
	<rect x="-38.5" y="80" class="st12" width="157" height="37.5"/>
	<text transform="matrix(1 0 0 1 20.6323 114.0919)" class="st13 st14 st15">Wind</text>
</g>
<g id="nyt_x5F_exporter_x5F_info" class="st16">
</g>
</svg>
