<?xml version="1.0" encoding="utf-8"?>
<!-- Generator: Adobe Illustrator 18.1.1, SVG Export Plug-In . SVG Version: 6.00 Build 0)  -->
<!DOCTYPE svg PUBLIC "-//W3C//DTD SVG 1.1//EN" "http://www.w3.org/Graphics/SVG/1.1/DTD/svg11.dtd">
<svg version="1.1" xmlns="http://www.w3.org/2000/svg" xmlns:xlink="http://www.w3.org/1999/xlink" x="0px" y="0px"
	 viewBox="0 0 80 80" style="enable-background:new 0 0 80 80;" xml:space="preserve">
<style type="text/css">
	.st0{fill:#FFFFFF;}
	.st1{fill:none;stroke:#000000;stroke-miterlimit:10;}
	.st2{fill:none;stroke:#000000;stroke-linecap:round;stroke-linejoin:round;stroke-miterlimit:10;}
	.st3{fill:none;stroke:#000000;stroke-width:2.5;stroke-miterlimit:10;}
	.st4{fill:none;stroke:#000000;stroke-width:2.5;stroke-linecap:round;stroke-linejoin:round;stroke-miterlimit:10;}
	.st5{fill:none;stroke:#FFFFFF;stroke-linecap:round;stroke-linejoin:round;stroke-miterlimit:10;}
	.st6{fill:none;stroke:#000000;stroke-width:4;stroke-miterlimit:10;}
	.st7{fill:none;}
	.st8{fill:none;stroke:#FFFFFF;stroke-width:2;stroke-miterlimit:10;}
	.st9{fill:none;stroke:#000000;stroke-width:6;stroke-linecap:round;stroke-linejoin:round;stroke-miterlimit:10;}
	.st10{fill:none;stroke:#000000;stroke-width:8;stroke-linecap:round;stroke-linejoin:round;stroke-miterlimit:10;}
	.st11{fill:none;stroke:#000000;stroke-width:12;stroke-linecap:round;stroke-linejoin:round;stroke-miterlimit:10;}
	.st12{fill:#999999;}
	.st13{font-family:'Klavika-Light';}
	.st14{font-size:18;}
	.st15{display:none;}
</style>
<g id="_x2D_Background2">
</g>
<g id="Gfx1">
</g>
<g id="GfxWhite">
	<g>
		<g>
			<path d="M22.4,58.3c-6.5,0-11.9-5.3-11.9-11.9c0-6.5,5.3-11.9,11.9-11.9c6.5,0,11.9,5.3,11.9,11.9C34.2,53,28.9,58.3,22.4,58.3z
				 M22.4,36.6c-5.4,0-9.8,4.4-9.8,9.8c0,5.4,4.4,9.8,9.8,9.8c5.4,0,9.8-4.4,9.8-9.8C32.2,41,27.8,36.6,22.4,36.6z"/>
			<path d="M57.6,58.3c-6.5,0-11.9-5.3-11.9-11.9c0-6.5,5.3-11.9,11.9-11.9c6.5,0,11.9,5.3,11.9,11.9C69.5,53,64.2,58.3,57.6,58.3z
				 M57.6,36.6c-5.4,0-9.8,4.4-9.8,9.8c0,5.4,4.4,9.8,9.8,9.8c5.4,0,9.8-4.4,9.8-9.8C67.5,41,63,36.6,57.6,36.6z"/>
			<path d="M22.4,47.5c-0.1,0-0.2,0-0.4-0.1c-0.5-0.2-0.8-0.8-0.6-1.3l6.1-16.2c0-0.1,0.1-0.2,0.2-0.3l0,0l0,0c0,0,0,0,0.1-0.1
				c0,0,0,0,0,0c0.2-0.2,0.4-0.3,0.6-0.3c0,0,0,0,0.1,0l19,0h0c0.4,0,0.7,0.2,0.9,0.5l10.1,16.3c0.2,0.3,0.2,0.7,0,1
				c-0.2,0.3-0.5,0.5-0.9,0.5H41.9c-0.3,0-0.6-0.1-0.8-0.4L28.9,32.2l-5.5,14.6C23.2,47.2,22.8,47.5,22.4,47.5z M42.4,45.5h13.4
				L47,31.2l-16.3,0L42.4,45.5z"/>
			<path d="M41.9,47.5c-0.1,0-0.2,0-0.3-0.1c-0.5-0.2-0.8-0.8-0.6-1.3l6.6-19.4c0.2-0.5,0.8-0.8,1.3-0.6c0.5,0.2,0.8,0.8,0.6,1.3
				l-6.6,19.4C42.8,47.2,42.4,47.5,41.9,47.5z"/>
			<path d="M28.5,31.2c-0.6,0-1-0.5-1-1v-7.5c0-0.6,0.5-1,1-1h4.2c0.6,0,1,0.5,1,1c0,0.6-0.5,1-1,1h-3.2v6.5
				C29.5,30.8,29.1,31.2,28.5,31.2z"/>
		</g>
		<circle cx="41.9" cy="46.5" r="3.2"/>
		<path d="M52,24.8h-7.9c-0.4,0-0.7,0.3-0.7,0.7c0,1.4,5.3,2.6,6.7,2.6c1.4,0,2.6-1.2,2.6-2.6C52.8,25.1,52.4,24.8,52,24.8z"/>
	</g>
</g>
<g id="_x2D_GuideText">
	<rect x="-38.5" y="80.5" class="st7" width="157" height="37"/>
	<text transform="matrix(1 0 0 1 15.3584 114.5693)" class="st12 st13 st14">Bicycle</text>
</g>
<g id="_x2D_GuideLines" class="st15">
</g>
<g id="nyt_x5F_exporter_x5F_info" class="st15">
</g>
</svg>
