<?xml version="1.0" encoding="utf-8"?>
<!-- Generator: Adobe Illustrator 18.1.1, SVG Export Plug-In . SVG Version: 6.00 Build 0)  -->
<!DOCTYPE svg PUBLIC "-//W3C//DTD SVG 1.1//EN" "http://www.w3.org/Graphics/SVG/1.1/DTD/svg11.dtd">
<svg version="1.1" xmlns="http://www.w3.org/2000/svg" xmlns:xlink="http://www.w3.org/1999/xlink" x="0px" y="0px"
	 viewBox="0 0 80 80" style="enable-background:new 0 0 80 80;" xml:space="preserve">
<style type="text/css">
	.st0{fill:#FFFFFF;}
	.st1{fill:none;stroke:#000000;stroke-miterlimit:10;}
	.st2{fill:none;stroke:#000000;stroke-linecap:round;stroke-linejoin:round;stroke-miterlimit:10;}
	.st3{fill:none;stroke:#000000;stroke-width:2.5;stroke-miterlimit:10;}
	.st4{fill:none;stroke:#000000;stroke-width:2.5;stroke-linecap:round;stroke-linejoin:round;stroke-miterlimit:10;}
	.st5{fill:none;stroke:#FFFFFF;stroke-linecap:round;stroke-linejoin:round;stroke-miterlimit:10;}
	.st6{fill:none;stroke:#000000;stroke-width:4;stroke-miterlimit:10;}
	.st7{fill:none;}
	.st8{fill:none;stroke:#FFFFFF;stroke-width:2;stroke-miterlimit:10;}
	.st9{fill:none;stroke:#000000;stroke-width:6;stroke-linecap:round;stroke-linejoin:round;stroke-miterlimit:10;}
	.st10{fill:none;stroke:#000000;stroke-width:8;stroke-linecap:round;stroke-linejoin:round;stroke-miterlimit:10;}
	.st11{fill:none;stroke:#000000;stroke-width:12;stroke-linecap:round;stroke-linejoin:round;stroke-miterlimit:10;}
	.st12{fill:#999999;}
	.st13{font-family:'Klavika-Light';}
	.st14{font-size:18;}
	.st15{display:none;}
</style>
<g id="_x2D_Background2">
</g>
<g id="Gfx1">
</g>
<g id="GfxWhite">
	<g>
		<path d="M20.8,53.5c1.7-0.4,3.1-1.5,3.9-3c1,1.8,2.9,3.1,5.1,3.1c2.2,0,4.1-1.3,5.1-3.1c1,1.8,2.9,3.1,5.1,3.1
			c2.2,0,4.1-1.3,5.1-3.1c1,1.8,2.9,3.1,5.1,3.1c2.2,0,4.1-1.3,5.1-3.1c1,1.8,2.9,3.1,5.1,3.1c0.4,0,0.7,0,1.1-0.1
			c1.1-0.9,1.9-2.3,1.9-3.9V39.5H10.5C10.5,39.5,15.5,49.9,20.8,53.5z"/>
		<path d="M60.5,56c-1.9,0-3.7-0.7-5.1-2c-1.4,1.3-3.2,2-5.1,2c-1.9,0-3.7-0.7-5.1-2c-1.4,1.3-3.2,2-5.1,2c-1.9,0-3.7-0.7-5.1-2
			c-1.4,1.3-3.2,2-5.1,2c-1.9,0-3.7-0.7-5.1-2c-1.4,1.3-3.2,2-5.1,2c-1.9,0-3.7-0.7-5.1-2c-1,1-2.3,1.7-3.8,1.9l-0.1-0.7
			c1.4-0.3,2.7-0.9,3.6-2l0.3-0.3l0.3,0.3c1.3,1.3,3,2.1,4.8,2.1s3.6-0.8,4.8-2.1l0.3-0.3l0.3,0.3c1.3,1.3,3,2.1,4.8,2.1
			c1.8,0,3.6-0.8,4.8-2.1l0.3-0.3l0.3,0.3c1.3,1.3,3,2.1,4.8,2.1c1.8,0,3.6-0.8,4.8-2.1l0.3-0.3l0.3,0.3c1.3,1.3,3,2.1,4.8,2.1
			c1.8,0,3.6-0.8,4.8-2.1l0.3-0.3l0.3,0.3c1.3,1.3,3,2.1,4.8,2.1c1.8,0,3.6-0.8,4.8-2.1l0.3-0.3l0.3,0.3c1,1,2.2,1.7,3.6,2l-0.1,0.7
			c-1.4-0.3-2.7-0.9-3.8-1.9C64.2,55.3,62.4,56,60.5,56z"/>
		<path d="M55,32.3c-0.3,0.3-1,0.6-1.5,0.6h-5c-0.5,0-0.7-0.3-0.4-0.6l6.6-7.6c0.3-0.3,1-0.6,1.5-0.6h5c0.5,0,0.7,0.3,0.4,0.6
			L55,32.3z"/>
		<path d="M44.6,32.3c-0.3,0.3-1,0.6-1.5,0.6h-5c-0.5,0-0.7-0.3-0.4-0.6l6.6-7.6c0.3-0.3,1-0.6,1.5-0.6h5c0.5,0,0.7,0.3,0.4,0.6
			L44.6,32.3z"/>
		<g>
			<circle class="st0" cx="24.9" cy="43" r="1.5"/>
			<circle class="st0" cx="32.4" cy="43" r="1.5"/>
			<circle class="st0" cx="40" cy="43" r="1.5"/>
			<circle class="st0" cx="47.5" cy="43" r="1.5"/>
			<circle class="st0" cx="55" cy="43" r="1.5"/>
		</g>
		<g>
			<path d="M21.6,31.3c-0.8,0-1.6,0.5-2.1,1.3l-4,6.9c0,0,2.8,0,3.5,0H62v-6.9c0-0.8-0.6-1.4-1.4-1.4H21.6z"/>
			<path class="st0" d="M36.9,36.2c0,0.3-0.2,0.5-0.5,0.5h-9.9c-0.3,0-0.5-0.2-0.5-0.5v-3.3c0-0.3,0.2-0.5,0.5-0.5h9.9
				c0.3,0,0.5,0.2,0.5,0.5V36.2z"/>
			<path class="st0" d="M25,36.2c0,0.3-0.2,0.5-0.5,0.5h-5.4c-0.3,0-0.6-0.3-0.3-0.8c0.1-0.2,1.4-2.5,1.7-3c0.2-0.3,0.4-0.5,0.6-0.5
				h3.3c0.3,0,0.5,0.2,0.5,0.5V36.2z"/>
			<path class="st0" d="M48.9,36.2c0,0.3-0.2,0.5-0.5,0.5h-9.9c-0.3,0-0.5-0.2-0.5-0.5v-3.3c0-0.3,0.2-0.5,0.5-0.5h9.9
				c0.3,0,0.5,0.2,0.5,0.5V36.2z"/>
			<path class="st0" d="M60.9,36.2c0,0.3-0.2,0.5-0.5,0.5h-9.9c-0.3,0-0.5-0.2-0.5-0.5v-3.3c0-0.3,0.2-0.5,0.5-0.5h9.9
				c0.3,0,0.5,0.2,0.5,0.5V36.2z"/>
		</g>
	</g>
</g>
<g id="_x2D_GuideText">
	<rect x="-38.5" y="80.5" class="st7" width="157" height="37"/>
	<text transform="matrix(1 0 0 1 22.7837 114.5693)" class="st12 st13 st14">Boat</text>
</g>
<g id="_x2D_GuideLines" class="st15">
</g>
<g id="nyt_x5F_exporter_x5F_info" class="st15">
</g>
</svg>
