<?xml version="1.0" encoding="utf-8"?>
<!-- Generator: Adobe Illustrator 18.1.1, SVG Export Plug-In . SVG Version: 6.00 Build 0)  -->
<!DOCTYPE svg PUBLIC "-//W3C//DTD SVG 1.1//EN" "http://www.w3.org/Graphics/SVG/1.1/DTD/svg11.dtd">
<svg version="1.1" xmlns="http://www.w3.org/2000/svg" xmlns:xlink="http://www.w3.org/1999/xlink" x="0px" y="0px"
	 viewBox="0 0 80 80" style="enable-background:new 0 0 80 80;" xml:space="preserve">
<style type="text/css">
	.st0{fill:#FFFFFF;}
	.st1{fill:none;stroke:#000000;stroke-miterlimit:10;}
	.st2{fill:none;stroke:#000000;stroke-linecap:round;stroke-linejoin:round;stroke-miterlimit:10;}
	.st3{fill:none;stroke:#000000;stroke-width:2.5;stroke-miterlimit:10;}
	.st4{fill:none;stroke:#000000;stroke-width:2.5;stroke-linecap:round;stroke-linejoin:round;stroke-miterlimit:10;}
	.st5{fill:none;stroke:#FFFFFF;stroke-linecap:round;stroke-linejoin:round;stroke-miterlimit:10;}
	.st6{fill:none;stroke:#000000;stroke-width:4;stroke-miterlimit:10;}
	.st7{fill:none;}
	.st8{fill:none;stroke:#FFFFFF;stroke-width:2;stroke-miterlimit:10;}
	.st9{fill:none;stroke:#000000;stroke-width:6;stroke-linecap:round;stroke-linejoin:round;stroke-miterlimit:10;}
	.st10{fill:none;stroke:#000000;stroke-width:8;stroke-linecap:round;stroke-linejoin:round;stroke-miterlimit:10;}
	.st11{fill:none;stroke:#000000;stroke-width:12;stroke-linecap:round;stroke-linejoin:round;stroke-miterlimit:10;}
	.st12{fill:#999999;}
	.st13{font-family:'Klavika-Light';}
	.st14{font-size:18;}
	.st15{display:none;}
</style>
<g id="_x2D_Background2">
</g>
<g id="Gfx1">
</g>
<g id="GfxWhite">
	<g>
		<path d="M68,25.8H12c-0.8,0-1.5,0.7-1.5,1.5v20.8c0,0.8,0.7,1.5,1.5,1.5H68c0.8,0,1.5-0.7,1.5-1.5V27.3
			C69.5,26.5,68.8,25.8,68,25.8z"/>
		<path class="st0" d="M35,36.8c0,0.3-0.2,0.5-0.5,0.5H20.2c-0.3,0-0.5-0.2-0.5-0.5v-9.2c0-0.3,0.2-0.5,0.5-0.5h14.3
			c0.3,0,0.5,0.2,0.5,0.5V36.8z"/>
		<path class="st0" d="M18.4,36.8v-9.2c0-0.3-0.2-0.5-0.5-0.5h-5.6c-0.3,0-0.5,0.2-0.5,0.5v11.2c0,0.3,0.2,0.5,0.5,0.5
			S18.4,36.8,18.4,36.8z"/>
		<path class="st0" d="M51.6,36.8c0,0.3-0.2,0.5-0.5,0.5H36.8c-0.3,0-0.5-0.2-0.5-0.5v-9.2c0-0.3,0.2-0.5,0.5-0.5h14.3
			c0.3,0,0.5,0.2,0.5,0.5V36.8z"/>
		<path class="st0" d="M68.2,36.8c0,0.3-0.2,0.5-0.5,0.5H53.4c-0.3,0-0.5-0.2-0.5-0.5v-9.2c0-0.3,0.2-0.5,0.5-0.5h14.3
			c0.3,0,0.5,0.2,0.5,0.5V36.8z"/>
		<g>
			<path d="M20,53.4c-2,0-3.7-1.7-3.7-3.7c0-2,1.7-3.7,3.7-3.7s3.7,1.7,3.7,3.7C23.7,51.7,22,53.4,20,53.4z"/>
			<path class="st0" d="M20,46c2,0,3.7,1.7,3.7,3.7c0,2-1.7,3.7-3.7,3.7s-3.7-1.7-3.7-3.7C16.3,47.7,17.9,46,20,46 M20,45.2
				c-2.5,0-4.5,2-4.5,4.5c0,2.5,2,4.5,4.5,4.5c2.5,0,4.5-2,4.5-4.5C24.5,47.2,22.5,45.2,20,45.2L20,45.2z"/>
		</g>
		<g>
			<path d="M60,53.4c-2,0-3.7-1.7-3.7-3.7c0-2,1.7-3.7,3.7-3.7c2,0,3.7,1.7,3.7,3.7C63.7,51.7,62.1,53.4,60,53.4z"/>
			<path class="st0" d="M60,46c2,0,3.7,1.7,3.7,3.7c0,2-1.7,3.7-3.7,3.7c-2,0-3.7-1.7-3.7-3.7C56.3,47.7,58,46,60,46 M60,45.2
				c-2.5,0-4.5,2-4.5,4.5c0,2.5,2,4.5,4.5,4.5c2.5,0,4.5-2,4.5-4.5C64.5,47.2,62.5,45.2,60,45.2L60,45.2z"/>
		</g>
	</g>
</g>
<g id="_x2D_GuideText">
	<rect x="-38.5" y="80" class="st7" width="157" height="37.5"/>
	<text transform="matrix(1 0 0 1 26.3652 114.0918)" class="st12 st13 st14">Bus</text>
</g>
<g id="_x2D_GuideLines" class="st15">
</g>
<g id="nyt_x5F_exporter_x5F_info" class="st15">
</g>
</svg>
