<?xml version="1.0" encoding="utf-8"?>
<!-- Generator: Adobe Illustrator 18.1.1, SVG Export Plug-In . SVG Version: 6.00 Build 0)  -->
<!DOCTYPE svg PUBLIC "-//W3C//DTD SVG 1.1//EN" "http://www.w3.org/Graphics/SVG/1.1/DTD/svg11.dtd">
<svg version="1.1" xmlns="http://www.w3.org/2000/svg" xmlns:xlink="http://www.w3.org/1999/xlink" x="0px" y="0px"
	 viewBox="0 0 80 80" style="enable-background:new 0 0 80 80;" xml:space="preserve">
<style type="text/css">
	.st0{fill:#FFFFFF;}
	.st1{fill:none;stroke:#000000;stroke-miterlimit:10;}
	.st2{fill:none;stroke:#000000;stroke-linecap:round;stroke-linejoin:round;stroke-miterlimit:10;}
	.st3{fill:none;stroke:#000000;stroke-width:2.5;stroke-miterlimit:10;}
	.st4{fill:none;stroke:#000000;stroke-width:2.5;stroke-linecap:round;stroke-linejoin:round;stroke-miterlimit:10;}
	.st5{fill:none;stroke:#FFFFFF;stroke-linecap:round;stroke-linejoin:round;stroke-miterlimit:10;}
	.st6{fill:none;stroke:#000000;stroke-width:4;stroke-miterlimit:10;}
	.st7{fill:none;}
	.st8{fill:none;stroke:#FFFFFF;stroke-width:2;stroke-miterlimit:10;}
	.st9{fill:none;stroke:#000000;stroke-width:6;stroke-linecap:round;stroke-linejoin:round;stroke-miterlimit:10;}
	.st10{fill:none;stroke:#000000;stroke-width:8;stroke-linecap:round;stroke-linejoin:round;stroke-miterlimit:10;}
	.st11{fill:none;stroke:#000000;stroke-width:12;stroke-linecap:round;stroke-linejoin:round;stroke-miterlimit:10;}
	.st12{fill:#999999;}
	.st13{font-family:'Klavika-Light';}
	.st14{font-size:18;}
	.st15{display:none;}
</style>
<g id="_x2D_Background2">
</g>
<g id="Gfx1">
</g>
<g id="GfxWhite">
	<g>
		<g>
			<g>
				<path d="M66.9,44.3v-6.2c0-1.5-1.2-2.8-2.8-2.8h-1l-5.3-8.1c-1-1.7-2.5-2.6-3.2-2.6H34.5c-2.6,0-4.1,0.9-5.1,2.6l-4.7,8.1h-8.8
					c-1.5,0-2.8,1.2-2.8,2.8v6.2c-1.4,0-2.6,1.2-2.6,2.6c0,1.4,1.2,2.6,2.6,2.6h53.8c1.4,0,2.6-1.2,2.6-2.6
					C69.5,45.5,68.3,44.3,66.9,44.3z"/>
			</g>
		</g>
		<path class="st0" d="M38.1,34.4c0,0.5-0.4,0.9-0.9,0.9h-8.5c-0.5,0-1.2-0.5-0.6-1.5c0.3-0.4,2.8-5,3.4-6c0.3-0.5,0.7-0.9,1.2-0.9
			h4.5c0.5,0,0.9,0.4,0.9,0.9V34.4z"/>
		<path class="st0" d="M53.4,34.4c0,0.5,0.4,0.9,0.9,0.9h4.4c0.5,0,1.2-0.5,0.6-1.5c-0.3-0.4-2.8-5-3.4-6c-0.3-0.5-0.7-0.9-1.2-0.9
			h-0.3c-0.5,0-0.9,0.4-0.9,0.9V34.4z"/>
		<g>
			<g>
				<path d="M27.1,54.6c-2.8,0-5.1-2.3-5.1-5.1c0-2.8,2.3-5.1,5.1-5.1c2.8,0,5.1,2.3,5.1,5.1C32.2,52.3,29.9,54.6,27.1,54.6z"/>
				<path class="st0" d="M27.1,44.4c2.8,0,5.1,2.3,5.1,5.1c0,2.8-2.3,5.1-5.1,5.1c-2.8,0-5.1-2.3-5.1-5.1
					C22,46.7,24.3,44.4,27.1,44.4 M27.1,43.5c-3.3,0-5.9,2.7-5.9,5.9c0,3.3,2.7,5.9,5.9,5.9c3.3,0,5.9-2.7,5.9-5.9
					C33,46.2,30.4,43.5,27.1,43.5L27.1,43.5z"/>
			</g>
			<g>
				<path d="M55.5,54.6c-2.8,0-5.1-2.3-5.1-5.1c0-2.8,2.3-5.1,5.1-5.1c2.8,0,5.1,2.3,5.1,5.1C60.6,52.3,58.3,54.6,55.5,54.6z"/>
				<path class="st0" d="M55.5,44.4c2.8,0,5.1,2.3,5.1,5.1c0,2.8-2.3,5.1-5.1,5.1c-2.8,0-5.1-2.3-5.1-5.1
					C50.5,46.7,52.7,44.4,55.5,44.4 M55.5,43.5c-3.3,0-5.9,2.7-5.9,5.9c0,3.3,2.7,5.9,5.9,5.9c3.3,0,5.9-2.7,5.9-5.9
					C61.5,46.2,58.8,43.5,55.5,43.5L55.5,43.5z"/>
			</g>
		</g>
		<path class="st0" d="M51.1,34.4c0,0.5-0.4,0.9-0.9,0.9h-8.9c-0.5,0-0.9-0.4-0.9-0.9v-6.6c0-0.5,0.4-0.9,0.9-0.9h8.9
			c0.5,0,0.9,0.4,0.9,0.9V34.4z"/>
		<path class="st0" d="M14.8,42.8c-0.2,0-0.4-0.2-0.4-0.4V38c0-0.2,0.2-0.4,0.4-0.4s0.4,0.2,0.4,0.4v4.4
			C15.2,42.6,15,42.8,14.8,42.8z"/>
	</g>
</g>
<g id="_x2D_GuideText">
	<rect x="-38.5" y="80" class="st7" width="157" height="37.5"/>
	<text transform="matrix(1 0 0 1 28.2285 114.0919)" class="st12 st13 st14">Car</text>
</g>
<g id="_x2D_GuideLines" class="st15">
</g>
<g id="nyt_x5F_exporter_x5F_info" class="st15">
</g>
</svg>
