<?xml version="1.0" encoding="utf-8"?>
<!-- Generator: Adobe Illustrator 18.1.1, SVG Export Plug-In . SVG Version: 6.00 Build 0)  -->
<!DOCTYPE svg PUBLIC "-//W3C//DTD SVG 1.1//EN" "http://www.w3.org/Graphics/SVG/1.1/DTD/svg11.dtd">
<svg version="1.1" xmlns="http://www.w3.org/2000/svg" xmlns:xlink="http://www.w3.org/1999/xlink" x="0px" y="0px"
	 viewBox="0 0 80 80" style="enable-background:new 0 0 80 80;" xml:space="preserve">
<style type="text/css">
	.st0{fill:#FFFFFF;}
	.st1{fill:none;stroke:#000000;stroke-miterlimit:10;}
	.st2{fill:none;stroke:#000000;stroke-linecap:round;stroke-linejoin:round;stroke-miterlimit:10;}
	.st3{fill:none;stroke:#000000;stroke-width:2.5;stroke-miterlimit:10;}
	.st4{fill:none;stroke:#000000;stroke-width:2.5;stroke-linecap:round;stroke-linejoin:round;stroke-miterlimit:10;}
	.st5{fill:none;stroke:#FFFFFF;stroke-linecap:round;stroke-linejoin:round;stroke-miterlimit:10;}
	.st6{fill:none;stroke:#000000;stroke-width:4;stroke-miterlimit:10;}
	.st7{fill:none;}
	.st8{fill:none;stroke:#FFFFFF;stroke-width:2;stroke-miterlimit:10;}
	.st9{fill:none;stroke:#000000;stroke-width:6;stroke-linecap:round;stroke-linejoin:round;stroke-miterlimit:10;}
	.st10{fill:none;stroke:#000000;stroke-width:8;stroke-linecap:round;stroke-linejoin:round;stroke-miterlimit:10;}
	.st11{fill:none;stroke:#000000;stroke-width:12;stroke-linecap:round;stroke-linejoin:round;stroke-miterlimit:10;}
	.st12{fill:#999999;}
	.st13{font-family:'Klavika-Light';}
	.st14{font-size:18;}
	.st15{display:none;}
</style>
<g id="_x2D_Background2">
</g>
<g id="Gfx1">
</g>
<g id="GfxWhite">
	<g>
		<g>
			<path d="M40.2,10.8c0.4,0.4,0.4,1.2,0,1.6l-9.6,9.6c-0.4,0.4-1.2,0.4-1.6,0l0,0c-0.4-0.4-0.4-1.2,0-1.6l9.6-9.6
				C39,10.4,39.8,10.4,40.2,10.8L40.2,10.8z"/>
			<path d="M47.8,18.4c0.4,0.4,0.4,1.2,0,1.6l-9.6,9.6c-0.4,0.4-1.2,0.4-1.6,0l0,0c-0.4-0.4-0.4-1.2,0-1.6l9.6-9.6
				C46.6,18,47.3,18,47.8,18.4L47.8,18.4z"/>
		</g>
		<polygon points="26,19.2 25,28.8 29.9,33.6 39.4,32.6 42.9,29.1 29.5,15.7 		"/>
		<polygon points="23.6,37.8 29.9,33.6 25,28.8 20.8,35.1 		"/>
		<path d="M38.4,67.4c0,1.1-0.9,2.1-2.1,2.1h-1.3c-1.1,0-2.1-0.9-2.1-2.1v-5.2c0-1.1,0.9-2.1,2.1-2.1h1.3c1.1,0,2.1,0.9,2.1,2.1
			V67.4z"/>
		<path d="M61.3,67.4c0,1.1-0.9,2.1-2.1,2.1h-1.3c-1.1,0-2.1-0.9-2.1-2.1v-5.2c0-1.1,0.9-2.1,2.1-2.1h1.3c1.1,0,2.1,0.9,2.1,2.1
			V67.4z"/>
		<path d="M61.1,51.8h-2.7c0-9.6-3.6-11.3-11-11.3h-0.3c-7.5,0-11,1.7-11,11.3h-2.7c0-11.6,5.2-14,13.7-14h0.3
			C55.9,37.8,61.1,40.2,61.1,51.8z"/>
		<path d="M63,63H31.3v-8.4c0-4.5,7.1-5.6,15.8-5.6c8.7,0,15.8,1.1,15.8,5.6V63z M38.1,55.4c-1.1,0-2,0.9-2,2c0,1.1,0.9,2,2,2
			c1.1,0,2-0.9,2-2C40.2,56.3,39.3,55.4,38.1,55.4z M56.1,55.4c-1.1,0-2,0.9-2,2c0,1.1,0.9,2,2,2c1.1,0,2-0.9,2-2
			C58.2,56.3,57.2,55.4,56.1,55.4z"/>
		<path d="M31.3,59.9c-3.8,0-7.4-1.5-10.1-4.2c-5.6-5.6-5.6-14.6,0-20.2l1.9,1.9c-4.5,4.5-4.5,11.9,0,16.4c2.2,2.2,5.1,3.4,8.2,3.4
			V59.9z"/>
		<line class="st7" x1="22.2" y1="36.5" x2="23.8" y2="34.9"/>
		<path class="st0" d="M38.1,60.5c-1.7,0-3.1-1.4-3.1-3.1c0-1.7,1.4-3.1,3.1-3.1c1.7,0,3.1,1.4,3.1,3.1
			C41.3,59.1,39.9,60.5,38.1,60.5z M38.1,55.6c-1,0-1.8,0.8-1.8,1.8c0,1,0.8,1.8,1.8,1.8c1,0,1.8-0.8,1.8-1.8
			C39.9,56.4,39.1,55.6,38.1,55.6z"/>
		<path class="st0" d="M56.1,60.5c-1.7,0-3.1-1.4-3.1-3.1c0-1.7,1.4-3.1,3.1-3.1c1.7,0,3.1,1.4,3.1,3.1
			C59.2,59.1,57.8,60.5,56.1,60.5z M56.1,55.6c-1,0-1.8,0.8-1.8,1.8c0,1,0.8,1.8,1.8,1.8c1,0,1.8-0.8,1.8-1.8
			C57.9,56.4,57.1,55.6,56.1,55.6z"/>
	</g>
</g>
<g id="_x2D_GuideText">
	<rect x="-38.5" y="80" class="st7" width="157" height="37.5"/>
	<text transform="matrix(1 0 0 1 18.9585 114.0918)" class="st12 st13 st14">ELCar</text>
</g>
<g id="_x2D_GuideLines" class="st15">
</g>
<g id="nyt_x5F_exporter_x5F_info" class="st15">
</g>
</svg>
