<?xml version="1.0" encoding="utf-8"?>
<!-- Generator: Adobe Illustrator 18.1.1, SVG Export Plug-In . SVG Version: 6.00 Build 0)  -->
<!DOCTYPE svg PUBLIC "-//W3C//DTD SVG 1.1//EN" "http://www.w3.org/Graphics/SVG/1.1/DTD/svg11.dtd">
<svg version="1.1" xmlns="http://www.w3.org/2000/svg" xmlns:xlink="http://www.w3.org/1999/xlink" x="0px" y="0px"
	 viewBox="0 0 80 80" style="enable-background:new 0 0 80 80;" xml:space="preserve">
<style type="text/css">
	.st0{fill:#FFFFFF;}
	.st1{fill:none;stroke:#000000;stroke-miterlimit:10;}
	.st2{fill:none;stroke:#000000;stroke-linecap:round;stroke-linejoin:round;stroke-miterlimit:10;}
	.st3{fill:none;stroke:#000000;stroke-width:2.5;stroke-miterlimit:10;}
	.st4{fill:none;stroke:#000000;stroke-width:2.5;stroke-linecap:round;stroke-linejoin:round;stroke-miterlimit:10;}
	.st5{fill:none;stroke:#FFFFFF;stroke-linecap:round;stroke-linejoin:round;stroke-miterlimit:10;}
	.st6{fill:none;stroke:#000000;stroke-width:4;stroke-miterlimit:10;}
	.st7{fill:none;}
	.st8{fill:none;stroke:#FFFFFF;stroke-width:2;stroke-miterlimit:10;}
	.st9{fill:none;stroke:#000000;stroke-width:6;stroke-linecap:round;stroke-linejoin:round;stroke-miterlimit:10;}
	.st10{fill:none;stroke:#000000;stroke-width:8;stroke-linecap:round;stroke-linejoin:round;stroke-miterlimit:10;}
	.st11{fill:none;stroke:#000000;stroke-width:12;stroke-linecap:round;stroke-linejoin:round;stroke-miterlimit:10;}
	.st12{fill:#999999;}
	.st13{font-family:'Klavika-Light';}
	.st14{font-size:18;}
	.st15{display:none;}
</style>
<g id="_x2D_Background2">
</g>
<g id="Gfx1">
</g>
<g id="GfxWhite">
	<g>
		<path d="M69.1,39.6h-1.5l1.5-8.4h-1.4l-4.1,7c-2.9-1-7.3-1.7-8.6-1.7H43.8L47.5,14h-3.1l-7.3,14.9h-2.7c-1.2,0-1.3,0.9-1.3,2.1
			c0,1.2,0.1,2.1,1.3,2.1h0.6l-1.6,3.4H16.3c-1.9,0-5.8,1.6-5.8,3.5c0,1.9,3.8,3.5,5.8,3.5h17.2l1.6,3.4h-0.6
			c-1.2,0-1.3,0.9-1.3,2.1c0,1.2,0.1,2.1,1.3,2.1h2.7L44.4,66h3.1l-3.7-22.5H55c1.3,0,5.7-0.7,8.6-1.7l4.1,7h1.4l-1.5-8.4h1.5
			c0.2,0,0.4-0.2,0.4-0.4S69.3,39.6,69.1,39.6z"/>
	</g>
</g>
<g id="_x2D_GuideText">
	<rect x="-38.5" y="80.6" class="st7" width="157" height="36.8"/>
	<text transform="matrix(1 0 0 1 19.687 114.6487)" class="st12 st13 st14">Plane</text>
</g>
<g id="_x2D_GuideLines" class="st15">
</g>
<g id="nyt_x5F_exporter_x5F_info" class="st15">
</g>
</svg>
