<?xml version="1.0" encoding="utf-8"?>
<!-- Generator: Adobe Illustrator 18.1.1, SVG Export Plug-In . SVG Version: 6.00 Build 0)  -->
<!DOCTYPE svg PUBLIC "-//W3C//DTD SVG 1.1//EN" "http://www.w3.org/Graphics/SVG/1.1/DTD/svg11.dtd">
<svg version="1.1" xmlns="http://www.w3.org/2000/svg" xmlns:xlink="http://www.w3.org/1999/xlink" x="0px" y="0px"
	 viewBox="0 0 80 80" style="enable-background:new 0 0 80 80;" xml:space="preserve">
<style type="text/css">
	.st0{fill:#FFFFFF;}
	.st1{fill:none;stroke:#000000;stroke-miterlimit:10;}
	.st2{fill:none;stroke:#000000;stroke-linecap:round;stroke-linejoin:round;stroke-miterlimit:10;}
	.st3{fill:none;stroke:#000000;stroke-width:2.5;stroke-miterlimit:10;}
	.st4{fill:none;stroke:#000000;stroke-width:2.5;stroke-linecap:round;stroke-linejoin:round;stroke-miterlimit:10;}
	.st5{fill:none;stroke:#FFFFFF;stroke-linecap:round;stroke-linejoin:round;stroke-miterlimit:10;}
	.st6{fill:none;stroke:#000000;stroke-width:4;stroke-miterlimit:10;}
	.st7{fill:none;}
	.st8{fill:none;stroke:#FFFFFF;stroke-width:2;stroke-miterlimit:10;}
	.st9{fill:none;stroke:#000000;stroke-width:6;stroke-linecap:round;stroke-linejoin:round;stroke-miterlimit:10;}
	.st10{fill:none;stroke:#000000;stroke-width:8;stroke-linecap:round;stroke-linejoin:round;stroke-miterlimit:10;}
	.st11{fill:none;stroke:#000000;stroke-width:12;stroke-linecap:round;stroke-linejoin:round;stroke-miterlimit:10;}
	.st12{fill:#999999;}
	.st13{font-family:'Klavika-Light';}
	.st14{font-size:18;}
	.st15{display:none;}
</style>
<g id="_x2D_Background2">
</g>
<g id="Gfx1">
</g>
<g id="GfxWhite">
	<g>
		<g>
			<g>
				<polygon points="57.6,70.1 56.4,70.1 46.2,59.9 47.5,59.9 				"/>
				<polygon points="23.6,70.1 22.4,70.1 32.6,59.9 33.8,59.9 				"/>
			</g>
			<polygon points="46.8,61.9 33.2,61.9 31.9,63.3 48.1,63.3 			"/>
			<polygon points="50.8,66.5 29.2,66.5 26.9,68.7 53.1,68.7 			"/>
			<path d="M53.3,57.3c0,1.4-1.1,2.5-2.5,2.5H29.2c-1.4,0-2.5-1.1-2.5-2.5v-26c0-1.4,1.1-2.5,2.5-2.5h21.5c1.4,0,2.5,1.1,2.5,2.5
				V57.3z"/>
			<polygon points="50.2,28.8 29.8,28.8 31.1,27.5 48.9,27.5 			"/>
			<path class="st0" d="M48.2,32c0,0.6-0.5,1-1,1H32.8c-0.6,0-1-0.5-1-1v-1.7c0-0.6,0.5-1,1-1h14.4c0.6,0,1,0.5,1,1V32z"/>
			<path class="st0" d="M51.2,44.6c0,0.6-0.5,1-1,1H29.8c-0.6,0-1-0.5-1-1v-7.3c0-0.6,0.5-1,1-1h20.4c0.6,0,1,0.5,1,1V44.6z"/>
			<g>
				<circle class="st0" cx="30.7" cy="50" r="1.9"/>
				<circle class="st0" cx="49.3" cy="50" r="1.9"/>
			</g>
		</g>
		<path d="M40,26.1l-7.5-7.5l7.5-7.5l7.5,7.5L40,26.1z M33.6,18.6L40,25l6.4-6.4L40,12.2L33.6,18.6z"/>
		<rect x="35.1" y="24.6" width="9.8" height="1.9"/>
		<path d="M37.3,17l-1.6,1.6l0.2,0.2c1.3-0.2,2.7-0.4,4.1-0.4c1.4,0,2.7,0.1,4.1,0.4l0.2-0.2L42.7,17c-0.9-0.1-1.8-0.1-2.7-0.1
			C39.1,16.9,38.2,16.9,37.3,17z"/>
		<path d="M49.5,18.8l-0.9,0.9l-0.3,0.3c8.7,3.3,14.9,11.8,14.9,21.6c0,7.3-3.3,14-9.1,18.4l0.9,1.2c6.2-4.7,9.7-11.9,9.7-19.6
			C64.7,31.3,58.4,22.5,49.5,18.8z"/>
		<path d="M16.9,41.5c0-9.8,6.2-18.3,14.9-21.6l-0.3-0.3l-0.9-0.9c-8.9,3.7-15.2,12.5-15.2,22.8c0,7.7,3.5,14.9,9.7,19.6l0.9-1.2
			C20.2,55.5,16.9,48.8,16.9,41.5z"/>
	</g>
</g>
<g id="_x2D_GuideText">
	<rect x="-38.5" y="80.5" class="st7" width="157" height="36.5"/>
	<text transform="matrix(1 0 0 1 11.1646 114.5693)" class="st12 st13 st14">Subway</text>
</g>
<g id="_x2D_GuideLines" class="st15">
</g>
<g id="nyt_x5F_exporter_x5F_info" class="st15">
</g>
</svg>
