<?xml version="1.0" encoding="utf-8"?>
<!-- Generator: Adobe Illustrator 18.1.1, SVG Export Plug-In . SVG Version: 6.00 Build 0)  -->
<!DOCTYPE svg PUBLIC "-//W3C//DTD SVG 1.1//EN" "http://www.w3.org/Graphics/SVG/1.1/DTD/svg11.dtd">
<svg version="1.1" xmlns="http://www.w3.org/2000/svg" xmlns:xlink="http://www.w3.org/1999/xlink" x="0px" y="0px"
	 viewBox="0 0 80 80" style="enable-background:new 0 0 80 80;" xml:space="preserve">
<style type="text/css">
	.st0{fill:#FFFFFF;}
	.st1{fill:none;stroke:#000000;stroke-miterlimit:10;}
	.st2{fill:none;stroke:#000000;stroke-linecap:round;stroke-linejoin:round;stroke-miterlimit:10;}
	.st3{fill:none;stroke:#000000;stroke-width:2.5;stroke-miterlimit:10;}
	.st4{fill:none;stroke:#000000;stroke-width:2.5;stroke-linecap:round;stroke-linejoin:round;stroke-miterlimit:10;}
	.st5{fill:none;stroke:#FFFFFF;stroke-linecap:round;stroke-linejoin:round;stroke-miterlimit:10;}
	.st6{fill:none;stroke:#000000;stroke-width:4;stroke-miterlimit:10;}
	.st7{fill:none;}
	.st8{fill:none;stroke:#FFFFFF;stroke-width:2;stroke-miterlimit:10;}
	.st9{fill:none;stroke:#000000;stroke-width:6;stroke-linecap:round;stroke-linejoin:round;stroke-miterlimit:10;}
	.st10{fill:none;stroke:#000000;stroke-width:8;stroke-linecap:round;stroke-linejoin:round;stroke-miterlimit:10;}
	.st11{fill:none;stroke:#000000;stroke-width:12;stroke-linecap:round;stroke-linejoin:round;stroke-miterlimit:10;}
	.st12{fill:#999999;}
	.st13{font-family:'Klavika-Light';}
	.st14{font-size:18;}
	.st15{display:none;}
</style>
<g id="_x2D_Background2">
</g>
<g id="Gfx1">
</g>
<g id="GfxWhite">
	<g>
		<g>
			<g>
				<polygon points="58.9,61.9 57.6,61.9 47.1,51.4 48.4,51.4 				"/>
				<polygon points="24,61.9 22.6,61.9 33.1,51.4 34.4,51.4 				"/>
			</g>
			<polygon points="47.7,53.5 33.8,53.5 32.4,54.9 49.2,54.9 			"/>
			<polygon points="51.9,58.2 29.6,58.2 27.3,60.5 54.2,60.5 			"/>
			<path d="M54.5,48.8c0,1.4-1.2,2.6-2.6,2.6H29.7c-1.4,0-2.6-1.2-2.6-2.6V22c0-1.4,1.2-2.6,2.6-2.6h22.1c1.4,0,2.6,1.2,2.6,2.6
				V48.8z"/>
			<polygon points="51.3,19.4 30.3,19.4 31.7,18.1 49.9,18.1 			"/>
			<path class="st0" d="M49.3,22.7c0,0.6-0.5,1-1,1H33.4c-0.6,0-1-0.5-1-1V21c0-0.6,0.5-1,1-1h14.9c0.6,0,1,0.5,1,1V22.7z"/>
			<path class="st0" d="M52.3,35.7c0,0.6-0.5,1-1,1h-21c-0.6,0-1-0.5-1-1v-7.5c0-0.6,0.5-1,1-1h21c0.6,0,1,0.5,1,1V35.7z"/>
			<g>
				<circle class="st0" cx="31.2" cy="41.3" r="1.9"/>
				<circle class="st0" cx="50.4" cy="41.3" r="1.9"/>
			</g>
		</g>
		<g>
			<g>
				<path d="M64.1,31.7c0,0-1.9,5.9-3.5,7.4c1.3,0,2.4,0,3.5,0c1.1,0,2.2,0,3.5,0C65.9,37.6,64.1,31.7,64.1,31.7z"/>
				<path d="M65.1,36.1h-1.1H63c-0.1,0.4-1.3,4.2-3.3,6c1.6,0,3,0,4.3,0s2.7,0,4.3,0C66.4,40.3,65.2,36.5,65.1,36.1z"/>
				<path d="M65.4,37.8h-1.3h-1.3c-0.1,0.5-1.6,5.2-4.1,7.5c2,0,3.7,0,5.4,0c1.7,0,3.4,0,5.4,0C67,43,65.5,38.3,65.4,37.8z"/>
				<line class="st3" x1="64.1" y1="45.3" x2="64.1" y2="48.9"/>
			</g>
			<g>
				<path d="M16.9,24.4c0,0-2.2,8.5-4.1,10.6c1.5,0,2.8,0,4.1,0c1.3,0,2.6,0,4.1,0C19.1,32.8,16.9,24.4,16.9,24.4z"/>
				<path d="M18.2,30.7h-1.3h-1.3c-0.1,0.6-1.5,5.9-3.9,8.6c1.9,0,3.5,0,5.1,0c1.6,0,3.3,0,5.1,0C19.7,36.6,18.3,31.3,18.2,30.7z"/>
				<path d="M18.5,33.1h-1.6h-1.6c-0.1,0.7-1.9,7.4-4.9,10.8c2.4,0,4.4,0,6.4,0c2,0,4.1,0,6.4,0C20.4,40.5,18.6,33.8,18.5,33.1z"/>
				<line class="st3" x1="16.9" y1="43.8" x2="16.9" y2="48.9"/>
			</g>
		</g>
	</g>
</g>
<g id="_x2D_GuideText">
	<rect x="-38.5" y="80.5" class="st7" width="157" height="36.5"/>
	<text transform="matrix(1 0 0 1 21.415 114.5693)" class="st12 st13 st14">Train</text>
</g>
<g id="_x2D_GuideLines" class="st15">
</g>
<g id="nyt_x5F_exporter_x5F_info" class="st15">
</g>
</svg>
