<?xml version="1.0" encoding="utf-8"?>
<!-- Generator: Adobe Illustrator 18.1.1, SVG Export Plug-In . SVG Version: 6.00 Build 0)  -->
<!DOCTYPE svg PUBLIC "-//W3C//DTD SVG 1.1//EN" "http://www.w3.org/Graphics/SVG/1.1/DTD/svg11.dtd">
<svg version="1.1" xmlns="http://www.w3.org/2000/svg" xmlns:xlink="http://www.w3.org/1999/xlink" x="0px" y="0px"
	 viewBox="0 0 80 80" style="enable-background:new 0 0 80 80;" xml:space="preserve">
<style type="text/css">
	.st0{fill:#FFFFFF;}
	.st1{fill:none;stroke:#000000;stroke-miterlimit:10;}
	.st2{fill:none;stroke:#000000;stroke-linecap:round;stroke-linejoin:round;stroke-miterlimit:10;}
	.st3{fill:none;stroke:#000000;stroke-width:2.5;stroke-miterlimit:10;}
	.st4{fill:none;stroke:#000000;stroke-width:2.5;stroke-linecap:round;stroke-linejoin:round;stroke-miterlimit:10;}
	.st5{fill:none;stroke:#FFFFFF;stroke-linecap:round;stroke-linejoin:round;stroke-miterlimit:10;}
	.st6{fill:none;stroke:#000000;stroke-width:4;stroke-miterlimit:10;}
	.st7{fill:none;}
	.st8{fill:none;stroke:#FFFFFF;stroke-width:2;stroke-miterlimit:10;}
	.st9{fill:none;stroke:#000000;stroke-width:6;stroke-linecap:round;stroke-linejoin:round;stroke-miterlimit:10;}
	.st10{fill:none;stroke:#000000;stroke-width:8;stroke-linecap:round;stroke-linejoin:round;stroke-miterlimit:10;}
	.st11{fill:none;stroke:#000000;stroke-width:12;stroke-linecap:round;stroke-linejoin:round;stroke-miterlimit:10;}
	.st12{fill:#999999;}
	.st13{font-family:'Klavika-Light';}
	.st14{font-size:18;}
	.st15{display:none;}
</style>
<g id="_x2D_Background2">
</g>
<g id="Gfx1">
</g>
<g id="GfxWhite">
	<g>
		<path d="M68,35.1H12c-0.8,0-1.5,0.7-1.5,1.5v20.8c0,0.8,0.7,1.5,1.5,1.5h4.8c0.5-1.6,2.1-2.8,3.9-2.8c1.3,0,5.2,0,6.5,0
			c1.8,0,3.3,1.2,3.9,2.8h17.7c0.5-1.6,2.1-2.8,3.9-2.8c1.3,0,5.2,0,6.5,0c1.8,0,3.3,1.2,3.9,2.8H68c0.8,0,1.5-0.7,1.5-1.5V36.7
			C69.5,35.8,68.8,35.1,68,35.1z"/>
		<path class="st0" d="M35,46.1c0,0.3-0.2,0.5-0.5,0.5H20.2c-0.3,0-0.5-0.2-0.5-0.5v-9.2c0-0.3,0.2-0.5,0.5-0.5h14.3
			c0.3,0,0.5,0.2,0.5,0.5V46.1z"/>
		<path class="st0" d="M18.4,46.1v-9.2c0-0.3-0.2-0.5-0.5-0.5h-5.6c-0.3,0-0.5,0.2-0.5,0.5v11.2c0,0.3,0.2,0.5,0.5,0.5
			S18.4,46.1,18.4,46.1z"/>
		<path class="st0" d="M51.6,46.1c0,0.3-0.2,0.5-0.5,0.5H36.8c-0.3,0-0.5-0.2-0.5-0.5v-9.2c0-0.3,0.2-0.5,0.5-0.5h14.3
			c0.3,0,0.5,0.2,0.5,0.5V46.1z"/>
		<path class="st0" d="M68.2,46.1c0,0.3-0.2,0.5-0.5,0.5H53.4c-0.3,0-0.5-0.2-0.5-0.5v-9.2c0-0.3,0.2-0.5,0.5-0.5h14.3
			c0.3,0,0.5,0.2,0.5,0.5V46.1z"/>
		<g>
			<circle cx="52.7" cy="60.3" r="2.1"/>
			<path class="st0" d="M52.7,58.2c1.2,0,2.1,0.9,2.1,2.1s-0.9,2.1-2.1,2.1c-1.2,0-2.1-0.9-2.1-2.1S51.6,58.2,52.7,58.2 M52.7,57.4
				c-1.6,0-2.9,1.3-2.9,2.9c0,1.6,1.3,2.9,2.9,2.9c1.6,0,2.9-1.3,2.9-2.9C55.6,58.7,54.3,57.4,52.7,57.4L52.7,57.4z"/>
		</g>
		<g>
			<circle cx="59.2" cy="60.3" r="2.1"/>
			<path class="st0" d="M59.2,58.2c1.2,0,2.1,0.9,2.1,2.1s-0.9,2.1-2.1,2.1c-1.2,0-2.1-0.9-2.1-2.1S58.1,58.2,59.2,58.2 M59.2,57.4
				c-1.6,0-2.9,1.3-2.9,2.9c0,1.6,1.3,2.9,2.9,2.9c1.6,0,2.9-1.3,2.9-2.9C62.1,58.7,60.8,57.4,59.2,57.4L59.2,57.4z"/>
		</g>
		<g>
			<circle cx="20.8" cy="60.3" r="2.1"/>
			<path class="st0" d="M20.8,58.2c1.2,0,2.1,0.9,2.1,2.1s-0.9,2.1-2.1,2.1c-1.2,0-2.1-0.9-2.1-2.1S19.6,58.2,20.8,58.2 M20.8,57.4
				c-1.6,0-2.9,1.3-2.9,2.9c0,1.6,1.3,2.9,2.9,2.9c1.6,0,2.9-1.3,2.9-2.9C23.7,58.7,22.4,57.4,20.8,57.4L20.8,57.4z"/>
		</g>
		<g>
			<circle cx="27.3" cy="60.3" r="2.1"/>
			<path class="st0" d="M27.3,58.2c1.2,0,2.1,0.9,2.1,2.1s-0.9,2.1-2.1,2.1c-1.2,0-2.1-0.9-2.1-2.1S26.1,58.2,27.3,58.2 M27.3,57.4
				c-1.6,0-2.9,1.3-2.9,2.9c0,1.6,1.3,2.9,2.9,2.9c1.6,0,2.9-1.3,2.9-2.9C30.2,58.7,28.9,57.4,27.3,57.4L27.3,57.4z"/>
		</g>
		<rect x="34.8" y="31.1" width="10.5" height="2"/>
		<path d="M40,32.7l-7.9-7.9l7.9-7.9l7.9,7.9L40,32.7z M33.2,24.7l6.8,6.8l6.8-6.8L40,17.9L33.2,24.7z"/>
	</g>
</g>
<g id="_x2D_GuideText">
	<rect x="-38.5" y="80.5" class="st7" width="157" height="36.5"/>
	<text transform="matrix(1 0 0 1 20.7851 114.5693)" class="st12 st13 st14">Tram</text>
</g>
<g id="_x2D_GuideLines" class="st15">
</g>
<g id="nyt_x5F_exporter_x5F_info" class="st15">
</g>
</svg>
