<?xml version="1.0" encoding="utf-8"?>
<!-- Generator: Adobe Illustrator 18.1.1, SVG Export Plug-In . SVG Version: 6.00 Build 0)  -->
<!DOCTYPE svg PUBLIC "-//W3C//DTD SVG 1.1//EN" "http://www.w3.org/Graphics/SVG/1.1/DTD/svg11.dtd">
<svg version="1.1" xmlns="http://www.w3.org/2000/svg" xmlns:xlink="http://www.w3.org/1999/xlink" x="0px" y="0px"
	 viewBox="0 0 80 80" style="enable-background:new 0 0 80 80;" xml:space="preserve">
<style type="text/css">
	.st0{fill:#FFFFFF;}
	.st1{fill:none;stroke:#000000;stroke-miterlimit:10;}
	.st2{fill:none;stroke:#000000;stroke-linecap:round;stroke-linejoin:round;stroke-miterlimit:10;}
	.st3{fill:none;stroke:#000000;stroke-width:2.5;stroke-miterlimit:10;}
	.st4{fill:none;stroke:#000000;stroke-width:2.5;stroke-linecap:round;stroke-linejoin:round;stroke-miterlimit:10;}
	.st5{fill:none;stroke:#FFFFFF;stroke-linecap:round;stroke-linejoin:round;stroke-miterlimit:10;}
	.st6{fill:none;stroke:#000000;stroke-width:4;stroke-miterlimit:10;}
	.st7{fill:none;}
	.st8{fill:none;stroke:#FFFFFF;stroke-width:2;stroke-miterlimit:10;}
	.st9{fill:none;stroke:#000000;stroke-width:6;stroke-linecap:round;stroke-linejoin:round;stroke-miterlimit:10;}
	.st10{fill:none;stroke:#000000;stroke-width:8;stroke-linecap:round;stroke-linejoin:round;stroke-miterlimit:10;}
	.st11{fill:none;stroke:#000000;stroke-width:12;stroke-linecap:round;stroke-linejoin:round;stroke-miterlimit:10;}
	.st12{fill:#999999;}
	.st13{font-family:'Klavika-Light';}
	.st14{font-size:18;}
	.st15{display:none;}
</style>
<g id="_x2D_Background2">
</g>
<g id="Gfx1">
</g>
<g id="GfxWhite">
	<g>
		<g>
			<path d="M47.6,16.9c0,2.6-2.1,4.7-4.7,4.7c-2.6,0-4.7-2.1-4.7-4.7c0-2.6,2.1-4.7,4.7-4.7C45.5,12.2,47.6,14.3,47.6,16.9z"/>
		</g>
		<path d="M55.2,38.2l-6.7-4.9l-2.9-8c-0.2-0.7-0.8-1.1-1.5-1.3l-6.2-1.6c-0.7-0.2-1.5,0-2,0.6l-7.7,8c-0.3,0.3-0.5,0.6-0.5,1
			l-2,8.5c-0.3,1.1,0.4,2.3,1.6,2.5c0.2,0,0.3,0.1,0.5,0.1c1,0,1.8-0.7,2.1-1.6l1.8-8l2.7-2.8l-4.2,22.5l-5.9,9.9
			c-0.8,1.3-0.4,3.1,1,3.9c0.4,0.3,0.9,0.4,1.4,0.4c1,0,1.9-0.5,2.4-1.4l6.2-10.3c0.2-0.3,0.3-0.6,0.4-0.9l1.5-8.4l7.4,8.1l1.6,11
			c0.2,1.4,1.4,2.4,2.8,2.4c0.1,0,0.3,0,0.4,0c1.5-0.2,2.6-1.7,2.4-3.2L50,52.7c-0.1-0.6-0.3-1.1-0.7-1.5l-7.8-8.5c0,0,0,0,0,0
			l1.9-10.9l1.3,3.7c0.1,0.4,0.4,0.7,0.7,1l7.3,5.3c0.9,0.7,2.3,0.5,2.9-0.5C56.4,40.2,56.2,38.9,55.2,38.2z"/>
	</g>
</g>
<g id="_x2D_GuideText">
	<rect x="-38.5" y="80" class="st7" width="157" height="37.5"/>
	<text transform="matrix(1 0 0 1 21.334 114.0918)" class="st12 st13 st14">Walk</text>
</g>
<g id="_x2D_GuideLines" class="st15">
</g>
<g id="nyt_x5F_exporter_x5F_info" class="st15">
</g>
</svg>
