<?xml version="1.0" encoding="utf-8"?>
<!DOCTYPE svg PUBLIC "-//W3C//DTD SVG 1.1//EN" "http://www.w3.org/Graphics/SVG/1.1/DTD/svg11.dtd">
<svg version="1.1" xmlns="http://www.w3.org/2000/svg" xmlns:xlink="http://www.w3.org/1999/xlink" x="0px" y="0px"
	 viewBox="0 0 80 80" enable-background="new 0 0 80 80" xml:space="preserve">
<g id="Gfx1">
	<g>
		<path d="M53,27.6L53,27.6H27L15.7,49h0v8.6h48.5V49L53,27.6z M21,54.4c-0.8,0-1.4-0.6-1.4-1.4c0-0.8,0.6-1.4,1.4-1.4
			s1.4,0.6,1.4,1.4C22.4,53.7,21.7,54.4,21,54.4z M27,54.4c-0.8,0-1.4-0.6-1.4-1.4c0-0.8,0.6-1.4,1.4-1.4s1.4,0.6,1.4,1.4
			C28.4,53.7,27.8,54.4,27,54.4z"/>
	</g>
	<path d="M53,26.1v-5.2c0-0.8-0.7-1.5-1.5-1.5H28.5c-0.8,0-1.5,0.7-1.5,1.5v5.2H53z"/>
	<path d="M66.7,60.7H13.3c-0.4,0-0.8-0.3-0.8-0.8s0.3-0.8,0.8-0.8h53.5c0.4,0,0.8,0.3,0.8,0.8S67.2,60.7,66.7,60.7z"/>
</g>
<g id="fan" style="transform-origin: center;" animera="bindTopicToRotation?inputRange=[0,10]&amp;outputRange=[0,1]&amp;clamp=true">
	<path fill="#FFFFFF" d="M40,33.7c-5.1,0-9.3,4.2-9.3,9.3c0,5.1,4.2,9.3,9.3,9.3c5.1,0,9.3-4.2,9.3-9.3C49.3,37.8,45.1,33.7,40,33.7
		z M43.8,49.8c-1.5-0.3-2.7-1.7-2.3-3.3c0.3-1.2,0.1-2.1-0.3-2.6c-0.3,0.4-0.7,0.6-1.3,0.6c-0.1,0-0.1,0-0.2,0
		c-0.5,2.3-3.5,4.1-5.9,3.3c-1.1-1.4-1.7-3.1-1.7-5c1-1.1,2.8-1.5,4-0.3c0.9,0.9,1.7,1.1,2.4,1.1c-0.1-0.2-0.1-0.4-0.1-0.6
		c0-0.4,0.1-0.7,0.3-0.9c-1.8-1.6-1.8-5.1,0.1-6.8c1.8-0.3,3.6,0.1,5.2,1c0.4,1.4-0.1,3.2-1.7,3.6c-1.2,0.3-1.8,0.9-2.1,1.6
		c0.6,0.1,1.1,0.4,1.3,0.9c2.3-0.7,5.3,1,5.8,3.5C46.6,47.4,45.4,48.9,43.8,49.8z"/>
</g>
</svg>
