<?xml version="1.0" encoding="utf-8"?>
<!DOCTYPE svg PUBLIC "-//W3C//DTD SVG 1.1//EN" "http://www.w3.org/Graphics/SVG/1.1/DTD/svg11.dtd">
<svg version="1.1" xmlns="http://www.w3.org/2000/svg" xmlns:xlink="http://www.w3.org/1999/xlink" x="0px" y="0px"
	 viewBox="0 0 80 80" enable-background="new 0 0 80 80" xml:space="preserve">
<g id="dryer">
	<path d="M70,21.6l-0.9-0.2c-3.3-0.9-6.3-2.7-8.8-5c-2.8-2.6-6.5-4.2-10.6-4.2c-3.6,0-6.8,1.2-9.4,3.2c-2.7,2.1-5.9,3.3-9.3,3.8
		l-21,2.5v12.1l21,2.5c3.3,0.5,6.6,1.8,9.3,3.8c2.6,2,5.9,3.2,9.4,3.2c4.1,0,7.9-1.6,10.6-4.2c2.5-2.3,5.5-4.2,8.8-5l0.9-0.2V21.6z"
		/>
	<path d="M44.9,40.5v22.1L43,64.7c-1.1,1.2-0.3,3.2,1.4,3.2h10.3c1,0,1.9-0.8,1.9-1.9v-3.3V40.5H44.9z"/>
	<path d="M44.1,49.4h1V38.9l-3.4,6.5C40.7,47.2,42,49.4,44.1,49.4z"/>
</g>
<g id="fan" style="transform-origin: center;" animera="bindTopicToRotation?inputRange=[0,10]&amp;outputRange=[0,1]&amp;clamp=true">
	<path fill="#FFFFFF" d="M49.5,16.5c-6.2,0-11.2,5-11.2,11.2c0,6.2,5,11.2,11.2,11.2c6.2,0,11.2-5,11.2-11.2
		C60.7,21.5,55.7,16.5,49.5,16.5z M54.1,36c-1.8-0.4-3.3-2-2.7-4c0.4-1.5,0.1-2.5-0.3-3.2c-0.3,0.5-0.9,0.8-1.5,0.8
		c-0.1,0-0.1,0-0.2,0c-0.7,2.8-4.3,4.9-7.2,4c-1.3-1.7-2.1-3.8-2.1-6.1c1.2-1.3,3.4-1.8,4.8-0.4c1.1,1.1,2.1,1.4,2.9,1.3
		c-0.1-0.2-0.2-0.5-0.2-0.8c0-0.4,0.1-0.8,0.4-1.1c-2.1-2-2.1-6.2,0.1-8.2c2.1-0.3,4.3,0.1,6.3,1.2c0.5,1.7-0.1,3.8-2.1,4.3
		c-1.5,0.4-2.2,1.1-2.6,1.9c0.7,0.1,1.3,0.5,1.5,1.1c2.8-0.8,6.4,1.2,7,4.2C57.5,33.1,56.1,34.9,54.1,36z"/>
</g>
</svg>
