<?xml version="1.0" encoding="utf-8"?>
<!-- Generator: Adobe Illustrator 18.1.1, SVG Export Plug-In . SVG Version: 6.00 Build 0)  -->
<!DOCTYPE svg PUBLIC "-//W3C//DTD SVG 1.1//EN" "http://www.w3.org/Graphics/SVG/1.1/DTD/svg11.dtd">
<svg version="1.1" xmlns="http://www.w3.org/2000/svg" xmlns:xlink="http://www.w3.org/1999/xlink" x="0px" y="0px"
	 viewBox="0 0 80 80" style="enable-background:new 0 0 80 80;" xml:space="preserve">
<style type="text/css">
	.st0{fill:none;}
	.st1{fill:#999999;}
	.st2{font-family:'Klavika-Light';}
	.st3{font-size:18;}
	.st4{display:none;}
</style>
<g id="_x2D_Background2">
</g>
<g id="Gfx1">
</g>
<g id="GfxWhite">
</g>
<g id="_x2D_GuideText">
	<rect x="-38.5" y="80.5" class="st0" width="157" height="36.5"/>
	<text transform="matrix(1 0 0 1 15.5654 114.5693)" class="st1 st2 st3">Cloudy</text>
	<g>
		<path d="M54.6,27.8c-1.2,0-2.4,0.2-3.5,0.6c-2.4-5.7-8.1-9.7-14.6-9.7c-8.6,0-15.7,6.9-15.9,15.5c-0.7-0.2-1.5-0.3-2.3-0.3
			c-4.6,0-8.3,3.7-8.3,8.3c0,2.8,1.4,5.3,3.5,6.8c0.7-0.2,1.4-0.3,2.2-0.3c0.1,0,0.2,0,0.3,0c0.9-5.9,5.9-10.4,12.1-10.4
			c4.5,0,8.6,2.5,10.7,6.4c0.6-0.1,1.1-0.2,1.7-0.2c3.9,0,7.3,2.5,8.6,6h5.6c6.3,0,11.4-5.1,11.4-11.4C66,32.9,60.9,27.8,54.6,27.8z
			"/>
		<path d="M40.5,45.8c-0.8,0-1.7,0.1-2.4,0.4c-1.7-3.9-5.5-6.6-10-6.6c-5.9,0-10.7,4.7-10.9,10.6c-0.5-0.1-1-0.2-1.6-0.2
			c-3.1,0-5.7,2.5-5.7,5.7c0,3.1,2.5,5.7,5.7,5.7h24.8c4.3,0,7.8-3.5,7.8-7.8C48.3,49.3,44.8,45.8,40.5,45.8z"/>
		<path d="M64.2,23.3c-0.6,0-1.2,0.1-1.8,0.3c-1.2-2.9-4.1-4.9-7.5-4.9c-2.6,0-5,1.3-6.5,3.2c1.4,1.3,2.6,2.9,3.6,4.7
			c0.9-0.2,1.8-0.3,2.7-0.3c5.4,0,10.1,3.4,12,8.1c2-0.9,3.3-2.9,3.3-5.3C70,25.9,67.4,23.3,64.2,23.3z"/>
	</g>
</g>
<g id="_x2D_GuideLines" class="st4">
</g>
<g id="nyt_x5F_exporter_x5F_info" class="st4">
</g>
</svg>
