<?xml version="1.0" encoding="utf-8"?>
<!-- Generator: Adobe Illustrator 18.1.1, SVG Export Plug-In . SVG Version: 6.00 Build 0)  -->
<!DOCTYPE svg PUBLIC "-//W3C//DTD SVG 1.1//EN" "http://www.w3.org/Graphics/SVG/1.1/DTD/svg11.dtd">
<svg version="1.1" xmlns="http://www.w3.org/2000/svg" xmlns:xlink="http://www.w3.org/1999/xlink" x="0px" y="0px"
	 viewBox="0 0 80 80" style="enable-background:new 0 0 80 80;" xml:space="preserve">
<style type="text/css">
	.st0{fill:none;}
	.st1{fill:#999999;}
	.st2{font-family:'Klavika-Light';}
	.st3{font-size:18;}
	.st4{display:none;}
</style>
<g id="_x2D_Background2">
</g>
<g id="Gfx1">
</g>
<g id="GfxWhite">
</g>
<g id="_x2D_GuideText">
	<rect x="-38.5" y="80.5" class="st0" width="157" height="36.5"/>
	<text transform="matrix(1 0 0 1 4.1807 114.5693)" class="st1 st2 st3">LightRain</text>
	<g>
		<path d="M56.7,62.2c0.3,0.7,0,1.5-0.7,1.8c-0.7,0.3-1.5,0-1.8-0.7c-0.3-0.7-0.1-3.7-0.1-3.7S56.4,61.5,56.7,62.2z"/>
		<path d="M47.4,62.2c0.3,0.7,0,1.5-0.7,1.8c-0.7,0.3-1.5,0-1.8-0.7c-0.3-0.7-0.1-3.7-0.1-3.7S47.2,61.5,47.4,62.2z"/>
		<path d="M38.2,62.2c0.3,0.7,0,1.5-0.7,1.8c-0.7,0.3-1.5,0-1.8-0.7c-0.3-0.7-0.1-3.7-0.1-3.7S37.9,61.5,38.2,62.2z"/>
		<path d="M28.9,62.2c0.3,0.7,0,1.5-0.7,1.8c-0.7,0.3-1.5,0-1.8-0.7c-0.3-0.7-0.1-3.7-0.1-3.7S28.7,61.5,28.9,62.2z"/>
		<path d="M42.8,53.9c0.3,0.7,0,1.5-0.7,1.8c-0.7,0.3-1.5,0-1.8-0.7c-0.3-0.7-0.1-3.7-0.1-3.7S42.5,53.2,42.8,53.9z"/>
		<path d="M33.9,53.9c0.3,0.7,0,1.5-0.7,1.8c-0.7,0.3-1.5,0-1.8-0.7c-0.3-0.7-0.1-3.7-0.1-3.7S33.6,53.2,33.9,53.9z"/>
		<path d="M25,53.9c0.3,0.7,0,1.5-0.7,1.8c-0.7,0.3-1.5,0-1.8-0.7c-0.3-0.7-0.1-3.7-0.1-3.7S24.7,53.2,25,53.9z"/>
		<path d="M60.7,53.9c0.3,0.7,0,1.5-0.7,1.8c-0.7,0.3-1.5,0-1.8-0.7c-0.3-0.7-0.1-3.7-0.1-3.7S60.4,53.2,60.7,53.9z"/>
		<path d="M51.7,53.9c0.3,0.7,0,1.5-0.7,1.8c-0.7,0.3-1.5,0-1.8-0.7c-0.3-0.7-0.1-3.7-0.1-3.7S51.5,53.2,51.7,53.9z"/>
		<path d="M56.4,24.9c-1.2,0-2.4,0.2-3.5,0.6C50.5,19.9,45,16,38.5,16c-8.5,0-15.4,6.8-15.6,15.2c-0.7-0.2-1.5-0.3-2.2-0.3
			c-4.5,0-8.2,3.7-8.2,8.2c0,4.5,3.7,8.2,8.2,8.2h35.7c6.2,0,11.1-5,11.1-11.1C67.5,29.9,62.5,24.9,56.4,24.9z"/>
	</g>
</g>
<g id="_x2D_GuideLines" class="st4">
</g>
<g id="nyt_x5F_exporter_x5F_info" class="st4">
</g>
</svg>
