<?xml version="1.0" encoding="utf-8"?>
<!-- Generator: Adobe Illustrator 18.1.1, SVG Export Plug-In . SVG Version: 6.00 Build 0)  -->
<!DOCTYPE svg PUBLIC "-//W3C//DTD SVG 1.1//EN" "http://www.w3.org/Graphics/SVG/1.1/DTD/svg11.dtd">
<svg version="1.1" xmlns="http://www.w3.org/2000/svg" xmlns:xlink="http://www.w3.org/1999/xlink" x="0px" y="0px"
	 viewBox="0 0 80 80" style="enable-background:new 0 0 80 80;" xml:space="preserve">
<style type="text/css">
	.st0{fill:none;}
	.st1{fill:#999999;}
	.st2{font-family:'Klavika-Light';}
	.st3{font-size:18;}
	.st4{display:none;}
</style>
<g id="_x2D_Background2">
</g>
<g id="Gfx1">
</g>
<g id="GfxWhite">
</g>
<g id="_x2D_GuideText">
	<rect x="-38.5" y="80.5" class="st0" width="157" height="36.5"/>
	<text transform="matrix(1 0 0 1 23.3232 114.5693)" class="st1 st2 st3">Rain</text>
	<g>
		<g>
			<g>
				<path d="M55,63.8c0.5,1.2-0.1,2.6-1.3,3.1c-1.2,0.5-2.6-0.1-3.1-1.3c-0.5-1.2-0.2-6.6-0.2-6.6S54.5,62.6,55,63.8z"/>
				<path d="M47.5,63.8c0.5,1.2-0.1,2.6-1.3,3.1c-1.2,0.5-2.6-0.1-3.1-1.3C42.6,64.4,43,59,43,59S47,62.6,47.5,63.8z"/>
				<path d="M40.1,63.8c0.5,1.2-0.1,2.6-1.3,3.1c-1.2,0.5-2.6-0.1-3.1-1.3c-0.5-1.2-0.2-6.6-0.2-6.6S39.6,62.6,40.1,63.8z"/>
				<path d="M32.7,63.8c0.5,1.2-0.1,2.6-1.3,3.1c-1.2,0.5-2.6-0.1-3.1-1.3c-0.5-1.2-0.2-6.6-0.2-6.6S32.2,62.6,32.7,63.8z"/>
			</g>
			<g>
				<path d="M43.8,52.9c0.5,1.2-0.1,2.6-1.3,3.1c-1.2,0.5-2.6-0.1-3.1-1.3c-0.5-1.2-0.2-6.6-0.2-6.6S43.3,51.7,43.8,52.9z"/>
				<path d="M36.4,52.9c0.5,1.2-0.1,2.6-1.3,3.1c-1.2,0.5-2.6-0.1-3.1-1.3c-0.5-1.2-0.2-6.6-0.2-6.6S35.9,51.7,36.4,52.9z"/>
				<path d="M28.9,52.9c0.5,1.2-0.1,2.6-1.3,3.1c-1.2,0.5-2.6-0.1-3.1-1.3c-0.5-1.2-0.2-6.6-0.2-6.6S28.4,51.7,28.9,52.9z"/>
				<path d="M58.7,52.9c0.5,1.2-0.1,2.6-1.3,3.1c-1.2,0.5-2.6-0.1-3.1-1.3c-0.5-1.2-0.2-6.6-0.2-6.6S58.2,51.7,58.7,52.9z"/>
				<path d="M51.3,52.9c0.5,1.2-0.1,2.6-1.3,3.1c-1.2,0.5-2.6-0.1-3.1-1.3c-0.5-1.2-0.2-6.6-0.2-6.6S50.8,51.7,51.3,52.9z"/>
			</g>
		</g>
		<path d="M56.4,21.8c-1.2,0-2.4,0.2-3.5,0.6c-2.4-5.6-7.9-9.5-14.4-9.5c-8.5,0-15.4,6.8-15.6,15.2c-0.7-0.2-1.5-0.3-2.2-0.3
			c-4.5,0-8.2,3.7-8.2,8.2c0,4.5,3.7,8.2,8.2,8.2h35.7c6.2,0,11.1-5,11.1-11.1C67.5,26.8,62.5,21.8,56.4,21.8z"/>
	</g>
</g>
<g id="_x2D_GuideLines" class="st4">
</g>
<g id="nyt_x5F_exporter_x5F_info" class="st4">
</g>
</svg>
