<?xml version="1.0" encoding="utf-8"?>
<!-- Generator: Adobe Illustrator 18.1.1, SVG Export Plug-In . SVG Version: 6.00 Build 0)  -->
<!DOCTYPE svg PUBLIC "-//W3C//DTD SVG 1.1//EN" "http://www.w3.org/Graphics/SVG/1.1/DTD/svg11.dtd">
<svg version="1.1" xmlns="http://www.w3.org/2000/svg" xmlns:xlink="http://www.w3.org/1999/xlink" x="0px" y="0px"
	 viewBox="0 0 80 80" style="enable-background:new 0 0 80 80;" xml:space="preserve">
<style type="text/css">
	.st0{fill:none;}
	.st1{fill:#999999;}
	.st2{font-family:'Klavika-Light';}
	.st3{font-size:18;}
	.st4{display:none;}
</style>
<g id="_x2D_Background2">
</g>
<g id="Gfx1">
</g>
<g id="GfxWhite">
</g>
<g id="_x2D_GuideText">
	<rect x="-38.5" y="80.5" class="st0" width="157" height="37"/>
	<text transform="matrix(1 0 0 1 19.6152 114.5693)" class="st1 st2 st3">Snow</text>
	<g>
		<path d="M56.4,21.6c-1.2,0-2.4,0.2-3.5,0.6c-2.4-5.6-7.9-9.5-14.4-9.5c-8.5,0-15.4,6.8-15.6,15.2c-0.7-0.2-1.5-0.3-2.2-0.3
			c-4.5,0-8.2,3.7-8.2,8.2c0,4.5,3.7,8.2,8.2,8.2h35.7c6.2,0,11.1-5,11.1-11.1C67.5,26.6,62.5,21.6,56.4,21.6z"/>
		<g>
			<g>
				<g>
					<rect x="23.7" y="48.8" width="0.3" height="7.4"/>
					<path d="M23.9,50.3C23.8,50.3,23.8,50.3,23.9,50.3l-1.4-0.7l0.1-0.2l1.3,0.7l1.3-0.7l0.1,0.2L23.9,50.3
						C23.9,50.3,23.9,50.3,23.9,50.3z"/>
					<path d="M22.6,55.7l-0.1-0.2l1.3-0.7c0,0,0.1,0,0.1,0l1.3,0.7l-0.1,0.2L23.9,55L22.6,55.7z"/>
				</g>
				<g>
					<rect x="20.2" y="52.4" transform="matrix(0.866 0.5 -0.5 0.866 29.4541 -4.8912)" width="7.4" height="0.3"/>
					<path d="M26,55.2l-0.3,0l0-1.5c0,0,0-0.1,0.1-0.1l1.3-0.8l0.1,0.2L26,53.8L26,55.2z"/>
					<path d="M20.6,52.3L20.5,52l1.2-0.8l0-1.4l0.3,0l0,1.5c0,0,0,0.1-0.1,0.1L20.6,52.3z"/>
				</g>
				<g>
					<rect x="23.7" y="48.8" transform="matrix(0.5013 0.8653 -0.8653 0.5013 57.3368 5.5499)" width="0.3" height="7.4"/>
					<path d="M21.7,55.2l0-1.4L20.5,53l0.1-0.2l1.3,0.8c0,0,0.1,0.1,0.1,0.1l0,1.5L21.7,55.2z"/>
					<path d="M27.1,52.3l-1.3-0.8c0,0-0.1-0.1-0.1-0.1l0-1.5l0.3,0l0,1.4l1.2,0.8L27.1,52.3z"/>
				</g>
			</g>
			<g>
				<g>
					<rect x="34.5" y="48.8" width="0.3" height="7.4"/>
					<path d="M34.6,50.3C34.6,50.3,34.6,50.3,34.6,50.3l-1.4-0.7l0.1-0.2l1.3,0.7l1.3-0.7l0.1,0.2L34.6,50.3
						C34.7,50.3,34.6,50.3,34.6,50.3z"/>
					<path d="M33.3,55.7l-0.1-0.2l1.3-0.7c0,0,0.1,0,0.1,0l1.3,0.7l-0.1,0.2L34.6,55L33.3,55.7z"/>
				</g>
				<g>
					<rect x="30.9" y="52.4" transform="matrix(0.866 0.5001 -0.5001 0.866 30.903 -10.2736)" width="7.4" height="0.3"/>
					<path d="M36.7,55.2l-0.3,0l0-1.5c0,0,0-0.1,0.1-0.1l1.3-0.8L38,53l-1.2,0.8L36.7,55.2z"/>
					<path d="M31.4,52.3L31.2,52l1.2-0.8l0-1.4l0.3,0l0,1.5c0,0,0,0.1-0.1,0.1L31.4,52.3z"/>
				</g>
				<g>
					<rect x="34.5" y="48.8" transform="matrix(0.4968 0.8679 -0.8679 0.4968 62.996 -3.6175)" width="0.3" height="7.4"/>
					<path d="M32.5,55.2l0-1.4L31.2,53l0.1-0.2l1.3,0.8c0,0,0.1,0.1,0.1,0.1l0,1.5L32.5,55.2z"/>
					<path d="M37.9,52.3l-1.3-0.8c0,0-0.1-0.1-0.1-0.1l0-1.5l0.3,0l0,1.4L38,52L37.9,52.3z"/>
				</g>
			</g>
			<g>
				<g>
					<rect x="45.2" y="48.8" width="0.3" height="7.4"/>
					<path d="M45.4,50.3C45.4,50.3,45.3,50.3,45.4,50.3L44,49.6l0.1-0.2l1.3,0.7l1.3-0.7l0.1,0.2L45.4,50.3
						C45.4,50.3,45.4,50.3,45.4,50.3z"/>
					<path d="M44.1,55.7L44,55.5l1.3-0.7c0,0,0.1,0,0.1,0l1.3,0.7l-0.1,0.2L45.4,55L44.1,55.7z"/>
				</g>
				<g>
					<rect x="41.7" y="52.4" transform="matrix(0.8661 0.4999 -0.4999 0.8661 32.3315 -15.6546)" width="7.4" height="0.3"/>
					<path d="M47.5,55.2l-0.3,0l0-1.5c0,0,0-0.1,0.1-0.1l1.3-0.8l0.1,0.2l-1.2,0.8L47.5,55.2z"/>
					<path d="M42.1,52.3L42,52l1.2-0.8l0-1.4l0.3,0l0,1.5c0,0,0,0.1-0.1,0.1L42.1,52.3z"/>
				</g>
				<g>
					<rect x="45.2" y="48.8" transform="matrix(0.5024 0.8646 -0.8646 0.5024 67.9853 -13.1092)" width="0.3" height="7.4"/>
					<path d="M43.3,55.2l0-1.4L42,53l0.1-0.2l1.3,0.8c0,0,0.1,0.1,0.1,0.1l0,1.5L43.3,55.2z"/>
					<path d="M48.6,52.3l-1.3-0.8c0,0-0.1-0.1-0.1-0.1l0-1.5l0.3,0l0,1.4l1.2,0.8L48.6,52.3z"/>
				</g>
			</g>
			<g>
				<g>
					<rect x="56" y="48.8" width="0.3" height="7.4"/>
					<path d="M56.1,50.3C56.1,50.3,56.1,50.3,56.1,50.3l-1.4-0.7l0.1-0.2l1.3,0.7l1.3-0.7l0.1,0.2L56.1,50.3
						C56.2,50.3,56.2,50.3,56.1,50.3z"/>
					<path d="M54.9,55.7l-0.1-0.2l1.3-0.7c0,0,0.1,0,0.1,0l1.3,0.7l-0.1,0.2L56.1,55L54.9,55.7z"/>
				</g>
				<g>
					<rect x="52.4" y="52.4" transform="matrix(0.8661 0.4999 -0.4999 0.8661 33.7737 -21.0361)" width="7.4" height="0.3"/>
					<path d="M58.3,55.2l-0.3,0l0-1.5c0,0,0-0.1,0.1-0.1l1.3-0.8l0.1,0.2l-1.2,0.8L58.3,55.2z"/>
					<path d="M52.9,52.3L52.7,52l1.2-0.8l0-1.4l0.3,0l0,1.5c0,0,0,0.1-0.1,0.1L52.9,52.3z"/>
				</g>
				<g>
					<rect x="56" y="48.8" transform="matrix(0.4979 0.8672 -0.8672 0.4979 73.7296 -22.3261)" width="0.3" height="7.4"/>
					<path d="M54,55.2l0-1.4L52.7,53l0.1-0.2l1.3,0.8c0,0,0.1,0.1,0.1,0.1l0,1.5L54,55.2z"/>
					<path d="M59.4,52.3l-1.3-0.8c0,0-0.1-0.1-0.1-0.1l0-1.5l0.3,0l0,1.4l1.2,0.8L59.4,52.3z"/>
				</g>
			</g>
		</g>
		<g>
			<g>
				<g>
					<rect x="29.1" y="59.9" width="0.3" height="7.4"/>
					<path d="M29.2,61.4C29.2,61.4,29.2,61.4,29.2,61.4l-1.4-0.7l0.1-0.2l1.3,0.7l1.3-0.7l0.1,0.2L29.2,61.4
						C29.3,61.4,29.3,61.4,29.2,61.4z"/>
					<path d="M28,66.8l-0.1-0.2l1.3-0.7c0,0,0.1,0,0.1,0l1.3,0.7l-0.1,0.2l-1.3-0.7L28,66.8z"/>
				</g>
				<g>
					<rect x="25.5" y="63.5" transform="matrix(0.866 0.5 -0.5 0.866 35.7264 -6.0941)" width="7.4" height="0.3"/>
					<path d="M31.4,66.3l-0.3,0l0-1.5c0,0,0-0.1,0.1-0.1l1.3-0.8l0.1,0.2l-1.2,0.8L31.4,66.3z"/>
					<path d="M26,63.4l-0.1-0.2l1.2-0.8l0-1.4l0.3,0l0,1.5c0,0,0,0.1-0.1,0.1L26,63.4z"/>
				</g>
				<g>
					<rect x="29.1" y="59.9" transform="matrix(0.5003 0.8658 -0.8658 0.5003 69.6954 6.4774)" width="0.3" height="7.4"/>
					<path d="M27.1,66.3l0-1.4l-1.2-0.8l0.1-0.2l1.3,0.8c0,0,0.1,0.1,0.1,0.1l0,1.5L27.1,66.3z"/>
					<path d="M32.5,63.4l-1.3-0.8c0,0-0.1-0.1-0.1-0.1l0-1.5l0.3,0l0,1.4l1.2,0.8L32.5,63.4z"/>
				</g>
			</g>
			<g>
				<g>
					<rect x="39.9" y="59.9" width="0.3" height="7.4"/>
					<path d="M40,61.4C40,61.4,40,61.4,40,61.4l-1.4-0.7l0.1-0.2l1.3,0.7l1.3-0.7l0.1,0.2L40,61.4C40,61.4,40,61.4,40,61.4z"/>
					<path d="M38.7,66.8l-0.1-0.2l1.3-0.7c0,0,0.1,0,0.1,0l1.3,0.7l-0.1,0.2L40,66.1L38.7,66.8z"/>
				</g>
				<g>
					<rect x="36.3" y="63.5" transform="matrix(0.866 0.5 -0.5 0.866 37.1688 -11.4761)" width="7.4" height="0.3"/>
					<path d="M42.1,66.3l-0.3,0l0-1.5c0,0,0-0.1,0.1-0.1l1.3-0.8l0.1,0.2l-1.2,0.8L42.1,66.3z"/>
					<path d="M36.8,63.4l-0.1-0.2l1.2-0.8l0-1.4l0.3,0l0,1.5c0,0,0,0.1-0.1,0.1L36.8,63.4z"/>
				</g>
				<g>
					<rect x="39.9" y="59.9" transform="matrix(0.5003 0.8658 -0.8658 0.5003 75.074 -2.8428)" width="0.3" height="7.4"/>
					<path d="M37.9,66.3l0-1.4l-1.2-0.8l0.1-0.2l1.3,0.8c0,0,0.1,0.1,0.1,0.1l0,1.5L37.9,66.3z"/>
					<path d="M43.3,63.4L42,62.6c0,0-0.1-0.1-0.1-0.1l0-1.5l0.3,0l0,1.4l1.2,0.8L43.3,63.4z"/>
				</g>
			</g>
			<g>
				<g>
					<rect x="50.6" y="59.9" width="0.3" height="7.4"/>
					<path d="M50.8,61.4C50.7,61.4,50.7,61.4,50.8,61.4l-1.4-0.7l0.1-0.2l1.3,0.7l1.3-0.7l0.1,0.2L50.8,61.4
						C50.8,61.4,50.8,61.4,50.8,61.4z"/>
					<path d="M49.5,66.8l-0.1-0.2l1.3-0.7c0,0,0.1,0,0.1,0l1.3,0.7L52,66.8l-1.3-0.7L49.5,66.8z"/>
				</g>
				<g>
					<rect x="47.1" y="63.5" transform="matrix(0.8661 0.4999 -0.4999 0.8661 38.6061 -16.8574)" width="7.4" height="0.3"/>
					<path d="M52.9,66.3l-0.3,0l0-1.5c0,0,0-0.1,0.1-0.1l1.3-0.8l0.1,0.2l-1.2,0.8L52.9,66.3z"/>
					<path d="M47.5,63.4l-0.1-0.2l1.2-0.8l0-1.4l0.3,0l0,1.5c0,0,0,0.1-0.1,0.1L47.5,63.4z"/>
				</g>
				<g>
					<rect x="50.6" y="59.9" transform="matrix(0.499 0.8666 -0.8666 0.499 80.5666 -12.1186)" width="0.3" height="7.4"/>
					<path d="M48.6,66.3l0-1.4l-1.2-0.8l0.1-0.2l1.3,0.8c0,0,0.1,0.1,0.1,0.1l0,1.5L48.6,66.3z"/>
					<path d="M54,63.4l-1.3-0.8c0,0-0.1-0.1-0.1-0.1l0-1.5l0.3,0l0,1.4l1.2,0.8L54,63.4z"/>
				</g>
			</g>
		</g>
	</g>
</g>
<g id="_x2D_GuideLines" class="st4">
</g>
<g id="nyt_x5F_exporter_x5F_info" class="st4">
</g>
</svg>
