<?xml version="1.0" encoding="utf-8"?>
<!-- Generator: Adobe Illustrator 18.1.1, SVG Export Plug-In . SVG Version: 6.00 Build 0)  -->
<!DOCTYPE svg PUBLIC "-//W3C//DTD SVG 1.1//EN" "http://www.w3.org/Graphics/SVG/1.1/DTD/svg11.dtd">
<svg version="1.1" xmlns="http://www.w3.org/2000/svg" xmlns:xlink="http://www.w3.org/1999/xlink" x="0px" y="0px"
	 viewBox="0 0 80 80" style="enable-background:new 0 0 80 80;" xml:space="preserve">
<style type="text/css">
	.st0{fill:none;}
	.st1{fill:#999999;}
	.st2{font-family:'Klavika-Light';}
	.st3{font-size:18;}
	.st4{display:none;}
</style>
<g id="_x2D_Background2">
</g>
<g id="Gfx1">
</g>
<g id="GfxWhite">
</g>
<g id="_x2D_GuideText">
	<rect x="-38.5" y="80.5" class="st0" width="157" height="37"/>
	<text transform="matrix(1 0 0 1 -7.3931 114.5693)" class="st1 st2 st3">SunnyCloudy</text>
	<g>
		<path d="M23.9,27.4l-7.7-2.4l2.4,7.7C19.9,30.4,21.7,28.6,23.9,27.4z"/>
		<path d="M16.7,39.9c0-1.3,0.2-2.5,0.5-3.7L10,39.9l7.2,3.7C16.9,42.4,16.7,41.1,16.7,39.9z"/>
		<path d="M18.6,47.1l-2.4,7.7l7.7-2.4C21.7,51.1,19.9,49.3,18.6,47.1z"/>
		<path d="M61.4,44c-0.9,0-1.9,0.2-2.7,0.4c-1.8-4.3-6.1-7.4-11.1-7.4c-6.6,0-11.9,5.2-12.1,11.8c-0.6-0.2-1.1-0.2-1.7-0.2
			c-3.5,0-6.3,2.8-6.3,6.3c0,3.5,2.8,6.3,6.3,6.3h27.7c4.8,0,8.6-3.9,8.6-8.6C70,47.9,66.1,44,61.4,44z"/>
		<path d="M31.1,25.4c1.3,0,2.5,0.2,3.7,0.5l-3.7-7.2l-3.7,7.2C28.6,25.6,29.8,25.4,31.1,25.4z"/>
		<path d="M43.6,32.6l2.4-7.7l-7.7,2.4C40.5,28.6,42.4,30.4,43.6,32.6z"/>
		<path d="M33.7,46.9c0.1,0,0.2,0,0.3,0c0.8-5.1,4.3-9.1,9-10.8c-1.6-5.1-6.3-8.7-11.9-8.7c-6.8,0-12.4,5.6-12.4,12.4
			c0,5.2,3.2,9.7,7.8,11.5C27.9,48.8,30.6,46.9,33.7,46.9z"/>
	</g>
</g>
<g id="_x2D_GuideLines" class="st4">
</g>
<g id="nyt_x5F_exporter_x5F_info" class="st4">
</g>
</svg>
