<?xml version="1.0" encoding="utf-8"?>
<!-- Generator: Adobe Illustrator 18.1.1, SVG Export Plug-In . SVG Version: 6.00 Build 0)  -->
<!DOCTYPE svg PUBLIC "-//W3C//DTD SVG 1.1//EN" "http://www.w3.org/Graphics/SVG/1.1/DTD/svg11.dtd">
<svg version="1.1" xmlns="http://www.w3.org/2000/svg" xmlns:xlink="http://www.w3.org/1999/xlink" x="0px" y="0px"
	 viewBox="0 0 80 80" style="enable-background:new 0 0 80 80;" xml:space="preserve">
<style type="text/css">
	.st0{fill:none;}
	.st1{fill:#999999;}
	.st2{font-family:'Klavika-Light';}
	.st3{font-size:18;}
	.st4{display:none;}
</style>
<g id="_x2D_Background2">
</g>
<g id="Gfx1">
</g>
<g id="GfxWhite">
</g>
<g id="_x2D_GuideText">
	<rect x="-38.5" y="80" class="st0" width="157" height="37.5"/>
	<text transform="matrix(1 0 0 1 17.0415 114.0918)" class="st1 st2 st3">Sunny</text>
	<g>
		<g>
			<path d="M40,21.2c1.7,0,3.3,0.2,4.8,0.7L40,12.5l-4.8,9.3C36.7,21.4,38.3,21.2,40,21.2z"/>
			<path d="M56.3,30.6l3.2-10l-10,3.2C52.3,25.4,54.6,27.7,56.3,30.6z"/>
			<path d="M67.5,40l-9.3-4.8c0.4,1.5,0.7,3.2,0.7,4.8c0,1.7-0.2,3.3-0.7,4.8L67.5,40z"/>
			<path d="M30.6,23.7l-10-3.2l3.2,10C25.4,27.7,27.7,25.4,30.6,23.7z"/>
			<path d="M21.2,40c0-1.7,0.2-3.3,0.7-4.8L12.5,40l9.3,4.8C21.4,43.3,21.2,41.7,21.2,40z"/>
			<path d="M49.4,56.3l10,3.2l-3.2-10C54.6,52.3,52.3,54.6,49.4,56.3z"/>
			<path d="M23.7,49.4l-3.2,10l10-3.2C27.7,54.6,25.4,52.3,23.7,49.4z"/>
			<path d="M40,58.8c-1.7,0-3.3-0.2-4.8-0.7l4.8,9.3l4.8-9.3C43.3,58.6,41.7,58.8,40,58.8z"/>
		</g>
		<path d="M40,56.2c-8.9,0-16.2-7.2-16.2-16.2c0-8.9,7.2-16.2,16.2-16.2S56.2,31.1,56.2,40C56.2,48.9,48.9,56.2,40,56.2z"/>
	</g>
</g>
<g id="_x2D_GuideLines" class="st4">
</g>
<g id="nyt_x5F_exporter_x5F_info" class="st4">
</g>
</svg>
