<?xml version="1.0" encoding="utf-8"?>
<!-- Generator: Adobe Illustrator 18.1.1, SVG Export Plug-In . SVG Version: 6.00 Build 0)  -->
<!DOCTYPE svg PUBLIC "-//W3C//DTD SVG 1.1//EN" "http://www.w3.org/Graphics/SVG/1.1/DTD/svg11.dtd">
<svg version="1.1" xmlns="http://www.w3.org/2000/svg" xmlns:xlink="http://www.w3.org/1999/xlink" x="0px" y="0px"
	 viewBox="0 0 80 80" style="enable-background:new 0 0 80 80;" xml:space="preserve">
<style type="text/css">
	.st0{fill:none;}
	.st1{fill:#999999;}
	.st2{font-family:'Klavika-Light';}
	.st3{font-size:18;}
	.st4{display:none;}
</style>
<g id="_x2D_Background2">
</g>
<g id="Gfx1">
</g>
<g id="GfxWhite">
</g>
<g id="_x2D_GuideText">
	<rect x="-38.5" y="80.6" class="st0" width="157" height="36.8"/>
	<text transform="matrix(1 0 0 1 9.5258 114.6487)" class="st1 st2 st3">Thunder</text>
	<g>
		<path d="M51.6,60.2c0.5,1.1-0.1,2.4-1.2,2.9c-1.1,0.5-2.4-0.1-2.9-1.2c-0.5-1.1-0.2-6.2-0.2-6.2S51.1,59,51.6,60.2z"/>
		<path d="M34.1,60.2c0.5,1.1-0.1,2.4-1.2,2.9c-1.1,0.5-2.4-0.1-2.9-1.2c-0.5-1.1-0.2-6.2-0.2-6.2S33.6,59,34.1,60.2z"/>
		<path d="M33.4,50c0.5,1.1-0.1,2.4-1.2,2.9c-1.1,0.5-2.4-0.1-2.9-1.2c-0.5-1.1-0.2-6.2-0.2-6.2S32.9,48.8,33.4,50z"/>
		<path d="M26.4,50c0.5,1.1-0.1,2.4-1.2,2.9c-1.1,0.5-2.4-0.1-2.9-1.2c-0.5-1.1-0.2-6.2-0.2-6.2S25.9,48.8,26.4,50z"/>
		<path d="M57.8,50c0.5,1.1-0.1,2.4-1.2,2.9c-1.1,0.5-2.4-0.1-2.9-1.2c-0.5-1.1-0.2-6.2-0.2-6.2S57.3,48.8,57.8,50z"/>
		<path d="M50.8,50c0.5,1.1-0.1,2.4-1.2,2.9c-1.1,0.5-2.4-0.1-2.9-1.2c-0.5-1.1-0.2-6.2-0.2-6.2S50.4,48.8,50.8,50z"/>
		<path d="M55.3,20.9c-1.1,0-2.2,0.2-3.3,0.5c-2.2-5.2-7.4-8.9-13.5-8.9c-7.9,0-14.4,6.3-14.6,14.2c-0.7-0.2-1.4-0.3-2.1-0.3
			c-4.2,0-7.7,3.4-7.7,7.7c0,4.2,3.4,7.7,7.7,7.7h33.4c5.8,0,10.4-4.7,10.4-10.4C65.8,25.5,61.1,20.9,55.3,20.9z"/>
		<polygon points="34.3,45.5 42,45.5 44.3,55.6 41.6,55.6 44.3,67.5 35.8,53.6 39.2,53.6 		"/>
	</g>
</g>
<g id="_x2D_GuideLines" class="st4">
</g>
<g id="nyt_x5F_exporter_x5F_info" class="st4">
</g>
</svg>
