<?xml version="1.0" encoding="utf-8"?>
<!-- Generator: Adobe Illustrator 19.1.0, SVG Export Plug-In . SVG Version: 6.00 Build 0)  -->
<!DOCTYPE svg PUBLIC "-//W3C//DTD SVG 1.1//EN" "http://www.w3.org/Graphics/SVG/1.1/DTD/svg11.dtd">
<svg version="1.1" xmlns="http://www.w3.org/2000/svg" xmlns:xlink="http://www.w3.org/1999/xlink" x="0px" y="0px"
	 viewBox="0 0 80 80" enable-background="new 0 0 80 80" xml:space="preserve">
<g id="_x2D_Background2">
</g>
<g id="Gfx1">
	<path d="M56.2,50.7H23.8c-7,0-12.6-5.6-12.6-12.6v0c0-7,5.6-12.6,12.6-12.6h32.3c7,0,12.6,5.6,12.6,12.6v0
		C68.7,45.1,63.1,50.7,56.2,50.7z"/>
	<path d="M48.5,23.5H31.2v0c0-1.8,1.4-3.2,3.2-3.2h10.9C47,20.3,48.5,21.8,48.5,23.5L48.5,23.5z"/>
	<path d="M29.9,52.2c0,1.8-1.5,3.3-3.3,3.3s-3.3-1.5-3.3-3.3H29.9z"/>
	<path d="M56.6,52.2c0,1.8-1.5,3.3-3.3,3.3s-3.3-1.5-3.3-3.3H56.6z"/>
</g>
<g id="GfxWhite">
	<path fill="#FFFFFF" d="M56,29.9H24c-4.6,0-8.2,3.7-8.2,8.2l0,0c0,4.6,3.7,8.2,8.2,8.2h32c4.6,0,8.2-3.7,8.2-8.2l0,0
		C64.3,33.6,60.6,29.9,56,29.9z M23.1,43.1c0,0.2-0.1,0.3-0.3,0.3c-0.2,0-0.3-0.1-0.3-0.3v-4.3c0-0.2,0.1-0.3,0.3-0.3
		c0.2,0,0.3,0.1,0.3,0.3V43.1z M23.1,37.6c0,0.2-0.1,0.3-0.3,0.3c-0.2,0-0.3-0.1-0.3-0.3v-4.3c0-0.2,0.1-0.3,0.3-0.3
		c0.2,0,0.3,0.1,0.3,0.3V37.6z M27.7,44h-4.3c-0.2,0-0.3-0.1-0.3-0.3s0.1-0.3,0.3-0.3h4.3c0.2,0,0.3,0.1,0.3,0.3S27.8,44,27.7,44z
		 M27.7,32.9h-4.3c-0.2,0-0.3-0.1-0.3-0.3c0-0.2,0.1-0.3,0.3-0.3h4.3c0.2,0,0.3,0.1,0.3,0.3C28,32.8,27.8,32.9,27.7,32.9z
		 M28.6,43.1c0,0.2-0.1,0.3-0.3,0.3c-0.2,0-0.3-0.1-0.3-0.3v-4.3c0-0.2,0.1-0.3,0.3-0.3c0.2,0,0.3,0.1,0.3,0.3V43.1z M28.6,37.6
		c0,0.2-0.1,0.3-0.3,0.3c-0.2,0-0.3-0.1-0.3-0.3v-4.3c0-0.2,0.1-0.3,0.3-0.3c0.2,0,0.3,0.1,0.3,0.3V37.6z M31.5,43.1
		c0,0.2-0.1,0.3-0.3,0.3c-0.2,0-0.3-0.1-0.3-0.3v-4.3c0-0.2,0.1-0.3,0.3-0.3c0.2,0,0.3,0.1,0.3,0.3V43.1z M31.5,37.6
		c0,0.2-0.1,0.3-0.3,0.3c-0.2,0-0.3-0.1-0.3-0.3v-4.3c0-0.2,0.1-0.3,0.3-0.3c0.2,0,0.3,0.1,0.3,0.3V37.6z M36.1,44h-4.3
		c-0.2,0-0.3-0.1-0.3-0.3s0.1-0.3,0.3-0.3h4.3c0.2,0,0.3,0.1,0.3,0.3S36.3,44,36.1,44z M36.1,38.4h-4.3c-0.2,0-0.3-0.1-0.3-0.3
		c0-0.2,0.1-0.3,0.3-0.3h4.3c0.2,0,0.3,0.1,0.3,0.3C36.4,38.3,36.3,38.4,36.1,38.4z M36.1,32.9h-4.3c-0.2,0-0.3-0.1-0.3-0.3
		c0-0.2,0.1-0.3,0.3-0.3h4.3c0.2,0,0.3,0.1,0.3,0.3C36.4,32.8,36.3,32.9,36.1,32.9z M37,43.1c0,0.2-0.1,0.3-0.3,0.3
		c-0.2,0-0.3-0.1-0.3-0.3v-4.3c0-0.2,0.1-0.3,0.3-0.3c0.2,0,0.3,0.1,0.3,0.3V43.1z M37,37.6c0,0.2-0.1,0.3-0.3,0.3
		c-0.2,0-0.3-0.1-0.3-0.3v-4.3c0-0.2,0.1-0.3,0.3-0.3c0.2,0,0.3,0.1,0.3,0.3V37.6z M40,40.2c-0.3,0-0.6-0.3-0.6-0.6
		c0-0.3,0.3-0.6,0.6-0.6s0.6,0.3,0.6,0.6C40.6,40,40.3,40.2,40,40.2z M40,37.3c-0.3,0-0.6-0.3-0.6-0.6s0.3-0.6,0.6-0.6
		s0.6,0.3,0.6,0.6S40.3,37.3,40,37.3z M43.5,43.1c0,0.2-0.1,0.3-0.3,0.3c-0.2,0-0.3-0.1-0.3-0.3v-4.3c0-0.2,0.1-0.3,0.3-0.3
		c0.2,0,0.3,0.1,0.3,0.3V43.1z M43.5,37.6c0,0.2-0.1,0.3-0.3,0.3c-0.2,0-0.3-0.1-0.3-0.3v-4.3c0-0.2,0.1-0.3,0.3-0.3
		c0.2,0,0.3,0.1,0.3,0.3V37.6z M48.1,44h-4.3c-0.2,0-0.3-0.1-0.3-0.3s0.1-0.3,0.3-0.3h4.3c0.2,0,0.3,0.1,0.3,0.3S48.3,44,48.1,44z
		 M48.1,32.9h-4.3c-0.2,0-0.3-0.1-0.3-0.3c0-0.2,0.1-0.3,0.3-0.3h4.3c0.2,0,0.3,0.1,0.3,0.3C48.4,32.8,48.3,32.9,48.1,32.9z
		 M49,43.1c0,0.2-0.1,0.3-0.3,0.3c-0.2,0-0.3-0.1-0.3-0.3v-4.3c0-0.2,0.1-0.3,0.3-0.3c0.2,0,0.3,0.1,0.3,0.3V43.1z M49,37.6
		c0,0.2-0.1,0.3-0.3,0.3c-0.2,0-0.3-0.1-0.3-0.3v-4.3c0-0.2,0.1-0.3,0.3-0.3c0.2,0,0.3,0.1,0.3,0.3V37.6z M52,43.1
		c0,0.2-0.1,0.3-0.3,0.3c-0.2,0-0.3-0.1-0.3-0.3v-4.3c0-0.2,0.1-0.3,0.3-0.3c0.2,0,0.3,0.1,0.3,0.3V43.1z M52,37.6
		c0,0.2-0.1,0.3-0.3,0.3c-0.2,0-0.3-0.1-0.3-0.3v-4.3c0-0.2,0.1-0.3,0.3-0.3c0.2,0,0.3,0.1,0.3,0.3V37.6z M56.6,44h-4.3
		c-0.2,0-0.3-0.1-0.3-0.3s0.1-0.3,0.3-0.3h4.3c0.2,0,0.3,0.1,0.3,0.3S56.8,44,56.6,44z M56.6,32.9h-4.3c-0.2,0-0.3-0.1-0.3-0.3
		c0-0.2,0.1-0.3,0.3-0.3h4.3c0.2,0,0.3,0.1,0.3,0.3C56.9,32.8,56.8,32.9,56.6,32.9z M57.5,43.1c0,0.2-0.1,0.3-0.3,0.3
		c-0.2,0-0.3-0.1-0.3-0.3v-4.3c0-0.2,0.1-0.3,0.3-0.3c0.2,0,0.3,0.1,0.3,0.3V43.1z M57.5,37.6c0,0.2-0.1,0.3-0.3,0.3
		c-0.2,0-0.3-0.1-0.3-0.3v-4.3c0-0.2,0.1-0.3,0.3-0.3c0.2,0,0.3,0.1,0.3,0.3V37.6z"/>
</g>
<g id="_x2D_GuideText">
	<polyline fill="none" points="118.5,80 118.5,117.5 -38.5,117.5 -38.5,80 	"/>
	<text transform="matrix(1 0 0 1 -1.1562 114.0916)" fill="#999999" font-family="'Klavika-Light'" font-size="18px">AlarmClock</text>
</g>
<g id="_x2D_GuideLines" display="none">
</g>
<g id="nyt_x5F_exporter_x5F_info" display="none">
</g>
</svg>
