<?xml version="1.0" encoding="utf-8"?>
<!-- Generator: Adobe Illustrator 19.1.0, SVG Export Plug-In . SVG Version: 6.00 Build 0)  -->
<!DOCTYPE svg PUBLIC "-//W3C//DTD SVG 1.1//EN" "http://www.w3.org/Graphics/SVG/1.1/DTD/svg11.dtd">
<svg version="1.1" xmlns="http://www.w3.org/2000/svg" xmlns:xlink="http://www.w3.org/1999/xlink" x="0px" y="0px"
	 viewBox="0 0 80 80" enable-background="new 0 0 80 80" xml:space="preserve">
<g id="_x2D_Background2">
</g>
<g id="Gfx1">
	<path d="M67.2,29.1c0,2.1-1.7,3.9-3.9,3.9c-2.1,0-3.9-1.7-3.9-3.9c0,2.1-1.7,3.9-3.9,3.9c-2.2,0-3.9-1.7-3.9-3.9
		c0,2.1-1.7,3.9-3.9,3.9c-2.1,0-3.9-1.7-3.9-3.9c0,2.1-1.7,3.9-3.9,3.9c-2.1,0-3.9-1.7-3.9-3.9c0,2.1-1.7,3.9-3.9,3.9
		c-2.1,0-3.9-1.7-3.9-3.9c0,2.1-1.7,3.9-3.9,3.9c-2.1,0-3.9-1.7-3.9-3.9c0,2.1-1.7,3.9-3.9,3.9c-2.1,0-3.9-1.7-3.9-3.9v31.5h54.5
		V29.1z"/>
	<path d="M68.5,24.6c0-0.2-0.1-0.4-0.1-0.5l-1.9-5.2c-0.1-0.4-0.5-0.7-0.9-0.7H14.4c-0.4,0-0.8,0.3-0.9,0.7l-1.9,5.3
		c0,0.1,0,0.2-0.1,0.3c0,0,0,0,0,0v36.1c0,0.6,0.4,1,1,1h55c0.6,0,1-0.4,1-1L68.5,24.6C68.5,24.7,68.5,24.6,68.5,24.6z M66.5,59.7
		h-53V25.6h53V59.7z"/>
</g>
<g id="GfxWhite">
	<path fill="#FFFFFF" d="M49.6,42.2l-2.8,2.1c-1,0.6-2.2,0.4-3-0.5c-1.3-1.3-3.5-2.2-6.1-2.2c-4,0-7.3,2.2-7.3,4.9
		c0,2.7,3.3,4.9,7.3,4.9c2.5,0,4.8-0.9,6.1-2.2c0.8-0.8,2-1,3-0.5l2.8,2.1c0,0-2.1-2.8-2.1-4.3C47.4,45.1,49.6,42.2,49.6,42.2z
		 M34.2,46.4c-0.9,0-1.5-0.7-1.5-1.5c0-0.9,0.7-1.5,1.5-1.5s1.5,0.7,1.5,1.5C35.8,45.7,35.1,46.4,34.2,46.4z"/>
</g>
<g id="_x2D_GuideText">
	<rect x="-38.5" y="80" fill="none" width="157" height="37.5"/>
	<text transform="matrix(1 0 0 1 3.8657 114.0917)" fill="#999999" font-family="'Klavika-Light'" font-size="18px">Aquarium</text>
</g>
<g id="_x2D_GuideLines" display="none">
</g>
<g id="nyt_x5F_exporter_x5F_info" display="none">
</g>
</svg>
