<?xml version="1.0" encoding="utf-8"?>
<!-- Generator: Adobe Illustrator 19.1.0, SVG Export Plug-In . SVG Version: 6.00 Build 0)  -->
<!DOCTYPE svg PUBLIC "-//W3C//DTD SVG 1.1//EN" "http://www.w3.org/Graphics/SVG/1.1/DTD/svg11.dtd">
<svg version="1.1" xmlns="http://www.w3.org/2000/svg" xmlns:xlink="http://www.w3.org/1999/xlink" x="0px" y="0px"
	 viewBox="0 0 80 80" enable-background="new 0 0 80 80" xml:space="preserve">
<g id="_x2D_Background2">
</g>
<g id="Gfx1">
	<path d="M63.8,59.5c0.4,0.2,0.9,0.3,1.4,0.3c1.9,0,3.4-1.5,3.4-3.4V45.1c0-1.9-1.5-3.4-3.4-3.4h-5H41.8c-0.4,0-0.7,0.2-0.9,0.6
		c-0.2,0.3-0.1,0.7,0.1,1l2.4,3.1c-1.2,0.7-2.1,2-2.1,3.5v9.3c0,2.3,1.2,4.2,2.9,5.4H32.8V39.7h27.3c0.3,0,0.5-0.2,0.5-0.5v-2.5
		c0-0.3-0.2-0.5-0.5-0.5h-0.5v-5.8c0-0.1,0-0.1,0-0.2l4.7-10.7c0.1-0.2,0.1-0.3,0-0.5c-0.1-0.1-0.3-0.2-0.4-0.2H41.8
		c-0.2,0-0.3,0.1-0.4,0.2c-0.1,0.1-0.1,0.3,0,0.5L46,30.3c0,0.1,0,0.1,0,0.2v5.8H35.4c1.3-0.7,2.3-1.9,2.5-3.4l2-15.1l0,0
		c0-0.1,0-0.2,0-0.3h13.3c0.3,0,0.5-0.2,0.5-0.5V15c0-0.3-0.2-0.5-0.5-0.5h-14c-0.8-1.2-2.2-2.1-3.8-2.1H18c-2.8,0-4.9,2.4-4.5,5.2
		l2,15.1c0.3,2.3,2.2,3.9,4.5,3.9h0.5v27.9h-7.1v5h55v-5h-7.6C62.5,63.5,63.6,61.7,63.8,59.5z M17.5,32.5l-1.7-12.9h21.8l-1.7,12.9
		c-0.2,1.3-1.3,2.2-2.5,2.2H20C18.8,34.7,17.7,33.7,17.5,32.5z M66.5,45.1v11.4c0,0.8-0.6,1.4-1.4,1.4s-1.4-0.6-1.4-1.4v-6.6
		c0-1.7-1.1-3.2-2.7-3.8v-2.4h4C65.9,43.7,66.5,44.3,66.5,45.1z M61.8,59.2c0,2.4-2,4.4-4.4,4.4h-9.7c-2.4,0-4.4-2-4.4-4.4v-9.3
		c0-1.1,0.9-2,2-2h14.4c1.1,0,2,0.9,2,2V59.2z"/>
</g>
<g id="GfxWhite">
	<rect x="23.2" y="66.4" fill="#FFFFFF" width="3" height="1"/>
	<rect x="27.6" y="66.4" fill="#FFFFFF" width="3" height="1"/>
</g>
<g id="_x2D_GuideText">
	<rect x="-38.5" y="80" fill="none" width="157" height="37.5"/>
	<text transform="matrix(1 0 0 1 -10.894 114.0917)" fill="#999999" font-family="'Klavika-Light'" font-size="18px">Coffemachine</text>
</g>
<g id="_x2D_GuideLines" display="none">
</g>
<g id="nyt_x5F_exporter_x5F_info" display="none">
</g>
</svg>
