<?xml version="1.0" encoding="utf-8"?>
<!-- Generator: Adobe Illustrator 19.1.0, SVG Export Plug-In . SVG Version: 6.00 Build 0)  -->
<!DOCTYPE svg PUBLIC "-//W3C//DTD SVG 1.1//EN" "http://www.w3.org/Graphics/SVG/1.1/DTD/svg11.dtd">
<svg version="1.1" xmlns="http://www.w3.org/2000/svg" xmlns:xlink="http://www.w3.org/1999/xlink" x="0px" y="0px"
	 viewBox="0 0 80 80" enable-background="new 0 0 80 80" xml:space="preserve">
<g id="_x2D_Background2">
</g>
<g id="Gfx1">
	<g>
		<path d="M67.5,20.7h-55v-9.2h55V20.7z M36.5,13.9c-1.2,0-2.2,1-2.2,2.2c0,1.2,1,2.2,2.2,2.2c1.2,0,2.2-1,2.2-2.2
			C38.7,14.9,37.7,13.9,36.5,13.9z M43.5,13.9c-1.2,0-2.2,1-2.2,2.2c0,1.2,1,2.2,2.2,2.2c1.2,0,2.2-1,2.2-2.2
			C45.7,14.9,44.7,13.9,43.5,13.9z"/>
	</g>
	<path d="M12.5,22.7v38.2c0,4.2,3.4,7.6,7.6,7.6h39.8c4.2,0,7.6-3.4,7.6-7.6V22.7H12.5z M61.8,58.9c0,1.7-1.2,3.1-2.8,3.1H21
		c-1.5,0-2.8-1.4-2.8-3.1V30.4c0-1.7,1.2-3.1,2.8-3.1H59c1.5,0,2.8,1.4,2.8,3.1V58.9z"/>
	<path d="M62.6,53.3c0,1.8-1.4,3.2-3.2,3.2c-1.8,0-3.2-1.4-3.2-3.2c0,1.8-1.4,3.2-3.2,3.2c-1.8,0-3.2-1.4-3.2-3.2
		c0,1.8-1.4,3.2-3.2,3.2c-1.8,0-3.2-1.4-3.2-3.2c0,1.8-1.4,3.2-3.2,3.2c-1.8,0-3.2-1.4-3.2-3.2c0,1.8-1.4,3.2-3.2,3.2
		c-1.8,0-3.2-1.4-3.2-3.2c0,1.8-1.4,3.2-3.2,3.2c-1.8,0-3.2-1.4-3.2-3.2c0,1.8-1.4,3.2-3.2,3.2c-1.8,0-3.2-1.4-3.2-3.2v9.5h45.2
		V53.3z"/>
	<path d="M38.1,40c0,0.8-0.6,1.4-1.4,1.4c-0.8,0-1.4-0.6-1.4-1.4c0-0.8,1.4-3.9,1.4-3.9S38.1,39.2,38.1,40z"/>
	<path d="M44.8,40c0,0.8-0.6,1.4-1.4,1.4c-0.8,0-1.4-0.6-1.4-1.4c0-0.8,1.4-3.9,1.4-3.9S44.8,39.2,44.8,40z"/>
	<path d="M41.4,34.9c0,0.8-0.6,1.4-1.4,1.4c-0.8,0-1.4-0.6-1.4-1.4c0-0.8,1.4-3.9,1.4-3.9S41.4,34.1,41.4,34.9z"/>
	<polygon points="47.4,49 32.6,49 30.1,46 49.9,46 	"/>
	<path d="M52.3,46.5H27.7c-0.4,0-0.8-0.4-0.8-0.8s0.4-0.8,0.8-0.8h24.6c0.4,0,0.8,0.4,0.8,0.8S52.7,46.5,52.3,46.5z"/>
</g>
<g id="GfxWhite">
	<path fill="#FFFFFF" d="M59,62.8H21c-2,0-3.6-1.8-3.6-3.9V30.4c0-2.2,1.6-3.9,3.6-3.9H59c2,0,3.6,1.8,3.6,3.9v28.4
		C62.6,61,61,62.8,59,62.8z M21,28.1c-1.1,0-2,1.1-2,2.4v28.4c0,1.3,0.9,2.4,2,2.4H59c1.1,0,2-1.1,2-2.4V30.4c0-1.3-0.9-2.4-2-2.4
		H21z"/>
</g>
<g id="_x2D_GuideText">
	<rect x="-38.5" y="80" fill="none" width="157" height="37.5"/>
	<text transform="matrix(1 0 0 1 -2.3716 114.0918)" fill="#999999" font-family="'Klavika-Light'" font-size="18px">Dishwasher</text>
</g>
<g id="_x2D_GuideLines" display="none">
</g>
<g id="nyt_x5F_exporter_x5F_info" display="none">
</g>
</svg>
