<?xml version="1.0" encoding="utf-8"?>
<!-- Generator: Adobe Illustrator 19.1.0, SVG Export Plug-In . SVG Version: 6.00 Build 0)  -->
<!DOCTYPE svg PUBLIC "-//W3C//DTD SVG 1.1//EN" "http://www.w3.org/Graphics/SVG/1.1/DTD/svg11.dtd">
<svg version="1.1" xmlns="http://www.w3.org/2000/svg" xmlns:xlink="http://www.w3.org/1999/xlink" x="0px" y="0px"
	 viewBox="0 0 80 80" enable-background="new 0 0 80 80" xml:space="preserve">
<g id="_x2D_Background2">
</g>
<g id="Gfx1">
	<path d="M25.2,18.1v-3.6c0-1.2,1-2.3,2.3-2.3h25c1.2,0,2.3,1,2.3,2.3v3.6H25.2z"/>
	<path d="M54.8,19.1v45.8c0,1.2-1,2.3-2.3,2.3h-25c-1.2,0-2.3-1-2.3-2.3V19.1H54.8z"/>
</g>
<g id="GfxWhite">
	<path fill="#FFFFFF" d="M51.7,43.5v-7c0-0.4,0.3-0.7,0.7-0.7c0.4,0,0.7,0.3,0.7,0.7v7c0,0.4-0.3,0.7-0.7,0.7
		C52,44.2,51.7,43.9,51.7,43.5z"/>
	<path fill="#FFFFFF" d="M39.8,16.2v-2.5c0-0.1,0.1-0.2,0.2-0.2c0.1,0,0.2,0.1,0.2,0.2v2.5c0,0.1-0.1,0.2-0.2,0.2
		C39.9,16.4,39.8,16.3,39.8,16.2z"/>
	<path fill="#FFFFFF" d="M41.6,16.2v-2.5c0-0.1,0.1-0.2,0.2-0.2c0.1,0,0.2,0.1,0.2,0.2v2.5c0,0.1-0.1,0.2-0.2,0.2
		C41.7,16.4,41.6,16.3,41.6,16.2z"/>
	<path fill="#FFFFFF" d="M43.5,16.2v-2.5c0-0.1,0.1-0.2,0.2-0.2c0.1,0,0.2,0.1,0.2,0.2v2.5c0,0.1-0.1,0.2-0.2,0.2
		C43.6,16.4,43.5,16.3,43.5,16.2z"/>
	<path fill="#FFFFFF" d="M37.9,16.2v-2.5c0-0.1,0.1-0.2,0.2-0.2c0.1,0,0.2,0.1,0.2,0.2v2.5c0,0.1-0.1,0.2-0.2,0.2
		C38,16.4,37.9,16.3,37.9,16.2z"/>
	<path fill="#FFFFFF" d="M36.1,16.2v-2.5c0-0.1,0.1-0.2,0.2-0.2c0.1,0,0.2,0.1,0.2,0.2v2.5c0,0.1-0.1,0.2-0.2,0.2
		C36.2,16.4,36.1,16.3,36.1,16.2z"/>
	<path fill="#FFFFFF" d="M46.6,43.7l-3-3h-1.8c0,1-0.8,1.8-1.8,1.8s-1.8-0.8-1.8-1.8h-1.8l-3,3l1.6,1.6l1.4-1.4v6.5h7.2v-6.5
		l1.4,1.4L46.6,43.7z"/>
	<g>
		<path fill="#FFFFFF" d="M43.3,38.6c-0.8-0.8-1.7-3.1,0-4.8c1.4-1.4,0.5-3.3,0-3.7l0.5-0.5c0.8,0.8,1.7,3.1,0,4.8
			c-1.4,1.4-0.5,3.3,0,3.7L43.3,38.6z"/>
		<path fill="#FFFFFF" d="M39.7,38.6c-0.8-0.8-1.7-3.1,0-4.8c1.4-1.4,0.5-3.3,0-3.7l0.5-0.5c0.8,0.8,1.7,3.1,0,4.8
			c-1.4,1.4-0.5,3.3,0,3.7L39.7,38.6z"/>
		<path fill="#FFFFFF" d="M36.2,38.6c-0.8-0.8-1.7-3.1,0-4.8c1.4-1.4,0.5-3.3,0-3.7l0.5-0.5c0.8,0.8,1.7,3.1,0,4.8
			c-1.4,1.4-0.5,3.3,0,3.7L36.2,38.6z"/>
	</g>
</g>
<g id="_x2D_GuideText">
	<rect x="-38.5" y="80" fill="none" width="157" height="37.5"/>
	<text transform="matrix(1 0 0 1 -10.3989 114.0918)" fill="#999999" font-family="'Klavika-Light'" font-size="18px">Dryingcabinet</text>
</g>
<g id="_x2D_GuideLines" display="none">
</g>
<g id="nyt_x5F_exporter_x5F_info" display="none">
</g>
</svg>
