<?xml version="1.0" encoding="utf-8"?>
<!-- Generator: Adobe Illustrator 19.1.0, SVG Export Plug-In . SVG Version: 6.00 Build 0)  -->
<!DOCTYPE svg PUBLIC "-//W3C//DTD SVG 1.1//EN" "http://www.w3.org/Graphics/SVG/1.1/DTD/svg11.dtd">
<svg version="1.1" xmlns="http://www.w3.org/2000/svg" xmlns:xlink="http://www.w3.org/1999/xlink" x="0px" y="0px"
	 viewBox="0 0 80 80" enable-background="new 0 0 80 80" xml:space="preserve">
<g id="_x2D_Background2">
</g>
<g id="Gfx1">
	<path d="M40.2,12.8c0.4,0.4,0.4,1.1,0,1.5l-9,9c-0.4,0.4-1.1,0.4-1.5,0l0,0c-0.4-0.4-0.4-1.1,0-1.5l9-9
		C39.1,12.4,39.8,12.4,40.2,12.8L40.2,12.8z"/>
	<path d="M47.3,19.9c0.4,0.4,0.4,1.1,0,1.5l-9,9c-0.4,0.4-1.1,0.4-1.5,0l0,0c-0.4-0.4-0.4-1.1,0-1.5l9-9
		C46.2,19.5,46.8,19.5,47.3,19.9L47.3,19.9z"/>
	<polygon points="27,20.6 26,29.5 30.6,34.1 39.5,33.1 42.7,29.8 30.2,17.4 	"/>
	<polygon points="24.7,38 30.6,34.1 26,29.5 22.1,35.4 	"/>
	<path d="M38.6,65.6c0,1.1-0.9,1.9-1.9,1.9h-1.2c-1.1,0-1.9-0.9-1.9-1.9v-4.8c0-1.1,0.9-1.9,1.9-1.9h1.2c1.1,0,1.9,0.9,1.9,1.9V65.6
		z"/>
	<path d="M59.8,65.6c0,1.1-0.9,1.9-1.9,1.9h-1.2c-1.1,0-1.9-0.9-1.9-1.9v-4.8c0-1.1,0.9-1.9,1.9-1.9h1.2c1.1,0,1.9,0.9,1.9,1.9V65.6
		z"/>
	<path d="M59.7,51h-2.5c0-8.9-3.3-10.5-10.3-10.5h-0.3c-7,0-10.3,1.6-10.3,10.5h-2.5c0-10.8,4.9-13,12.8-13h0.3
		C54.8,38,59.7,40.2,59.7,51z"/>
	<path d="M61.4,61.5H31.9v-7.8c0-4.2,6.6-5.2,14.8-5.2c8.1,0,14.8,1,14.8,5.2V61.5z M38.3,54.3c-1,0-1.9,0.8-1.9,1.9
		c0,1,0.8,1.9,1.9,1.9c1,0,1.9-0.8,1.9-1.9C40.2,55.2,39.3,54.3,38.3,54.3z M55,54.3c-1,0-1.9,0.8-1.9,1.9c0,1,0.8,1.9,1.9,1.9
		c1,0,1.9-0.8,1.9-1.9C56.9,55.2,56.1,54.3,55,54.3z"/>
	<path d="M31.9,58.5c-3.6,0-6.9-1.4-9.4-3.9c-5.2-5.2-5.2-13.6,0-18.8l1.8,1.8c-4.2,4.2-4.2,11.1,0,15.3c2,2,4.8,3.2,7.6,3.2V58.5z"
		/>
	<line x1="23.4" y1="36.7" x2="24.9" y2="35.2"/>
</g>
<g id="GfxWhite">
	<path fill="#FFFFFF" d="M38.3,59.1c-1.6,0-2.9-1.3-2.9-2.9c0-1.6,1.3-2.9,2.9-2.9s2.9,1.3,2.9,2.9C41.2,57.8,39.9,59.1,38.3,59.1z
		 M38.3,54.5c-0.9,0-1.7,0.8-1.7,1.7s0.8,1.7,1.7,1.7s1.7-0.8,1.7-1.7S39.2,54.5,38.3,54.5z"/>
	<path fill="#FFFFFF" d="M55,59.1c-1.6,0-2.9-1.3-2.9-2.9c0-1.6,1.3-2.9,2.9-2.9s2.9,1.3,2.9,2.9C57.9,57.8,56.6,59.1,55,59.1z
		 M55,54.5c-0.9,0-1.7,0.8-1.7,1.7s0.8,1.7,1.7,1.7s1.7-0.8,1.7-1.7S55.9,54.5,55,54.5z"/>
</g>
<g id="_x2D_GuideText">
	<rect x="-38.5" y="80" fill="none" width="157" height="37.5"/>
	<text transform="matrix(1 0 0 1 19.9575 114.0918)" fill="#999999" font-family="'Klavika-Light'" font-size="18px">ELcar</text>
</g>
<g id="_x2D_GuideLines" display="none">
</g>
<g id="nyt_x5F_exporter_x5F_info" display="none">
</g>
</svg>
