<?xml version="1.0" encoding="utf-8"?>
<!-- Generator: Adobe Illustrator 19.1.0, SVG Export Plug-In . SVG Version: 6.00 Build 0)  -->
<!DOCTYPE svg PUBLIC "-//W3C//DTD SVG 1.1//EN" "http://www.w3.org/Graphics/SVG/1.1/DTD/svg11.dtd">
<svg version="1.1" xmlns="http://www.w3.org/2000/svg" xmlns:xlink="http://www.w3.org/1999/xlink" x="0px" y="0px"
	 viewBox="0 0 80 80" enable-background="new 0 0 80 80" xml:space="preserve">
<g id="_x2D_Background2">
</g>
<g id="Gfx1">
	<path d="M17.1,12.8v39.4h45.9V12.8H17.1z M46.5,46.1h-13c-1.8,0-3.3-1.5-3.3-3.3c0-1.8,1.5-3.3,3.3-3.3h13c1.8,0,3.3,1.5,3.3,3.3
		C49.7,44.6,48.3,46.1,46.5,46.1z"/>
	<path d="M46.5,41.9h-13c-0.5,0-1,0.4-1,1c0,0.5,0.4,1,1,1h13c0.5,0,1-0.4,1-1C47.4,42.3,47,41.9,46.5,41.9z"/>
	<path d="M21.6,52.2v15.3h36.7V52.2H21.6z M42.6,58.9l-3.6,3l0.9-3h-1.2l-1.1-4h5.6l-2.1,4H42.6z"/>
</g>
<g id="GfxWhite">
	<rect x="21.6" y="18.8" fill="#FFFFFF" width="36.7" height="14.7"/>
	<g>
		<g>
			<path d="M46.4,29.3c0,0.1-0.1,0.2-0.2,0.2c-0.1,0-0.2-0.1-0.2-0.2v-2.8c0-0.1,0.1-0.2,0.2-0.2c0.1,0,0.2,0.1,0.2,0.2V29.3z"/>
			<path d="M46.4,25.7c0,0.1-0.1,0.2-0.2,0.2c-0.1,0-0.2-0.1-0.2-0.2v-2.8c0-0.1,0.1-0.2,0.2-0.2c0.1,0,0.2,0.1,0.2,0.2V25.7z"/>
			<path d="M49.4,29.9h-2.8c-0.1,0-0.2-0.1-0.2-0.2s0.1-0.2,0.2-0.2h2.8c0.1,0,0.2,0.1,0.2,0.2S49.5,29.9,49.4,29.9z"/>
			<path d="M49.4,22.7h-2.8c-0.1,0-0.2-0.1-0.2-0.2c0-0.1,0.1-0.2,0.2-0.2h2.8c0.1,0,0.2,0.1,0.2,0.2C49.6,22.6,49.5,22.7,49.4,22.7
				z"/>
			<path d="M50,29.3c0,0.1-0.1,0.2-0.2,0.2c-0.1,0-0.2-0.1-0.2-0.2v-2.8c0-0.1,0.1-0.2,0.2-0.2c0.1,0,0.2,0.1,0.2,0.2V29.3z"/>
			<path d="M50,25.7c0,0.1-0.1,0.2-0.2,0.2c-0.1,0-0.2-0.1-0.2-0.2v-2.8c0-0.1,0.1-0.2,0.2-0.2c0.1,0,0.2,0.1,0.2,0.2V25.7z"/>
		</g>
		<g>
			<path d="M30.4,29.3c0,0.1-0.1,0.2-0.2,0.2c-0.1,0-0.2-0.1-0.2-0.2v-2.8c0-0.1,0.1-0.2,0.2-0.2c0.1,0,0.2,0.1,0.2,0.2V29.3z"/>
			<path d="M30.4,25.7c0,0.1-0.1,0.2-0.2,0.2c-0.1,0-0.2-0.1-0.2-0.2v-2.8c0-0.1,0.1-0.2,0.2-0.2c0.1,0,0.2,0.1,0.2,0.2V25.7z"/>
			<path d="M33.4,29.9h-2.8c-0.1,0-0.2-0.1-0.2-0.2s0.1-0.2,0.2-0.2h2.8c0.1,0,0.2,0.1,0.2,0.2S33.5,29.9,33.4,29.9z"/>
			<path d="M33.4,26.3h-2.8c-0.1,0-0.2-0.1-0.2-0.2c0-0.1,0.1-0.2,0.2-0.2h2.8c0.1,0,0.2,0.1,0.2,0.2C33.5,26.2,33.5,26.3,33.4,26.3
				z"/>
			<path d="M33.4,22.7h-2.8c-0.1,0-0.2-0.1-0.2-0.2c0-0.1,0.1-0.2,0.2-0.2h2.8c0.1,0,0.2,0.1,0.2,0.2C33.5,22.6,33.5,22.7,33.4,22.7
				z"/>
			<path d="M33.9,29.3c0,0.1-0.1,0.2-0.2,0.2c-0.1,0-0.2-0.1-0.2-0.2v-2.8c0-0.1,0.1-0.2,0.2-0.2c0.1,0,0.2,0.1,0.2,0.2V29.3z"/>
			<path d="M33.9,25.7c0,0.1-0.1,0.2-0.2,0.2c-0.1,0-0.2-0.1-0.2-0.2v-2.8c0-0.1,0.1-0.2,0.2-0.2c0.1,0,0.2,0.1,0.2,0.2V25.7z"/>
		</g>
		<g>
			<path d="M35.7,29.3c0,0.1-0.1,0.2-0.2,0.2c-0.1,0-0.2-0.1-0.2-0.2v-2.8c0-0.1,0.1-0.2,0.2-0.2c0.1,0,0.2,0.1,0.2,0.2V29.3z"/>
			<path d="M35.7,25.7c0,0.1-0.1,0.2-0.2,0.2c-0.1,0-0.2-0.1-0.2-0.2v-2.8c0-0.1,0.1-0.2,0.2-0.2c0.1,0,0.2,0.1,0.2,0.2V25.7z"/>
			<path d="M38.7,29.9h-2.8c-0.1,0-0.2-0.1-0.2-0.2s0.1-0.2,0.2-0.2h2.8c0.1,0,0.2,0.1,0.2,0.2S38.8,29.9,38.7,29.9z"/>
			<path d="M38.7,22.7h-2.8c-0.1,0-0.2-0.1-0.2-0.2c0-0.1,0.1-0.2,0.2-0.2h2.8c0.1,0,0.2,0.1,0.2,0.2C38.9,22.6,38.8,22.7,38.7,22.7
				z"/>
			<path d="M39.3,29.3c0,0.1-0.1,0.2-0.2,0.2c-0.1,0-0.2-0.1-0.2-0.2v-2.8c0-0.1,0.1-0.2,0.2-0.2c0.1,0,0.2,0.1,0.2,0.2V29.3z"/>
			<path d="M39.3,25.7c0,0.1-0.1,0.2-0.2,0.2c-0.1,0-0.2-0.1-0.2-0.2v-2.8c0-0.1,0.1-0.2,0.2-0.2c0.1,0,0.2,0.1,0.2,0.2V25.7z"/>
		</g>
		<g>
			<path d="M41.1,29.3c0,0.1-0.1,0.2-0.2,0.2c-0.1,0-0.2-0.1-0.2-0.2v-2.8c0-0.1,0.1-0.2,0.2-0.2c0.1,0,0.2,0.1,0.2,0.2V29.3z"/>
			<path d="M41.1,25.7c0,0.1-0.1,0.2-0.2,0.2c-0.1,0-0.2-0.1-0.2-0.2v-2.8c0-0.1,0.1-0.2,0.2-0.2c0.1,0,0.2,0.1,0.2,0.2V25.7z"/>
			<path d="M44.1,29.9h-2.8c-0.1,0-0.2-0.1-0.2-0.2s0.1-0.2,0.2-0.2h2.8c0.1,0,0.2,0.1,0.2,0.2S44.2,29.9,44.1,29.9z"/>
			<path d="M44.1,22.7h-2.8c-0.1,0-0.2-0.1-0.2-0.2c0-0.1,0.1-0.2,0.2-0.2h2.8c0.1,0,0.2,0.1,0.2,0.2C44.3,22.6,44.2,22.7,44.1,22.7
				z"/>
			<path d="M44.7,29.3c0,0.1-0.1,0.2-0.2,0.2c-0.1,0-0.2-0.1-0.2-0.2v-2.8c0-0.1,0.1-0.2,0.2-0.2c0.1,0,0.2,0.1,0.2,0.2V29.3z"/>
			<path d="M44.7,25.7c0,0.1-0.1,0.2-0.2,0.2c-0.1,0-0.2-0.1-0.2-0.2v-2.8c0-0.1,0.1-0.2,0.2-0.2c0.1,0,0.2,0.1,0.2,0.2V25.7z"/>
		</g>
	</g>
</g>
<g id="_x2D_GuideText">
	<rect x="-38.5" y="80" fill="none" width="157" height="37.5"/>
	<text transform="matrix(1 0 0 1 -8.5093 114.0918)" fill="#999999" font-family="'Klavika-Light'" font-size="18px">ElectricMeter</text>
</g>
<g id="_x2D_GuideLines" display="none">
</g>
<g id="nyt_x5F_exporter_x5F_info" display="none">
</g>
</svg>
