<?xml version="1.0" encoding="utf-8"?>
<!-- Generator: Adobe Illustrator 19.1.0, SVG Export Plug-In . SVG Version: 6.00 Build 0)  -->
<!DOCTYPE svg PUBLIC "-//W3C//DTD SVG 1.1//EN" "http://www.w3.org/Graphics/SVG/1.1/DTD/svg11.dtd">
<svg version="1.1" xmlns="http://www.w3.org/2000/svg" xmlns:xlink="http://www.w3.org/1999/xlink" x="0px" y="0px"
	 viewBox="0 0 80 80" enable-background="new 0 0 80 80" xml:space="preserve">
<g id="_x2D_Background2">
</g>
<g id="Gfx1">
	<path d="M41.5,33.6V21c1-0.5,1.7-1.6,1.7-2.8v-3.2c0-1.7-1.4-3.2-3.2-3.2c-1.4,0-2.6,1-3,2.3h-2.8v1h2.7v1h-2.7v1h2.7v1h-2.7v1H37
		c0.2,0.8,0.8,1.5,1.5,1.9v12.5c-2.7,0.7-4.8,3.1-4.8,6.1v15.8c0,3.4,2.8,6.3,6.2,6.3h0c3.4,0,6.3-2.8,6.3-6.3V39.6
		C46.3,36.7,44.2,34.2,41.5,33.6z"/>
	<path d="M52.2,66c0-3.8-1.8-7.3-4.6-9.5c-0.5,3.8-3.7,6.7-7.6,6.7c-3.9,0-7.1-2.9-7.6-6.7c-2.8,2.2-4.6,5.7-4.6,9.5h0
		c0,1.1,0.9,2,2,2h20.3C51.3,68.1,52.2,67.2,52.2,66L52.2,66z"/>
</g>
<g id="GfxWhite">
	<path fill="#FFFFFF" d="M40,43.5c-1.7,0-3.2-1.4-3.2-3.2s1.4-3.2,3.2-3.2s3.2,1.4,3.2,3.2S41.7,43.5,40,43.5z M40,38.1
		c-1.2,0-2.2,1-2.2,2.2c0,1.2,1,2.2,2.2,2.2s2.2-1,2.2-2.2C42.2,39.1,41.2,38.1,40,38.1z"/>
</g>
<g id="_x2D_GuideText">
	<path fill="none" d="M116.5,117.5H-36.5c-1.1,0-2-0.9-2-2V82c0-1.1,0.9-2,2-2h152.9c1.1,0,2,0.9,2,2v33.4
		C118.5,116.6,117.6,117.5,116.5,117.5z"/>
	<text transform="matrix(1 0 0 1 -11.6055 114.0918)" fill="#999999" font-family="'Klavika-Light'" font-size="18px">ELToothbrush</text>
</g>
<g id="_x2D_GuideLines" display="none">
</g>
<g id="nyt_x5F_exporter_x5F_info" display="none">
</g>
</svg>
