<?xml version="1.0" encoding="utf-8"?>
<!-- Generator: Adobe Illustrator 19.1.0, SVG Export Plug-In . SVG Version: 6.00 Build 0)  -->
<!DOCTYPE svg PUBLIC "-//W3C//DTD SVG 1.1//EN" "http://www.w3.org/Graphics/SVG/1.1/DTD/svg11.dtd">
<svg version="1.1" xmlns="http://www.w3.org/2000/svg" xmlns:xlink="http://www.w3.org/1999/xlink" x="0px" y="0px"
	 viewBox="0 0 80 80" enable-background="new 0 0 80 80" xml:space="preserve">
<g id="_x2D_Background2">
</g>
<g id="Gfx1">
	<path d="M43.8,63.7c0,2.1-1.7,3.8-3.8,3.8c-2.1,0-3.8-1.7-3.8-3.8"/>
	<rect x="32" y="54.4" width="16" height="1.3"/>
	<polygon points="45.3,63.7 34.7,63.7 33.2,54.4 46.8,54.4 	"/>
	<g>
		<line x1="26.2" y1="22.9" x2="40" y2="9"/>
		<path d="M26.2,24.9c-0.5,0-1-0.2-1.4-0.6c-0.8-0.8-0.8-2,0-2.8L38.6,7.6c0.8-0.8,2-0.8,2.8,0s0.8,2,0,2.8L27.6,24.3
			C27.2,24.7,26.7,24.9,26.2,24.9z"/>
	</g>
	<g>
		<line x1="26.2" y1="33" x2="48.8" y2="10.4"/>
		<path d="M26.2,35c-0.5,0-1-0.2-1.4-0.6c-0.8-0.8-0.8-2,0-2.8L47.4,9c0.8-0.8,2-0.8,2.8,0s0.8,2,0,2.8L27.6,34.4
			C27.2,34.8,26.7,35,26.2,35z"/>
	</g>
	<path d="M36.7,59.7c-1.1,0-2-0.9-2-2v-5.2l-3.4-3.4c-0.8-0.8-0.8-2,0-2.8l22.3-22.3c0.8-0.8,2-0.8,2.8,0c0.8,0.8,0.8,2,0,2.8
		L35.6,47.8l2.5,2.5c0.4,0.4,0.6,0.9,0.6,1.4v6C38.7,58.8,37.8,59.7,36.7,59.7z"/>
	<g>
		<line x1="53.9" y1="15.9" x2="28.7" y2="41.2"/>
		<path d="M28.7,43.2c-0.5,0-1-0.2-1.4-0.6c-0.8-0.8-0.8-2,0-2.8l25.2-25.2c0.8-0.8,2-0.8,2.8,0s0.8,2,0,2.8L30.1,42.6
			C29.7,43,29.2,43.2,28.7,43.2z"/>
	</g>
	<path d="M43.3,58.9c-1.1,0-2-0.9-2-2v-9.6c0-0.5,0.2-1,0.6-1.4l9.9-10c0.8-0.8,2-0.8,2.8,0s0.8,2,0,2.8l-9.4,9.4v8.8
		C45.3,58,44.5,58.9,43.3,58.9z"/>
</g>
<g id="GfxWhite">
</g>
<g id="_x2D_GuideText">
	<rect x="-38.5" y="80" fill="none" width="157" height="37.5"/>
	<text transform="matrix(1 0 0 1 -2.7945 114.0919)" fill="#999999" font-family="'Klavika-Light'" font-size="18px">Fluorescent</text>
</g>
<g id="_x2D_GuideLines" display="none">
</g>
<g id="nyt_x5F_exporter_x5F_info" display="none">
</g>
</svg>
