<?xml version="1.0" encoding="utf-8"?>
<!-- Generator: Adobe Illustrator 19.1.0, SVG Export Plug-In . SVG Version: 6.00 Build 0)  -->
<!DOCTYPE svg PUBLIC "-//W3C//DTD SVG 1.1//EN" "http://www.w3.org/Graphics/SVG/1.1/DTD/svg11.dtd">
<svg version="1.1" xmlns="http://www.w3.org/2000/svg" xmlns:xlink="http://www.w3.org/1999/xlink" x="0px" y="0px"
	 viewBox="0 0 80 80" enable-background="new 0 0 80 80" xml:space="preserve">
<g id="_x2D_Background2">
</g>
<g id="Gfx1">
	<path d="M67.5,26.9v30.2c0,2.1-1.7,3.8-3.8,3.8H16.3c-2.1,0-3.8-1.7-3.8-3.8V26.9H67.5z"/>
	<rect x="12.5" y="19.2" width="55" height="5.9"/>
</g>
<g id="GfxWhite">
	<g>
		<g>
			<rect x="38.5" y="34.5" fill="#FFFFFF" width="0.6" height="15.9"/>
			<path fill="#FFFFFF" d="M38.8,37.7c0,0-0.1,0-0.1,0l-2.9-1.5l0.3-0.5l2.7,1.5l2.7-1.5l0.3,0.5l-2.9,1.5
				C38.9,37.7,38.8,37.7,38.8,37.7z"/>
			<path fill="#FFFFFF" d="M36,49.3l-0.3-0.5l2.9-1.5c0.1,0,0.2,0,0.3,0l2.9,1.5l-0.3,0.5l-2.7-1.5L36,49.3z"/>
		</g>
		<g>
			<rect x="30.8" y="42.1" transform="matrix(0.866 0.5 -0.5 0.866 26.4202 -13.6967)" fill="#FFFFFF" width="15.9" height="0.6"/>
			<path fill="#FFFFFF" d="M43.3,48.2l-0.6,0l0.1-3.3c0-0.1,0.1-0.2,0.1-0.2l2.8-1.7l0.3,0.5l-2.6,1.6L43.3,48.2z"/>
			<path fill="#FFFFFF" d="M31.8,41.9l-0.3-0.5l2.6-1.6l0.1-3.1l0.6,0l-0.1,3.3c0,0.1-0.1,0.2-0.1,0.2L31.8,41.9z"/>
		</g>
		<g>
			
				<rect x="38.5" y="34.5" transform="matrix(0.5002 0.8659 -0.8659 0.5002 56.1305 -12.3528)" fill="#FFFFFF" width="0.6" height="15.9"/>
			<path fill="#FFFFFF" d="M34.2,48.2l-0.1-3.1l-2.6-1.6l0.3-0.5l2.8,1.7c0.1,0.1,0.1,0.1,0.1,0.2l0.1,3.3L34.2,48.2z"/>
			<path fill="#FFFFFF" d="M45.8,41.9L43,40.2c-0.1-0.1-0.1-0.1-0.1-0.2l-0.1-3.3l0.6,0l0.1,3.1l2.6,1.6L45.8,41.9z"/>
		</g>
	</g>
	<path fill="#FFFFFF" d="M63.8,22.8H53.7c-0.4,0-0.7-0.3-0.7-0.7c0-0.4,0.3-0.7,0.7-0.7h10.1c0.4,0,0.7,0.3,0.7,0.7
		C64.5,22.5,64.2,22.8,63.8,22.8z"/>
</g>
<g id="_x2D_GuideText">
	<rect x="-38.5" y="80" fill="none" width="157" height="37.5"/>
	<text transform="matrix(1 0 0 1 12.9194 114.0918)" fill="#999999" font-family="'Klavika-Light'" font-size="18px">Freezer</text>
</g>
<g id="_x2D_GuideLines" display="none">
</g>
<g id="nyt_x5F_exporter_x5F_info" display="none">
</g>
</svg>
