<?xml version="1.0" encoding="utf-8"?>
<!-- Generator: Adobe Illustrator 19.1.0, SVG Export Plug-In . SVG Version: 6.00 Build 0)  -->
<!DOCTYPE svg PUBLIC "-//W3C//DTD SVG 1.1//EN" "http://www.w3.org/Graphics/SVG/1.1/DTD/svg11.dtd">
<svg version="1.1" xmlns="http://www.w3.org/2000/svg" xmlns:xlink="http://www.w3.org/1999/xlink" x="0px" y="0px"
	 viewBox="0 0 80 80" enable-background="new 0 0 80 80" xml:space="preserve">
<g id="_x2D_Background2">
</g>
<g id="Gfx1">
	<path d="M60.1,55.2c1.9,0,3.4-1.5,3.4-3.4v-1.9H16.7l-4.2,5.4H60.1z"/>
	<path d="M64.4,24.8c0,0-21,1-29.6,5.7c-7.4,4.1-12.9,10.3-17.2,17.6h45.9c0-3.9,3.9-4.6,3.9-4.6L64.4,24.8z M55.2,42H34.1
		c-1.7,0-2.8-0.6-2.8-1.9c0-2.5,3.5-5.9,11-7.7c13.2-3.1,16.1,1.4,16.1,7.8C58.4,41.4,57.4,42,55.2,42z"/>
	<path d="M49.1,41.1L49.1,41.1c0-0.9-0.8-1.7-1.7-1.7h-5.1c-0.9,0-1.7,0.8-1.7,1.7l0,0H49.1z"/>
</g>
<g id="GfxWhite">
</g>
<g id="_x2D_GuideText">
	<rect x="-38.5" y="80.5" fill="none" width="157" height="37"/>
	<text transform="matrix(1 0 0 1 25.7803 114.5693)" fill="#999999" font-family="'Klavika-Light'" font-size="18px">Iron</text>
</g>
<g id="_x2D_GuideLines" display="none">
</g>
<g id="nyt_x5F_exporter_x5F_info" display="none">
</g>
</svg>
