<?xml version="1.0" encoding="utf-8"?>
<!-- Generator: Adobe Illustrator 19.1.0, SVG Export Plug-In . SVG Version: 6.00 Build 0)  -->
<!DOCTYPE svg PUBLIC "-//W3C//DTD SVG 1.1//EN" "http://www.w3.org/Graphics/SVG/1.1/DTD/svg11.dtd">
<svg version="1.1" xmlns="http://www.w3.org/2000/svg" xmlns:xlink="http://www.w3.org/1999/xlink" x="0px" y="0px"
	 viewBox="0 0 80 80" enable-background="new 0 0 80 80" xml:space="preserve">
<g id="_x2D_Background2">
</g>
<g id="Gfx1">
	<g>
		<path d="M64.9,52.8H15.1V25.3c0-1.9,1.5-3.4,3.4-3.4h43c1.9,0,3.4,1.5,3.4,3.4V52.8z"/>
	</g>
	<path d="M44.5,54.4c0,0.9-0.7,1.6-1.6,1.6h-5.7c-0.9,0-1.6-0.7-1.6-1.6H10.8v0c0,2.2,1.8,4,4,4h50.3c2.2,0,4-1.8,4-4v0H44.5z"/>
</g>
<g id="GfxWhite">
	<g>
		<rect x="17.4" y="24.2" fill="#FFFFFF" width="45.3" height="26.1"/>
	</g>
</g>
<g id="_x2D_GuideText">
	<rect x="-38.5" y="79.4" fill="none" width="157" height="37.5"/>
	<text transform="matrix(1 0 0 1 14.171 113.5217)" fill="#999999" font-family="'Klavika-Light'" font-size="18px">Laptop</text>
</g>
<g id="_x2D_GuideLines" display="none">
</g>
<g id="nyt_x5F_exporter_x5F_info" display="none">
</g>
</svg>
