<?xml version="1.0" encoding="utf-8"?>
<!-- Generator: Adobe Illustrator 19.1.0, SVG Export Plug-In . SVG Version: 6.00 Build 0)  -->
<!DOCTYPE svg PUBLIC "-//W3C//DTD SVG 1.1//EN" "http://www.w3.org/Graphics/SVG/1.1/DTD/svg11.dtd">
<svg version="1.1" xmlns="http://www.w3.org/2000/svg" xmlns:xlink="http://www.w3.org/1999/xlink" x="0px" y="0px"
	 viewBox="0 0 80 80" enable-background="new 0 0 80 80" xml:space="preserve">
<g id="_x2D_Background2">
</g>
<g id="Gfx1">
	<rect x="7.2" y="20.1" width="65.5" height="39.9"/>
</g>
<g id="GfxWhite">
	<g>
		<g>
			<polygon fill="#FFFFFF" points="42.9,49 26,49 23.1,45.6 45.8,45.6 			"/>
			<path fill="#FFFFFF" d="M48.6,46.1H20.3c-0.5,0-0.9-0.4-0.9-0.9c0-0.5,0.4-0.9,0.9-0.9h28.3c0.5,0,0.9,0.4,0.9,0.9
				C49.5,45.7,49.1,46.1,48.6,46.1z"/>
		</g>
		<path fill="#FFFFFF" d="M65,53h-7.9V27H65c1.9,0,3.5,1.6,3.5,3.5v18.9C68.5,51.4,67,53,65,53z M58.1,52.1H65
			c1.4,0,2.6-1.2,2.6-2.6V30.5c0-1.4-1.2-2.6-2.6-2.6h-6.9V52.1z"/>
		<g>
			<g>
				<circle fill="#FFFFFF" cx="62.8" cy="35.7" r="2.3"/>
			</g>
			<g>
				<circle fill="#FFFFFF" cx="62.8" cy="44.3" r="2.3"/>
			</g>
		</g>
		<path fill="#FFFFFF" d="M65,53H15c-1.9,0-3.5-1.6-3.5-3.5V30.5c0-1.9,1.6-3.5,3.5-3.5h50c1.9,0,3.5,1.6,3.5,3.5v18.9
			C68.5,51.4,67,53,65,53z M15,27.9c-1.4,0-2.6,1.2-2.6,2.6v18.9c0,1.4,1.2,2.6,2.6,2.6h50c1.4,0,2.6-1.2,2.6-2.6V30.5
			c0-1.4-1.2-2.6-2.6-2.6H15z"/>
		<path fill="#FFFFFF" d="M38.4,41.5c-0.9-0.9-1.8-3.2,0-5c1.5-1.5,0.5-3.4,0-3.9l0.5-0.5c0.9,0.9,1.8,3.2,0,5
			c-1.5,1.5-0.5,3.4,0,3.9L38.4,41.5z"/>
		<path fill="#FFFFFF" d="M34.8,41.5c-0.9-0.9-1.8-3.2,0-5c1.5-1.5,0.5-3.4,0-3.9l0.5-0.5c0.9,0.9,1.8,3.2,0,5
			c-1.5,1.5-0.5,3.4,0,3.9L34.8,41.5z"/>
		<path fill="#FFFFFF" d="M31.1,41.5c-0.9-0.9-1.8-3.2,0-5c1.5-1.5,0.5-3.4,0-3.9l0.5-0.5c0.9,0.9,1.8,3.2,0,5
			c-1.5,1.5-0.5,3.4,0,3.9L31.1,41.5z"/>
	</g>
</g>
<g id="_x2D_GuideText">
	<rect x="-38.5" y="80" fill="none" width="157" height="37.5"/>
	<text transform="matrix(1 0 0 1 0.8687 114.0918)" fill="#999999" font-family="'Klavika-Light'" font-size="18px">Microwave</text>
</g>
<g id="_x2D_GuideLines" display="none">
</g>
<g id="nyt_x5F_exporter_x5F_info" display="none">
</g>
</svg>
