<?xml version="1.0" encoding="utf-8"?>
<!-- Generator: Adobe Illustrator 19.1.0, SVG Export Plug-In . SVG Version: 6.00 Build 0)  -->
<!DOCTYPE svg PUBLIC "-//W3C//DTD SVG 1.1//EN" "http://www.w3.org/Graphics/SVG/1.1/DTD/svg11.dtd">
<svg version="1.1" xmlns="http://www.w3.org/2000/svg" xmlns:xlink="http://www.w3.org/1999/xlink" x="0px" y="0px"
	 viewBox="0 0 80 80" enable-background="new 0 0 80 80" xml:space="preserve">
<g id="_x2D_Background2">
</g>
<g id="Gfx1">
	<path d="M29.4,53.7c-1.9,0-2.4-4.9-2.4-7.8c0-2.9,0.5-7.8,2.4-7.8s2.4,4.9,2.4,7.8C31.8,48.8,31.3,53.7,29.4,53.7z M29.4,39.1
		C29,39.2,28,41.4,28,45.9c0,4.5,1,6.7,1.4,6.8c0.4-0.1,1.4-2.3,1.4-6.8C30.7,41.4,29.7,39.2,29.4,39.1z"/>
	<path d="M29.4,53.7c-3.1,0-5.6-3.5-5.6-7.8s2.5-7.8,5.6-7.8s5.6,3.5,5.6,7.8S32.5,53.7,29.4,53.7z M29.4,39.1c-2.5,0-4.5,3-4.5,6.8
		c0,3.7,2,6.8,4.5,6.8s4.5-3,4.5-6.8C33.9,42.1,31.9,39.1,29.4,39.1z"/>
	<rect x="28.8" y="29.7" width="1.1" height="8.9"/>
	<path d="M47.2,29.7V43c0,9.8-8,17.8-17.8,17.8h-8.7c-2,0-3.6,1.6-3.6,3.6l0,0v3.1h45.7v-3.1v-0.5c0-1.7-1.4-3.1-3.1-3.1h0
		c-3,0-5.4-2.4-5.4-5.4V29.7"/>
	<path d="M54.3,12.5c4.7,0,8.6,3.8,8.6,8.6s-3.8,8.6-8.6,8.6H29.4c-4.7,0-8.6-3.8-8.6-8.6s3.8-8.6,8.6-8.6H54.3z"/>
</g>
<g id="GfxWhite">
	<path fill="#FFFFFF" d="M29.9,17.1v4h-1.1v-4c-2,0.3-3.5,2-3.5,4c0,2.3,1.8,4.1,4.1,4.1c2.3,0,4.1-1.8,4.1-4.1
		C33.4,19,31.9,17.3,29.9,17.1z"/>
</g>
<g id="_x2D_GuideText">
	<rect x="-38.5" y="80" fill="none" width="157" height="37.5"/>
	<text transform="matrix(1 0 0 1 19.7051 114.0916)" fill="#999999" font-family="'Klavika-Light'" font-size="18px">Mixer</text>
</g>
<g id="_x2D_GuideLines" display="none">
</g>
<g id="nyt_x5F_exporter_x5F_info" display="none">
</g>
</svg>
