<?xml version="1.0" encoding="utf-8"?>
<!-- Generator: Adobe Illustrator 19.1.0, SVG Export Plug-In . SVG Version: 6.00 Build 0)  -->
<!DOCTYPE svg PUBLIC "-//W3C//DTD SVG 1.1//EN" "http://www.w3.org/Graphics/SVG/1.1/DTD/svg11.dtd">
<svg version="1.1" xmlns="http://www.w3.org/2000/svg" xmlns:xlink="http://www.w3.org/1999/xlink" x="0px" y="0px"
	 viewBox="0 0 80 80" enable-background="new 0 0 80 80" xml:space="preserve">
<g id="_x2D_Background2">
</g>
<g id="Gfx1">
	<rect x="12.5" y="21" width="55" height="38.1"/>
</g>
<g id="GfxWhite">
	<path fill="#FFFFFF" d="M25.8,54c-0.3,0-0.6,0-0.9-0.1l0.1-0.8c0.5,0.1,1.1,0.1,1.6,0l0.1,0.8C26.4,53.9,26.1,54,25.8,54z
		 M23.2,53.5c-0.6-0.2-1.1-0.5-1.6-0.8l0.5-0.7c0.4,0.3,0.9,0.5,1.4,0.7L23.2,53.5z M28.4,53.5l-0.3-0.8c0.5-0.2,1-0.4,1.4-0.7
		l0.5,0.7C29.5,53,29,53.3,28.4,53.5z M20.2,51.5c-0.4-0.4-0.7-0.9-1-1.5l0.7-0.4c0.2,0.5,0.6,0.9,0.9,1.3L20.2,51.5z M31.3,51.5
		l-0.6-0.6c0.4-0.4,0.7-0.8,0.9-1.3l0.7,0.4C32.1,50.5,31.7,51,31.3,51.5z M18.6,48.3c-0.1-0.6-0.2-1.2-0.2-1.8l0.8,0
		c0,0.5,0.1,1.1,0.2,1.6L18.6,48.3z M33,48.3l-0.8-0.2c0.1-0.5,0.2-1,0.2-1.6l0.8,0v0C33.2,47.1,33.1,47.7,33,48.3z M19.4,45
		l-0.8-0.2c0.1-0.6,0.4-1.1,0.6-1.7l0.8,0.4C19.7,44,19.5,44.5,19.4,45z M32.2,44.9c-0.1-0.5-0.3-1-0.6-1.5l0.7-0.4
		c0.3,0.5,0.5,1.1,0.6,1.7L32.2,44.9z M20.8,42.2l-0.6-0.6c0.4-0.4,0.8-0.8,1.3-1.2l0.5,0.7C21.6,41.5,21.2,41.8,20.8,42.2z
		 M30.7,42.2c-0.4-0.4-0.8-0.7-1.2-1l0.5-0.7c0.5,0.3,0.9,0.7,1.3,1.2L30.7,42.2z M23.4,40.4l-0.3-0.8c0.6-0.2,1.1-0.4,1.7-0.4
		L25,40C24.4,40.1,23.9,40.2,23.4,40.4z M28.1,40.4c-0.5-0.2-1-0.3-1.5-0.4l0.1-0.8c0.6,0.1,1.2,0.2,1.7,0.4L28.1,40.4z"/>
	<path fill="#FFFFFF" d="M54.2,54c-0.3,0-0.6,0-0.9-0.1l0.1-0.8c0.5,0.1,1.1,0.1,1.6,0l0.1,0.8C54.8,53.9,54.5,54,54.2,54z
		 M51.6,53.5C51,53.3,50.5,53,50,52.7l0.5-0.7c0.4,0.3,0.9,0.5,1.4,0.7L51.6,53.5z M56.9,53.5l-0.3-0.8c0.5-0.2,1-0.4,1.4-0.7
		l0.5,0.7C57.9,53,57.4,53.3,56.9,53.5z M48.7,51.5c-0.4-0.4-0.7-0.9-1-1.5l0.7-0.4c0.2,0.5,0.6,0.9,0.9,1.3L48.7,51.5z M59.8,51.5
		l-0.6-0.6c0.4-0.4,0.7-0.8,0.9-1.3l0.7,0.4C60.5,50.5,60.2,51,59.8,51.5z M47,48.3c-0.1-0.6-0.2-1.2-0.2-1.8l0.8,0
		c0,0.5,0.1,1.1,0.2,1.6L47,48.3z M61.4,48.3l-0.8-0.2c0.1-0.5,0.2-1,0.2-1.6l0.8,0v0C61.6,47.1,61.6,47.7,61.4,48.3z M47.8,45
		L47,44.8c0.1-0.6,0.4-1.1,0.6-1.7l0.8,0.4C48.1,44,48,44.5,47.8,45z M60.6,44.9c-0.1-0.5-0.3-1-0.6-1.5l0.7-0.4
		c0.3,0.5,0.5,1.1,0.6,1.7L60.6,44.9z M49.3,42.2l-0.6-0.6c0.4-0.4,0.8-0.8,1.3-1.2l0.5,0.7C50,41.5,49.6,41.8,49.3,42.2z
		 M59.1,42.2c-0.4-0.4-0.8-0.7-1.2-1l0.5-0.7c0.5,0.3,0.9,0.7,1.3,1.2L59.1,42.2z M51.9,40.4l-0.3-0.8c0.6-0.2,1.1-0.4,1.7-0.4
		l0.1,0.8C52.9,40.1,52.4,40.2,51.9,40.4z M56.5,40.4c-0.5-0.2-1-0.3-1.5-0.4l0.1-0.8c0.6,0.1,1.2,0.2,1.7,0.4L56.5,40.4z"/>
	<path fill="#FFFFFF" d="M48.7,36.6c-0.6-0.1-1.1-0.2-1.7-0.5l0.3-0.8c0.5,0.2,1,0.4,1.5,0.4L48.7,36.6z M50.4,36.6l-0.1-0.8
		c0.5-0.1,1-0.2,1.5-0.4l0.4,0.8C51.6,36.4,51,36.5,50.4,36.6z M45.5,35.2c-0.4-0.4-0.8-0.8-1.2-1.3l0.7-0.5c0.3,0.4,0.6,0.8,1,1.1
		L45.5,35.2z M53.6,35.2L53,34.5c0.4-0.3,0.7-0.7,1-1.1l0.7,0.5C54.4,34.3,54,34.8,53.6,35.2z M43.6,32.3c-0.2-0.6-0.3-1.1-0.3-1.7
		l0.8,0c0,0.5,0.1,1,0.2,1.5L43.6,32.3z M55.5,32.3L54.7,32c0.1-0.5,0.2-1,0.2-1.5l0.6,0l0.3,0C55.7,31.1,55.6,31.7,55.5,32.3z
		 M44.4,29l-0.8-0.2c0.2-0.6,0.4-1.1,0.7-1.6l0.7,0.5C44.8,28.1,44.6,28.6,44.4,29z M54.6,29c-0.1-0.5-0.4-0.9-0.6-1.4l0.7-0.5
		c0.3,0.5,0.6,1,0.7,1.6L54.6,29z M46,26.5l-0.6-0.6c0.4-0.4,0.9-0.7,1.5-1l0.4,0.8C46.8,25.9,46.4,26.2,46,26.5z M53,26.5
		c-0.4-0.3-0.8-0.6-1.3-0.8l0.3-0.8c0.5,0.2,1,0.6,1.5,0.9L53,26.5z M48.7,25.3l-0.1-0.8c0.3,0,0.6-0.1,0.9-0.1c0.3,0,0.6,0,0.8,0.1
		l-0.1,0.8c-0.2,0-0.5,0-0.7,0C49.3,25.2,49,25.2,48.7,25.3z"/>
	<path fill="#FFFFFF" d="M29.6,36.6c-0.6-0.1-1.1-0.2-1.7-0.5l0.3-0.8c0.5,0.2,1,0.4,1.5,0.4L29.6,36.6z M31.4,36.6l-0.1-0.8
		c0.5-0.1,1-0.2,1.5-0.4l0.4,0.8C32.5,36.4,31.9,36.5,31.4,36.6z M26.4,35.2c-0.4-0.4-0.8-0.8-1.2-1.3l0.7-0.5
		c0.3,0.4,0.6,0.8,1,1.1L26.4,35.2z M34.5,35.2l-0.6-0.6c0.4-0.3,0.7-0.7,1-1.1l0.7,0.5C35.3,34.3,34.9,34.8,34.5,35.2z M24.5,32.3
		c-0.2-0.6-0.3-1.1-0.3-1.7l0.8,0c0,0.5,0.1,1,0.2,1.5L24.5,32.3z M36.4,32.3L35.6,32c0.1-0.5,0.2-1,0.2-1.5l0.6,0l0.3,0
		C36.6,31.1,36.5,31.7,36.4,32.3z M25.3,29l-0.8-0.2c0.2-0.6,0.4-1.1,0.7-1.6l0.7,0.5C25.7,28.1,25.5,28.6,25.3,29z M35.5,29
		c-0.1-0.5-0.4-0.9-0.6-1.4l0.7-0.5c0.3,0.5,0.6,1,0.7,1.6L35.5,29z M26.9,26.5l-0.6-0.6c0.4-0.4,0.9-0.7,1.5-1l0.4,0.8
		C27.7,25.9,27.3,26.2,26.9,26.5z M33.9,26.5c-0.4-0.3-0.8-0.6-1.3-0.8l0.3-0.8c0.5,0.2,1,0.6,1.5,0.9L33.9,26.5z M29.7,25.3
		l-0.1-0.8c0.3,0,0.6-0.1,0.9-0.1c0.3,0,0.6,0,0.8,0.1l-0.1,0.8c-0.2,0-0.5,0-0.7,0C30.2,25.2,29.9,25.2,29.7,25.3z"/>
	<rect x="34.1" y="53.8" fill="#FFFFFF" width="11.8" height="3.2"/>
</g>
<g id="_x2D_GuideText">
	<rect x="-38.5" y="80" fill="none" width="157" height="37.5"/>
	<text transform="matrix(1 0 0 1 2.75 114.0917)" fill="#999999" font-family="'Klavika-Light'" font-size="18px">Ovenplate</text>
</g>
<g id="_x2D_GuideLines" display="none">
</g>
<g id="nyt_x5F_exporter_x5F_info" display="none">
</g>
</svg>
