<?xml version="1.0" encoding="utf-8"?>
<!-- Generator: Adobe Illustrator 19.1.0, SVG Export Plug-In . SVG Version: 6.00 Build 0)  -->
<!DOCTYPE svg PUBLIC "-//W3C//DTD SVG 1.1//EN" "http://www.w3.org/Graphics/SVG/1.1/DTD/svg11.dtd">
<svg version="1.1" xmlns="http://www.w3.org/2000/svg" xmlns:xlink="http://www.w3.org/1999/xlink" x="0px" y="0px"
	 viewBox="0 0 80 80" enable-background="new 0 0 80 80" xml:space="preserve">
<g id="_x2D_Background2">
</g>
<g id="Gfx1">
	<path d="M69.3,43.7l-4.5-1.2c-1.2-0.3-2.4,0.4-2.8,1.6c-0.3,0.9,0.1,1.9,0.9,2.4l-14.7,8.3l-4-7.1c0,0,0,0,0,0L25.5,14.8
		c-0.2-0.3-0.5-0.6-0.9-0.7c-0.4-0.1-0.8-0.1-1.1,0.1c-2.9,1.6-7.2,15.6-2.3,26.1c-1.5,1-2.6,2.7-2.6,4.6c0,1.1,0.4,2.2,1,3.1
		c-2.7,4-4.5,11.4-4.5,19.9h18c0-7.4-1.4-13.9-3.5-18.1c3.2,2.2,6.7,3.5,9.5,4.3l3.2,5.6c0.2,0.3,0.5,0.6,0.9,0.7
		c0.1,0,0.3,0.1,0.4,0.1c0.3,0,0.5-0.1,0.7-0.2l4-2.3c0,0,0,0,0,0l18.5-10.5l1.3,0.4c1.2,0.3,2.4-0.4,2.8-1.6
		C71.2,45.3,70.5,44,69.3,43.7z"/>
</g>
<g id="GfxWhite">
</g>
<g id="_x2D_GuideText">
	<polyline fill="none" points="118.5,80 118.5,117.5 -38.5,117.5 -38.5,80 	"/>
	<text transform="matrix(1 0 0 1 12.4605 114.0915)" fill="#999999" font-family="'Klavika-Light'" font-size="18px">Parabol</text>
</g>
<g id="_x2D_GuideLines" display="none">
</g>
<g id="nyt_x5F_exporter_x5F_info" display="none">
</g>
</svg>
