<?xml version="1.0" encoding="utf-8"?>
<!-- Generator: Adobe Illustrator 19.1.0, SVG Export Plug-In . SVG Version: 6.00 Build 0)  -->
<!DOCTYPE svg PUBLIC "-//W3C//DTD SVG 1.1//EN" "http://www.w3.org/Graphics/SVG/1.1/DTD/svg11.dtd">
<svg version="1.1" xmlns="http://www.w3.org/2000/svg" xmlns:xlink="http://www.w3.org/1999/xlink" x="0px" y="0px"
	 viewBox="0 0 80 80" enable-background="new 0 0 80 80" xml:space="preserve">
<g id="_x2D_Background2">
</g>
<g id="Gfx1">
	<rect x="28.5" y="52.9" width="2" height="3.9"/>
	<rect x="23.2" y="55.9" width="12.8" height="2"/>
	<rect x="11.5" y="28.9" width="36.1" height="24.1"/>
	<rect x="51.2" y="22.1" width="17.3" height="35.7"/>
</g>
<g id="GfxWhite">
	<path fill="#FFFFFF" d="M45.8,51.2H13.3V30.6h32.6V51.2z M13.8,50.7h31.6V31.1H13.8V50.7z"/>
	<rect x="54" y="25.7" fill="#FFFFFF" width="11.8" height="2"/>
	<rect x="54" y="29.8" fill="#FFFFFF" width="11.8" height="2"/>
	<circle fill="#FFFFFF" cx="64.5" cy="40" r="1.2"/>
	<g>
		
			<line fill="none" stroke="#FFFFFF" stroke-linecap="round" stroke-linejoin="round" stroke-miterlimit="10" x1="29.5" y1="38.3" x2="29.5" y2="33.6"/>
		<path fill="none" stroke="#FFFFFF" stroke-linecap="round" stroke-linejoin="round" stroke-miterlimit="10" d="M26.7,36.3
			c-1.7,1-2.9,2.8-2.9,4.9c0,3.2,2.6,5.7,5.7,5.7s5.7-2.6,5.7-5.7c0-2.1-1.1-4-2.9-4.9"/>
	</g>
</g>
<g id="_x2D_GuideText">
	<rect x="-38.5" y="79.4" fill="none" width="157" height="37.5"/>
	<text transform="matrix(1 0 0 1 1.0308 113.5214)" fill="#999999" font-family="'Klavika-Light'" font-size="18px">PcStandby</text>
</g>
<g id="_x2D_GuideLines" display="none">
</g>
<g id="nyt_x5F_exporter_x5F_info" display="none">
</g>
</svg>
