<?xml version="1.0" encoding="utf-8"?>
<!-- Generator: Adobe Illustrator 19.1.0, SVG Export Plug-In . SVG Version: 6.00 Build 0)  -->
<!DOCTYPE svg PUBLIC "-//W3C//DTD SVG 1.1//EN" "http://www.w3.org/Graphics/SVG/1.1/DTD/svg11.dtd">
<svg version="1.1" xmlns="http://www.w3.org/2000/svg" xmlns:xlink="http://www.w3.org/1999/xlink" x="0px" y="0px"
	 viewBox="0 0 80 80" enable-background="new 0 0 80 80" xml:space="preserve">
<g id="_x2D_Background2">
</g>
<g id="Gfx1">
	<path d="M64.7,32.7c-0.7-1.8-1.9-3.2-3.4-4.2l-0.5-2.4c-0.3-1.4-1.5-2.4-2.9-2.4h-3.2c-1.4,0-2.6,1-2.9,2.4l-0.4,2H28.4l-0.4-2
		c-0.3-1.4-1.5-2.4-2.9-2.4H22c-1.4,0-2.6,1-2.9,2.4l-0.5,2.4c-1.5,1-2.7,2.4-3.4,4.2c-3.4,8.7-4.3,21.2,0.6,23.1
		c3.7,1.4,9.1-3.8,12.9-10.2h22.3C55,52,60.4,57.5,64.1,56.1C69,54.1,68.1,41.4,64.7,32.7z"/>
	<path d="M32.4,38c1-4.3-1.2-8.8-5.5-10.4c-4.6-1.8-9.8,0.5-11.6,5.1c-1.8,4.6,0.5,9.8,5.1,11.6c1.8,0.7,3.7,0.8,5.4,0.3
		c0.2,3.3,2.9,6,6.3,6c3.5,0,6.3-2.8,6.3-6.3C38.4,40.9,35.7,38.2,32.4,38z"/>
	<path d="M64.7,32.7c-1.8-4.6-7-6.9-11.6-5.1c-4.2,1.6-6.5,6.1-5.5,10.4c-3.4,0.1-6,2.9-6,6.3c0,3.5,2.8,6.3,6.3,6.3
		c3.4,0,6.1-2.6,6.3-6c1.7,0.4,3.6,0.4,5.4-0.3C64.2,42.5,66.5,37.3,64.7,32.7z"/>
</g>
<g id="GfxWhite">
	<g>
		<circle fill="#FFFFFF" cx="60.8" cy="35.8" r="1.7"/>
		<circle fill="#FFFFFF" cx="52.1" cy="35.8" r="1.7"/>
	</g>
	<g>
		<circle fill="#FFFFFF" cx="56.4" cy="40.2" r="1.7"/>
		<circle fill="#FFFFFF" cx="56.4" cy="31.5" r="1.7"/>
	</g>
	<g>
		<polygon fill="#FFFFFF" points="24.7,37.7 23.6,36.9 22.4,37.7 22.4,40.2 24.7,40.2 		"/>
		<polygon fill="#FFFFFF" points="22.4,33.3 23.6,34.1 24.7,33.3 24.7,30.8 22.4,30.8 		"/>
	</g>
	<g>
		<polygon fill="#FFFFFF" points="21.4,36.7 22.2,35.5 21.4,34.3 18.9,34.3 18.9,36.7 		"/>
		<polygon fill="#FFFFFF" points="25.8,34.3 25,35.5 25.8,36.7 28.2,36.7 28.2,34.3 		"/>
	</g>
	<rect x="34.8" y="35.5" fill="#FFFFFF" width="2.5" height="1.4"/>
	<polygon fill="#FFFFFF" points="45.6,36.2 43.1,36.9 43.1,35.5 	"/>
	<path fill="none" stroke="#FFFFFF" stroke-miterlimit="10" d="M47.8,35.8c0-4.8,3.9-8.7,8.7-8.7s8.7,3.9,8.7,8.7s-3.9,8.7-8.7,8.7"
		/>
	<path fill="none" stroke="#FFFFFF" stroke-miterlimit="10" d="M32.1,35.8c0-4.8-3.9-8.7-8.7-8.7s-8.7,3.9-8.7,8.7s3.9,8.7,8.7,8.7"
		/>
	<circle fill="#FFFFFF" cx="32.1" cy="44.3" r="3.5"/>
	<circle fill="#FFFFFF" cx="47.9" cy="44.3" r="3.5"/>
</g>
<g id="_x2D_GuideText">
	<rect x="-38.5" y="80" fill="none" width="157" height="37.5"/>
	<text transform="matrix(1 0 0 1 -1.4893 114.092)" fill="#999999" font-family="'Klavika-Light'" font-size="18px">Playstation</text>
</g>
<g id="_x2D_GuideLines" display="none">
</g>
<g id="nyt_x5F_exporter_x5F_info" display="none">
</g>
</svg>
