<?xml version="1.0" encoding="utf-8"?>
<!-- Generator: Adobe Illustrator 19.1.0, SVG Export Plug-In . SVG Version: 6.00 Build 0)  -->
<!DOCTYPE svg PUBLIC "-//W3C//DTD SVG 1.1//EN" "http://www.w3.org/Graphics/SVG/1.1/DTD/svg11.dtd">
<svg version="1.1" xmlns="http://www.w3.org/2000/svg" xmlns:xlink="http://www.w3.org/1999/xlink" x="0px" y="0px"
	 viewBox="0 0 80 80" enable-background="new 0 0 80 80" xml:space="preserve">
<g id="_x2D_Background2">
</g>
<g id="Gfx1">
	<path d="M63.6,34.4c-1.4-4.4-5.5-7.6-10.4-7.6c-3.5,0-6.6,1.7-8.6,4.2C43.1,31,41.6,31,40,31c-15.2,0-27.5,3.2-27.5,7.1v4.5
		c0,3.6,2.9,6.6,6.6,6.6h41.9c3.6,0,6.6-2.9,6.6-6.6v-4.5C67.5,36.7,66.1,35.5,63.6,34.4z"/>
	<path d="M27.6,50.5c0,1.9-1.5,3.5-3.5,3.5s-3.5-1.5-3.5-3.5H27.6z"/>
	<path d="M59.8,50.5c0,1.9-1.5,3.5-3.5,3.5s-3.5-1.5-3.5-3.5H59.8z"/>
</g>
<g id="GfxWhite">
	<path fill="#FFFFFF" d="M53.2,45.5c-4.3,0-7.7-3.5-7.7-7.7S49,30,53.2,30c4.3,0,7.7,3.5,7.7,7.7S57.5,45.5,53.2,45.5z M53.2,31.9
		c-3.3,0-5.9,2.6-5.9,5.9c0,3.3,2.6,5.9,5.9,5.9c3.3,0,5.9-2.6,5.9-5.9C59.1,34.5,56.5,31.9,53.2,31.9z"/>
	<g>
		<path fill="#FFFFFF" d="M21.1,37.4c-0.3,0-0.5-0.2-0.5-0.5s0.2-0.5,0.5-0.5h10.6c0.3,0,0.5,0.2,0.5,0.5s-0.2,0.5-0.5,0.5H21.1z"/>
		<path fill="#FFFFFF" d="M21.1,41.3c-0.3,0-0.5-0.2-0.5-0.5c0-0.3,0.2-0.5,0.5-0.5h10.6c0.3,0,0.5,0.2,0.5,0.5
			c0,0.3-0.2,0.5-0.5,0.5H21.1z"/>
		<path fill="#FFFFFF" d="M21.1,45.2c-0.3,0-0.5-0.2-0.5-0.5c0-0.3,0.2-0.5,0.5-0.5h10.6c0.3,0,0.5,0.2,0.5,0.5
			c0,0.3-0.2,0.5-0.5,0.5H21.1z"/>
	</g>
</g>
<g id="_x2D_GuideText">
	<rect x="-38.5" y="79.4" fill="none" width="157" height="37.5"/>
	<text transform="matrix(1 0 0 1 7.2676 113.5215)" fill="#999999" font-family="'Klavika-Light'" font-size="18px">Projector</text>
</g>
<g id="_x2D_GuideLines" display="none">
</g>
<g id="nyt_x5F_exporter_x5F_info" display="none">
</g>
</svg>
