<?xml version="1.0" encoding="utf-8"?>
<!-- Generator: Adobe Illustrator 19.1.0, SVG Export Plug-In . SVG Version: 6.00 Build 0)  -->
<!DOCTYPE svg PUBLIC "-//W3C//DTD SVG 1.1//EN" "http://www.w3.org/Graphics/SVG/1.1/DTD/svg11.dtd">
<svg version="1.1" xmlns="http://www.w3.org/2000/svg" xmlns:xlink="http://www.w3.org/1999/xlink" x="0px" y="0px"
	 viewBox="0 0 80 80" enable-background="new 0 0 80 80" xml:space="preserve">
<g id="_x2D_Background2">
</g>
<g id="Gfx1">
	<path d="M33.2,63.4c0,2.3-1.8,4.1-4.1,4.1S25,65.7,25,63.4H33.2z"/>
	<path d="M55.8,63.4c0,2.3-1.8,4.1-4.1,4.1s-4.1-1.8-4.1-4.1H55.8z"/>
	<path d="M62.2,61.9H17.8c-1.6,0-3-1.3-3-3V54c0-1.7,1.4-3,3-3h44.3c1.6,0,3,1.3,3,3v4.9C65.2,60.6,63.8,61.9,62.2,61.9z"/>
	<rect x="48.5" y="48.3" width="5.3" height="3.1"/>
	<path d="M52.6,14c0-0.8-0.7-1.5-1.5-1.5c-0.8,0-1.5,0.7-1.5,1.5c0,0.1,0,0.1,0,0.2h0v32.9h3V14.2h0C52.6,14.1,52.6,14.1,52.6,14z"
		/>
</g>
<g id="GfxWhite">
	<g>
		<circle fill="#FFFFFF" cx="22.7" cy="56.5" r="2.5"/>
		<g>
			<circle fill="#FFFFFF" cx="34.3" cy="56.5" r="1.1"/>
			<circle fill="#FFFFFF" cx="40.4" cy="56.5" r="1.1"/>
			<circle fill="#FFFFFF" cx="46.5" cy="56.5" r="1.1"/>
			<circle fill="#FFFFFF" cx="52.6" cy="56.5" r="1.1"/>
			<circle fill="#FFFFFF" cx="58.7" cy="56.5" r="1.1"/>
		</g>
	</g>
</g>
<g id="_x2D_GuideText">
	<rect x="-38.5" y="79.4" fill="none" width="157" height="37.5"/>
	<text transform="matrix(1 0 0 1 14.8004 113.5215)" fill="#999999" font-family="'Klavika-Light'" font-size="18px">Router</text>
</g>
<g id="_x2D_GuideLines" display="none">
</g>
<g id="nyt_x5F_exporter_x5F_info" display="none">
</g>
</svg>
