<?xml version="1.0" encoding="utf-8"?>
<!-- Generator: Adobe Illustrator 19.1.0, SVG Export Plug-In . SVG Version: 6.00 Build 0)  -->
<!DOCTYPE svg PUBLIC "-//W3C//DTD SVG 1.1//EN" "http://www.w3.org/Graphics/SVG/1.1/DTD/svg11.dtd">
<svg version="1.1" xmlns="http://www.w3.org/2000/svg" xmlns:xlink="http://www.w3.org/1999/xlink" x="0px" y="0px"
	 viewBox="0 0 80 80" enable-background="new 0 0 80 80" xml:space="preserve">
<g id="_x2D_Background2">
</g>
<g id="Gfx1">
	<path d="M71,67.5H9V22.4h62V67.5z M11,65.5h58V24.4H11V65.5z"/>
	<rect x="9.2" y="70.8" width="61.5" height="2"/>
	<path d="M42,7.2H38c-2.2,0-4,1.8-4,4v4.3h12v-4.3C46,9,44.2,7.2,42,7.2z"/>
	<path d="M46.1,15.5H33.9c-2.3,0-4.1,1.8-4.1,4.1v0h20.3v0C50.1,17.3,48.3,15.5,46.1,15.5z"/>
</g>
<g id="GfxWhite">
	<rect x="11" y="24.4" fill="#FFFFFF" width="58" height="41.1"/>
</g>
<g id="_x2D_GuideText">
	<rect x="-38.5" y="80" fill="none" width="157" height="37.5"/>
	<text transform="matrix(1 0 0 1 -3.6221 114.0906)" fill="#999999" font-family="'Klavika-Light'" font-size="18px">Smartboard</text>
</g>
<g id="_x2D_GuideLines" display="none">
</g>
<g id="nyt_x5F_exporter_x5F_info" display="none">
</g>
</svg>
