<?xml version="1.0" encoding="utf-8"?>
<!-- Generator: Adobe Illustrator 19.1.0, SVG Export Plug-In . SVG Version: 6.00 Build 0)  -->
<!DOCTYPE svg PUBLIC "-//W3C//DTD SVG 1.1//EN" "http://www.w3.org/Graphics/SVG/1.1/DTD/svg11.dtd">
<svg version="1.1" xmlns="http://www.w3.org/2000/svg" xmlns:xlink="http://www.w3.org/1999/xlink" x="0px" y="0px"
	 viewBox="0 0 80 80" enable-background="new 0 0 80 80" xml:space="preserve">
<g id="_x2D_Background2">
</g>
<g id="Gfx1">
	<path d="M54.2,64.5c0,1.7-1.4,3-3,3H28.9c-1.7,0-3-1.4-3-3v-49c0-1.7,1.4-3,3-3h22.3c1.7,0,3,1.4,3,3V64.5z"/>
</g>
<g id="GfxWhite">
	<rect x="28" y="21.9" fill="#FFFFFF" width="24.1" height="36.2"/>
	<path fill="#FFFFFF" d="M40,65.8c-1.6,0-2.8-1.3-2.8-2.8s1.3-2.8,2.8-2.8c1.6,0,2.8,1.3,2.8,2.8S41.6,65.8,40,65.8z M40,60.5
		c-1.4,0-2.5,1.1-2.5,2.5c0,1.4,1.1,2.5,2.5,2.5c1.4,0,2.5-1.1,2.5-2.5C42.5,61.6,41.4,60.5,40,60.5z"/>
	<circle fill="#FFFFFF" cx="35.3" cy="17.1" r="0.8"/>
	<path fill-rule="evenodd" clip-rule="evenodd" fill="#FFFFFF" d="M37.2,17.1c0-0.4,0.3-0.7,0.6-0.7h4.4c0.3,0,0.6,0.3,0.6,0.7v0.1
		c0,0.4-0.3,0.7-0.6,0.7h-4.4C37.5,17.8,37.2,17.5,37.2,17.1L37.2,17.1z"/>
	<path fill="#FFFFFF" d="M40.9,63.3c0,0.3-0.2,0.5-0.5,0.5h-0.8c-0.3,0-0.5-0.2-0.5-0.5v-0.8c0-0.3,0.2-0.5,0.5-0.5h0.8
		c0.3,0,0.5,0.2,0.5,0.5V63.3z"/>
</g>
<g id="_x2D_GuideText">
	<rect x="-38.5" y="80" fill="none" width="157" height="37.5"/>
	<text transform="matrix(1 0 0 1 -5.5478 114.0917)" fill="#999999" font-family="'Klavika-Light'" font-size="18px">Smartphone</text>
</g>
<g id="_x2D_GuideLines" display="none">
</g>
<g id="nyt_x5F_exporter_x5F_info" display="none">
</g>
</svg>
