<?xml version="1.0" encoding="utf-8"?>
<!-- Generator: Adobe Illustrator 19.1.0, SVG Export Plug-In . SVG Version: 6.00 Build 0)  -->
<!DOCTYPE svg PUBLIC "-//W3C//DTD SVG 1.1//EN" "http://www.w3.org/Graphics/SVG/1.1/DTD/svg11.dtd">
<svg version="1.1" xmlns="http://www.w3.org/2000/svg" xmlns:xlink="http://www.w3.org/1999/xlink" x="0px" y="0px"
	 viewBox="0 0 80 80" enable-background="new 0 0 80 80" xml:space="preserve">
<g id="_x2D_Background2">
</g>
<g id="Gfx1">
	<rect x="12.5" y="17.1" width="55" height="16.5"/>
	<path d="M20.1,68.9c0,0.9-0.7,1.6-1.6,1.6S17,69.8,17,68.9H20.1z"/>
	<path d="M33.8,68.9c0,0.9-0.7,1.6-1.6,1.6c-0.9,0-1.6-0.7-1.6-1.6H33.8z"/>
	<path d="M34.6,68.9H16.3c-2.3,0-4.2-1.9-4.2-4.2V39.4c0-2.3,1.9-4.2,4.2-4.2h18.3c2.3,0,4.2,1.9,4.2,4.2v25.4
		C38.8,67.1,36.9,68.9,34.6,68.9z"/>
	<path d="M49.3,68.9c0,0.9-0.7,1.6-1.6,1.6c-0.9,0-1.6-0.7-1.6-1.6H49.3z"/>
	<path d="M63,68.9c0,0.9-0.7,1.6-1.6,1.6s-1.6-0.7-1.6-1.6H63z"/>
	<path d="M63.7,68.9H45.4c-2.3,0-4.2-1.9-4.2-4.2V39.4c0-2.3,1.9-4.2,4.2-4.2h18.3c2.3,0,4.2,1.9,4.2,4.2v25.4
		C67.9,67.1,66.1,68.9,63.7,68.9z"/>
</g>
<g id="GfxWhite">
	<circle fill="none" stroke="#FFFFFF" stroke-miterlimit="10" cx="25.4" cy="55.7" r="9.7"/>
	<circle fill="#FFFFFF" cx="25.4" cy="55.7" r="2.6"/>
	<circle fill="#FFFFFF" cx="25.4" cy="39.7" r="2.6"/>
	<circle fill="none" stroke="#FFFFFF" stroke-miterlimit="10" cx="54.6" cy="55.7" r="9.7"/>
	<circle fill="#FFFFFF" cx="54.6" cy="55.7" r="2.6"/>
	<circle fill="#FFFFFF" cx="54.6" cy="39.7" r="2.6"/>
	<g>
		<path fill="none" stroke="#FFFFFF" stroke-miterlimit="10" d="M39.4,31.7H17.7c-1.7,0-3.1-1.4-3.1-3.1v-6.3c0-1.7,1.4-3.1,3.1-3.1
			h21.7c1.7,0,3.1,1.4,3.1,3.1v6.3C42.5,30.3,41.1,31.7,39.4,31.7z"/>
		<circle fill="#FFFFFF" cx="58.2" cy="25.4" r="4.8"/>
		
			<line fill="none" stroke="#FFFFFF" stroke-linecap="round" stroke-linejoin="round" stroke-miterlimit="10" x1="28.5" y1="24.2" x2="28.5" y2="21.3"/>
		<path fill="none" stroke="#FFFFFF" stroke-linecap="round" stroke-linejoin="round" stroke-miterlimit="10" d="M26.8,22.9
			c-1,0.6-1.7,1.7-1.7,3c0,1.9,1.6,3.5,3.5,3.5S32,27.9,32,26c0-1.3-0.7-2.4-1.7-3"/>
	</g>
</g>
<g id="_x2D_GuideText">
	<rect x="-38.5" y="80" fill="none" width="157" height="37.5"/>
	<text transform="matrix(1 0 0 1 -14.6196 114.0917)" fill="#999999" font-family="'Klavika-Light'" font-size="18px">StereoStandby</text>
</g>
<g id="_x2D_GuideLines" display="none">
</g>
<g id="nyt_x5F_exporter_x5F_info" display="none">
</g>
</svg>
