<?xml version="1.0" encoding="utf-8"?>
<!-- Generator: Adobe Illustrator 19.1.0, SVG Export Plug-In . SVG Version: 6.00 Build 0)  -->
<!DOCTYPE svg PUBLIC "-//W3C//DTD SVG 1.1//EN" "http://www.w3.org/Graphics/SVG/1.1/DTD/svg11.dtd">
<svg version="1.1" xmlns="http://www.w3.org/2000/svg" xmlns:xlink="http://www.w3.org/1999/xlink" x="0px" y="0px"
	 viewBox="0 0 80 80" enable-background="new 0 0 80 80" xml:space="preserve">
<g id="_x2D_Background2">
</g>
<g id="Gfx1">
	<path d="M64.1,28.7v22.8H15.9V28.7H64.1 M65.8,27H14.3v26.2h51.6V27L65.8,27z"/>
	<path d="M65.8,27v26.2H14.2V27H65.8 M67.5,25.3h-55v29.6h55V25.3L67.5,25.3z"/>
	<path d="M62.3,32.2c0,0.8-0.7,1.5-1.5,1.5H19.2c-0.8,0-1.5-0.7-1.5-1.5l0,0c0-0.8,0.7-1.5,1.5-1.5h41.7
		C61.7,30.7,62.3,31.4,62.3,32.2L62.3,32.2z"/>
	<rect x="12.5" y="56.8" width="55" height="10.2"/>
	<path d="M67.5,23.2h-55V13h55V23.2z M24.9,15.6c-1.4,0-2.5,1.1-2.5,2.5c0,1.4,1.1,2.5,2.5,2.5c1.4,0,2.5-1.1,2.5-2.5
		C27.5,16.7,26.3,15.6,24.9,15.6z M55.1,15.6c-1.4,0-2.5,1.1-2.5,2.5c0,1.4,1.1,2.5,2.5,2.5c1.4,0,2.5-1.1,2.5-2.5
		C57.6,16.7,56.5,15.6,55.1,15.6z M45.1,15.5H34.9v3.4h10.2V15.5z M37.8,19.8h-2.9v0.8h2.9V19.8z M41.5,19.8h-2.9v0.8h2.9V19.8z
		 M45.1,19.8h-2.9v0.8h2.9V19.8z"/>
</g>
<g id="GfxWhite">
</g>
<g id="_x2D_GuideText">
	<rect x="-38.5" y="80.5" fill="none" width="157" height="36.5"/>
	<text transform="matrix(1 0 0 1 18.9316 114.5693)" fill="#999999" font-family="'Klavika-Light'" font-size="18px">Stove</text>
</g>
<g id="_x2D_GuideLines" display="none">
</g>
<g id="nyt_x5F_exporter_x5F_info" display="none">
</g>
</svg>
