<?xml version="1.0" encoding="utf-8"?>
<!-- Generator: Adobe Illustrator 19.1.0, SVG Export Plug-In . SVG Version: 6.00 Build 0)  -->
<!DOCTYPE svg PUBLIC "-//W3C//DTD SVG 1.1//EN" "http://www.w3.org/Graphics/SVG/1.1/DTD/svg11.dtd">
<svg version="1.1" xmlns="http://www.w3.org/2000/svg" xmlns:xlink="http://www.w3.org/1999/xlink" x="0px" y="0px"
	 viewBox="0 0 80 80" enable-background="new 0 0 80 80" xml:space="preserve">
<g id="_x2D_Background2">
</g>
<g id="Gfx1">
	<path d="M44.5,32c-1.1-1.1-2.3-4.2,0-6.6c1.9-1.9,0.7-4.5,0-5.1l0.7-0.7c1.1,1.1,2.3,4.2,0,6.6c-1.9,1.9-0.7,4.5,0,5.1L44.5,32z"/>
	<path d="M39.6,32c-1.1-1.1-2.3-4.2,0-6.6c1.9-1.9,0.7-4.5,0-5.1l0.7-0.7c1.1,1.1,2.3,4.2,0,6.6c-1.9,1.9-0.7,4.5,0,5.1L39.6,32z"/>
	<path d="M34.8,32c-1.1-1.1-2.3-4.2,0-6.6c1.9-1.9,0.7-4.5,0-5.1l0.7-0.7c1.1,1.1,2.3,4.2,0,6.6c-1.9,1.9-0.7,4.5,0,5.1L34.8,32z"/>
	<path d="M56.5,39.2l-43-4.9c-2.4-0.3-4.5,1.4-4.8,3.8v0L60.3,44v0C60.6,41.6,58.9,39.5,56.5,39.2z"/>
	<path d="M56.5,48.8l-43,4.9c-2.4,0.3-4.5-1.4-4.8-3.8v0L60.3,44v0C60.6,46.4,58.9,48.5,56.5,48.8z"/>
	<path d="M68.4,46.3l-12.5,1.1v-6.9l12.5,1.1c1.7,0.1,2.9,1,2.9,2v0.7C71.3,45.3,70,46.2,68.4,46.3z"/>
	<path d="M55.9,47.2c-1.8,0-3.2-1.5-3.2-3.2s1.5-3.2,3.2-3.2s3.2,1.5,3.2,3.2S57.7,47.2,55.9,47.2z M55.9,41.8c-1.2,0-2.2,1-2.2,2.2
		s1,2.2,2.2,2.2s2.2-1,2.2-2.2S57.1,41.8,55.9,41.8z"/>
</g>
<g id="GfxWhite">
	<circle fill="#FFFFFF" cx="55.9" cy="44" r="1.8"/>
</g>
<g id="_x2D_GuideText">
	<rect x="-38.5" y="80" fill="none" width="157" height="37.5"/>
	<text transform="matrix(1 0 0 1 -6.2231 114.0918)" fill="#999999" font-family="'Klavika-Light'" font-size="18px">Straightener</text>
</g>
<g id="_x2D_GuideLines" display="none">
</g>
<g id="nyt_x5F_exporter_x5F_info" display="none">
</g>
</svg>
