<?xml version="1.0" encoding="utf-8"?>
<!-- Generator: Adobe Illustrator 19.1.0, SVG Export Plug-In . SVG Version: 6.00 Build 0)  -->
<!DOCTYPE svg PUBLIC "-//W3C//DTD SVG 1.1//EN" "http://www.w3.org/Graphics/SVG/1.1/DTD/svg11.dtd">
<svg version="1.1" xmlns="http://www.w3.org/2000/svg" xmlns:xlink="http://www.w3.org/1999/xlink" x="0px" y="0px"
	 viewBox="0 0 80 80" enable-background="new 0 0 80 80" xml:space="preserve">
<g id="_x2D_Background2">
</g>
<g id="Gfx1">
	<path d="M61.5,64.7c0,1.5-1.2,2.8-2.8,2.8H21.2c-1.5,0-2.8-1.2-2.8-2.8V15.3c0-1.5,1.2-2.8,2.8-2.8h37.6c1.5,0,2.8,1.2,2.8,2.8
		V64.7z"/>
</g>
<g id="GfxWhite">
	<rect x="23.6" y="17.6" fill="#FFFFFF" width="33" height="44.4"/>
	<path fill="#FFFFFF" d="M39.3,65.8c-0.6,0-1.1-0.5-1.1-1.1c0-0.6,0.5-1,1.1-1c0.6,0,1,0.5,1,1C40.4,65.3,39.9,65.8,39.3,65.8z
		 M39.3,63.8c-0.5,0-0.9,0.4-0.9,0.9c0,0.5,0.4,0.9,0.9,0.9c0.5,0,0.9-0.4,0.9-0.9C40.2,64.2,39.8,63.8,39.3,63.8z"/>
	<path fill="#FFFFFF" d="M39.6,64.9c0,0.1-0.1,0.2-0.2,0.2h-0.3c-0.1,0-0.2-0.1-0.2-0.2v-0.3c0-0.1,0.1-0.2,0.2-0.2h0.3
		c0.1,0,0.2,0.1,0.2,0.2V64.9z"/>
</g>
<g id="_x2D_GuideText">
	<rect x="-38.5" y="80" fill="none" width="157" height="37.5"/>
	<text transform="matrix(1 0 0 1 16.6905 114.0917)" fill="#999999" font-family="'Klavika-Light'" font-size="18px">Tablet</text>
</g>
<g id="_x2D_GuideLines" display="none">
</g>
<g id="nyt_x5F_exporter_x5F_info" display="none">
</g>
</svg>
