<?xml version="1.0" encoding="utf-8"?>
<!-- Generator: Adobe Illustrator 19.1.0, SVG Export Plug-In . SVG Version: 6.00 Build 0)  -->
<!DOCTYPE svg PUBLIC "-//W3C//DTD SVG 1.1//EN" "http://www.w3.org/Graphics/SVG/1.1/DTD/svg11.dtd">
<svg version="1.1" xmlns="http://www.w3.org/2000/svg" xmlns:xlink="http://www.w3.org/1999/xlink" x="0px" y="0px"
	 viewBox="0 0 80 80" enable-background="new 0 0 80 80" xml:space="preserve">
<g id="_x2D_Background2">
</g>
<g id="Gfx1">
	<path d="M59.2,63.6H24.1c-3,0-5.5-2.5-5.5-5.5V15.7h3v42.3c0,1.4,1.1,2.5,2.5,2.5h35.1c1.4,0,2.5-1.1,2.5-2.5s-1.1-2.5-2.5-2.5H30
		c-3,0-5.5-2.5-5.5-5.5s2.5-5.5,5.5-5.5h29.1c1.4,0,2.5-1.1,2.5-2.5s-1.1-2.5-2.5-2.5H30c-3,0-5.5-2.5-5.5-5.5c0-3,2.5-5.5,5.5-5.5
		h29.1c1.4,0,2.5-1.1,2.5-2.5s-1.1-2.5-2.5-2.5H30c-3,0-5.5-2.5-5.5-5.5v-2.3h3V18c0,1.4,1.1,2.5,2.5,2.5h29.1c3,0,5.5,2.5,5.5,5.5
		s-2.5,5.5-5.5,5.5H30c-1.4,0-2.5,1.1-2.5,2.5c0,1.4,1.1,2.5,2.5,2.5h29.1c3,0,5.5,2.5,5.5,5.5s-2.5,5.5-5.5,5.5H30
		c-1.4,0-2.5,1.1-2.5,2.5s1.1,2.5,2.5,2.5h29.1c3,0,5.5,2.5,5.5,5.5S62.2,63.6,59.2,63.6z"/>
	<path d="M53.9,68.5c-1.2,0-2.4-0.3-3.5-0.9c-1.5-0.8-3.5-0.8-5,0c-2.1,1.2-4.8,1.2-6.9,0c-1.5-0.8-3.5-0.8-5,0
		c-0.6,0.3-1.5-0.2-1.5-0.9V46.2c0-2.5,2-4.5,4.5-4.5h17.1c2.5,0,4.5,2,4.5,4.5v20.5c0,0.4-0.2,0.7-0.5,0.9
		C56.3,68.2,55.1,68.5,53.9,68.5z M47.9,65c1.2,0,2.4,0.3,3.5,0.9c1.4,0.7,3.1,0.8,4.5,0.2V46.2c0-1.4-1.1-2.5-2.5-2.5H36.4
		c-1.4,0-2.5,1.1-2.5,2.5v19.1c1.8-0.5,3.9-0.3,5.5,0.6c1.5,0.8,3.5,0.8,5,0C45.5,65.3,46.7,65,47.9,65z"/>
	<path d="M26,12.5c-1.4,0-4.6,0-6,0c-1.8,0-3.2,1.4-3.2,3.2c0,1.8,1.4,3.2,3.2,3.2c1.4,0,4.6,0,6,0c1.8,0,3.2-1.4,3.2-3.2
		C29.3,13.9,27.8,12.5,26,12.5z"/>
</g>
<g id="GfxWhite">
	<path fill="#FFFFFF" d="M53.4,43.7H36.4c-1.4,0-2.5,1.1-2.5,2.5v19.1c1.8-0.5,3.9-0.3,5.5,0.6c1.5,0.8,3.5,0.8,5,0
		c1.1-0.6,2.3-0.9,3.5-0.9s2.4,0.3,3.5,0.9c1.4,0.7,3.1,0.8,4.5,0.2V46.2C55.9,44.8,54.8,43.7,53.4,43.7z"/>
</g>
<g id="_x2D_GuideText">
	<rect x="-38.5" y="80" fill="none" width="157" height="37.5"/>
	<text transform="matrix(1 0 0 1 -0.3731 114.092)" fill="#999999" font-family="'Klavika-Light'" font-size="18px">Toweldryer</text>
</g>
<g id="_x2D_GuideLines" display="none">
</g>
<g id="nyt_x5F_exporter_x5F_info" display="none">
</g>
</svg>
