<?xml version="1.0" encoding="utf-8"?>
<!-- Generator: Adobe Illustrator 19.1.0, SVG Export Plug-In . SVG Version: 6.00 Build 0)  -->
<!DOCTYPE svg PUBLIC "-//W3C//DTD SVG 1.1//EN" "http://www.w3.org/Graphics/SVG/1.1/DTD/svg11.dtd">
<svg version="1.1" xmlns="http://www.w3.org/2000/svg" xmlns:xlink="http://www.w3.org/1999/xlink" x="0px" y="0px"
	 viewBox="0 0 80 80" enable-background="new 0 0 80 80" xml:space="preserve">
<g id="_x2D_Background2">
</g>
<g id="Gfx1">
	<g>
		<path d="M66.6,21.4H13.4v-8.9h53.1V21.4z M21.1,14.8c-1.2,0-2.2,1-2.2,2.2s1,2.2,2.2,2.2s2.2-1,2.2-2.2S22.2,14.8,21.1,14.8z
			 M27.8,14.8c-1.2,0-2.2,1-2.2,2.2s1,2.2,2.2,2.2s2.2-1,2.2-2.2S29,14.8,27.8,14.8z"/>
	</g>
	<path d="M13.4,23.3v36.9c0,4,3.3,7.3,7.3,7.3h38.5c4,0,7.3-3.3,7.3-7.3V23.3H13.4z"/>
</g>
<g id="GfxWhite">
	<path fill="#FFFFFF" d="M39.2,63.7c-10.1,0-18.3-8.2-18.3-18.3c0-10.1,8.2-18.3,18.3-18.3s18.3,8.2,18.3,18.3
		C57.5,55.5,49.3,63.7,39.2,63.7z M39.2,28.6c-9.2,0-16.8,7.5-16.8,16.8c0,9.2,7.5,16.8,16.8,16.8s16.8-7.5,16.8-16.8
		C55.9,36.1,48.4,28.6,39.2,28.6z"/>
	<path fill="#FFFFFF" d="M46.7,49.3l-3.1-3.1h-1.8c0,1-0.8,1.8-1.8,1.8s-1.8-0.8-1.8-1.8h-1.8l-3.1,3.1l1.6,1.6l1.4-1.4v6.6h7.2
		v-6.6l1.4,1.4L46.7,49.3z"/>
	<g>
		<path fill="#FFFFFF" d="M43.3,44.1c-0.8-0.8-1.7-3.1,0-4.9c1.4-1.4,0.5-3.3,0-3.8l0.5-0.5c0.8,0.8,1.7,3.1,0,4.9
			c-1.4,1.4-0.5,3.3,0,3.8L43.3,44.1z"/>
		<path fill="#FFFFFF" d="M39.7,44.1c-0.8-0.8-1.7-3.1,0-4.9c1.4-1.4,0.5-3.3,0-3.8l0.5-0.5c0.8,0.8,1.7,3.1,0,4.9
			c-1.4,1.4-0.5,3.3,0,3.8L39.7,44.1z"/>
		<path fill="#FFFFFF" d="M36.1,44.1c-0.8-0.8-1.7-3.1,0-4.9c1.4-1.4,0.5-3.3,0-3.8l0.5-0.5c0.8,0.8,1.7,3.1,0,4.9
			c-1.4,1.4-0.5,3.3,0,3.8L36.1,44.1z"/>
	</g>
</g>
<g id="_x2D_GuideText">
	<rect x="-38.5" y="80" fill="none" width="157" height="37.5"/>
	<text transform="matrix(1 0 0 1 -6.2051 114.0918)" fill="#999999" font-family="'Klavika-Light'" font-size="18px">Tumbledryer</text>
</g>
<g id="_x2D_GuideLines" display="none">
</g>
<g id="nyt_x5F_exporter_x5F_info" display="none">
</g>
</svg>
