<?xml version="1.0" encoding="utf-8"?>
<!-- Generator: Adobe Illustrator 19.1.0, SVG Export Plug-In . SVG Version: 6.00 Build 0)  -->
<!DOCTYPE svg PUBLIC "-//W3C//DTD SVG 1.1//EN" "http://www.w3.org/Graphics/SVG/1.1/DTD/svg11.dtd">
<svg version="1.1" xmlns="http://www.w3.org/2000/svg" xmlns:xlink="http://www.w3.org/1999/xlink" x="0px" y="0px"
	 viewBox="0 0 80 80" enable-background="new 0 0 80 80" xml:space="preserve">
<g id="_x2D_Background2">
</g>
<g id="Gfx1">
	<path d="M64.2,55.7c-1.9-3.7-5.7-6.3-10.2-6.3c-6.3,0-19.4,5.1-19.4,11.4c0,2.1,1.7,3.7,3.7,3.7h2.6H61c1.1,0,2.5-0.2,3.1-1.3
		c0.7-1.1,0.9-2.5,0.9-3.9C65,58,64.7,56.8,64.2,55.7L64.2,55.7z"/>
	<rect x="34.4" y="14.4" transform="matrix(0.7069 0.7073 -0.7073 0.7069 35.4095 -15.1168)" width="3.1" height="41.6"/>
	<rect x="49.4" y="18" transform="matrix(0.7072 0.707 -0.707 0.7072 28.8734 -30.8295)" width="4.6" height="2.9"/>
	<path d="M35.1,56.9c-1.1-1.1-1.6-3-1.3-5.2c0.2-1.9,1.3-6.8,7.2-10.6c4-2.6,7.9-4.2,11.3-5.6c6-2.5,10.3-4.3,12.3-9.6
		c1.6-4.2,0.1-7.5-2-8.8c-2-1.3-5.5-1.4-9,2.2l-1.6-1.6c3.7-3.7,8.4-4.7,11.9-2.5c2.9,1.9,4.9,6.2,2.9,11.6
		c-2.3,6.2-7.5,8.4-13.5,10.9c-3.3,1.4-7.1,2.9-10.9,5.4c-5.1,3.3-6,7.3-6.2,8.9c-0.2,1.7,0.2,2.9,0.7,3.4L35.1,56.9z"/>
	<path d="M28.2,57.8c-1.1,1.1-2.9,1.1-4,0L13.3,46.9c-1.1-1.1-1.1-2.9,0-4l1-1c1.1-1.1,2.9-1.1,4,0l10.9,10.9c1.1,1.1,1.1,2.9,0,4
		L28.2,57.8z"/>
	<path d="M36.3,59.8c0,0-0.2-0.2-2-2l3.3-3.3l1.8,1.8c1.6,1.6,0.7,3,0.4,3.4l-3.6-2.9l1.8,1.5L36.3,59.8z"/>
</g>
<g id="GfxWhite">
	<path fill="#FFFFFF" d="M56,54.2c2.9,0,5.2,2.3,5.2,5.2c0,2.9-2.3,5.2-5.2,5.2c-2.9,0-5.2-2.3-5.2-5.2C50.8,56.5,53.1,54.2,56,54.2
		 M56,52.6c-3.7,0-6.7,3-6.7,6.7c0,3.7,3,6.7,6.7,6.7c3.7,0,6.7-3,6.7-6.7C62.7,55.6,59.7,52.6,56,52.6L56,52.6z"/>
</g>
<g id="_x2D_GuideText">
	<rect x="-38.5" y="79.4" fill="none" width="157" height="37.5"/>
	<text transform="matrix(1 0 0 1 -16.1591 113.522)" fill="#999999" font-family="'Klavika-Light'" font-size="18px">Vacuumcleaner</text>
</g>
<g id="_x2D_GuideLines" display="none">
</g>
<g id="nyt_x5F_exporter_x5F_info" display="none">
</g>
</svg>
