<?xml version="1.0" encoding="utf-8"?>
<!-- Generator: Adobe Illustrator 19.1.0, SVG Export Plug-In . SVG Version: 6.00 Build 0)  -->
<!DOCTYPE svg PUBLIC "-//W3C//DTD SVG 1.1//EN" "http://www.w3.org/Graphics/SVG/1.1/DTD/svg11.dtd">
<svg version="1.1" xmlns="http://www.w3.org/2000/svg" xmlns:xlink="http://www.w3.org/1999/xlink" x="0px" y="0px"
	 viewBox="0 0 80 80" enable-background="new 0 0 80 80" xml:space="preserve">
<g id="_x2D_Background2">
</g>
<g id="Gfx1">
	<circle cx="40" cy="36.4" r="17.7"/>
	<path d="M48.1,22H31.9v-6.5l0.7-0.2c4.9-1.7,10-1.7,14.9,0l0.7,0.2V22z M33.9,20h12.3v-3.1c-4-1.3-8.2-1.3-12.3,0V20z"/>
	<path d="M54.8,62.7H25.2c-1.6,0-2.8-1.3-2.8-2.8v-4.8h35.3v4.8C57.7,61.5,56.4,62.7,54.8,62.7z"/>
	<rect x="35.1" y="51.6" width="9.9" height="3.5"/>
	<polygon points="28.8,66.1 26.8,66.1 26.8,62.7 30.8,62.7 	"/>
	<polygon points="51.2,66.1 53.2,66.1 53.2,62.7 49.2,62.7 	"/>
</g>
<g id="GfxWhite">
	<path fill="#FFFFFF" d="M46.8,23.9c-1.4-1.4-3.9-1.4-5.3,0c-0.3,0.3-0.5,0.6-0.7,1l-0.4,0.9l-0.4-0.9c-0.2-0.4-0.4-0.7-0.7-1
		c-0.7-0.7-1.7-1.1-2.7-1.1s-2,0.4-2.7,1.1c-0.7,0.7-1.1,1.7-1.1,2.7s0.4,2,1.1,2.7l6.5,6.5l6.5-6.5c0.7-0.7,1.1-1.7,1.1-2.7
		S47.5,24.6,46.8,23.9z"/>
	<path fill="#FFFFFF" d="M52.8,37.6c-0.3-0.3-0.6-0.5-1-0.7L51,36.4l0.9-0.4c0.4-0.2,0.7-0.4,1-0.7c0.7-0.7,1.1-1.7,1.1-2.7
		c0-1-0.4-2-1.1-2.7c-1.4-1.4-3.9-1.4-5.3,0L41,36.4l6.5,6.5c1.4,1.4,3.9,1.4,5.3,0c0.7-0.7,1.1-1.7,1.1-2.7S53.5,38.3,52.8,37.6z"
		/>
	<path fill="#FFFFFF" d="M40.3,37.1l-6.5,6.5c-0.7,0.7-1.1,1.7-1.1,2.7s0.4,2,1.1,2.7c1.4,1.4,3.9,1.4,5.3,0c0.3-0.3,0.5-0.6,0.7-1
		l0.4-0.9l0.4,0.9c0.2,0.4,0.4,0.7,0.7,1c1.4,1.4,3.9,1.4,5.3,0c0.7-0.7,1.1-1.7,1.1-2.7s-0.4-2-1.1-2.7L40.3,37.1z"/>
	<path fill="#FFFFFF" d="M33.1,42.9l6.5-6.5l-6.5-6.5c-0.7-0.7-1.7-1.1-2.7-1.1s-2,0.4-2.7,1.1s-1.1,1.7-1.1,2.7c0,1,0.4,2,1.1,2.7
		c0.3,0.3,0.6,0.5,1,0.7l0.9,0.4l-0.9,0.4c-0.4,0.2-0.7,0.4-1,0.7c-0.7,0.7-1.1,1.7-1.1,2.7s0.4,2,1.1,2.7
		C29.2,44.3,31.7,44.3,33.1,42.9z"/>
</g>
<g id="_x2D_GuideText">
	<rect x="-38.5" y="80" fill="none" width="157" height="37.5"/>
	<text transform="matrix(1 0 0 1 0.6167 114.092)" fill="#999999" font-family="'Klavika-Light'" font-size="18px">WaffleIron</text>
</g>
<g id="_x2D_GuideLines" display="none">
</g>
<g id="nyt_x5F_exporter_x5F_info" display="none">
</g>
</svg>
