<?xml version="1.0" encoding="utf-8"?>
<!-- Generator: Adobe Illustrator 19.1.0, SVG Export Plug-In . SVG Version: 6.00 Build 0)  -->
<!DOCTYPE svg PUBLIC "-//W3C//DTD SVG 1.1//EN" "http://www.w3.org/Graphics/SVG/1.1/DTD/svg11.dtd">
<svg version="1.1" xmlns="http://www.w3.org/2000/svg" xmlns:xlink="http://www.w3.org/1999/xlink" x="0px" y="0px"
	 viewBox="0 0 80 80" enable-background="new 0 0 80 80" xml:space="preserve">
<g id="_x2D_Background2">
</g>
<g id="Gfx1">
	<path d="M51.8,44.7c0,6.5-5.3,11.8-11.8,11.8c-6.5,0-11.8-5.3-11.8-11.8c0,1.6,1.3,2.9,2.9,2.9c1.6,0,2.9-1.3,2.9-2.9
		c0,1.6,1.3,2.9,2.9,2.9s2.9-1.3,2.9-2.9c0,1.6,1.3,2.9,2.9,2.9s2.9-1.3,2.9-2.9c0,1.6,1.3,2.9,2.9,2.9S51.8,46.4,51.8,44.7z"/>
	<path d="M16.4,22v39c0,3.6,2.9,6.5,6.5,6.5h34.1c3.6,0,6.5-2.9,6.5-6.5V22H16.4z M40,56.5c-6.5,0-11.7-5.3-11.7-11.7
		C28.3,38.3,33.5,33,40,33s11.7,5.3,11.7,11.7C51.7,51.3,46.5,56.5,40,56.5z"/>
	<g>
		<path d="M63.6,20.4H16.4v-7.9h47.1V20.4z M21.6,14.5c-1.1,0-1.9,0.9-1.9,1.9s0.9,1.9,1.9,1.9s1.9-0.9,1.9-1.9S22.7,14.5,21.6,14.5
			z M27,15.2c-0.7,0-1.2,0.5-1.2,1.2c0,0.7,0.5,1.2,1.2,1.2c0.7,0,1.2-0.5,1.2-1.2C28.2,15.8,27.6,15.2,27,15.2z M31.7,15.2
			c-0.7,0-1.2,0.5-1.2,1.2c0,0.7,0.5,1.2,1.2,1.2c0.7,0,1.2-0.5,1.2-1.2C32.8,15.8,32.3,15.2,31.7,15.2z M44.9,14.5h-9.7v3.8h9.7
			V14.5z"/>
	</g>
</g>
<g id="GfxWhite">
	<path fill="#FFFFFF" d="M40,30.8c7.7,0,14,6.3,14,14c0,7.7-6.3,14-14,14s-14-6.3-14-14C26,37,32.3,30.8,40,30.8 M40,29.4
		c-8.4,0-15.3,6.9-15.3,15.3C24.7,53.2,31.6,60,40,60s15.3-6.9,15.3-15.3C55.3,36.3,48.4,29.4,40,29.4L40,29.4z"/>
	<path fill="#FFFFFF" d="M54.4,47.6l-3.6-0.4c-0.8,0-1.4-0.7-1.4-1.5v-1.8c0-0.8,0.6-1.5,1.4-1.5l3.6-0.4l0.1,0.6
		c0.1,0.7,0.2,1.5,0.2,2.2c0,0.7-0.1,1.5-0.2,2.2L54.4,47.6z M50.8,43.7c-0.1,0-0.1,0.1-0.1,0.1v1.8c0,0.1,0.1,0.1,0.1,0.1l0.1,0
		l2.4,0.3c0-0.5,0.1-0.9,0.1-1.4c0-0.5,0-0.9-0.1-1.4L50.8,43.7z"/>
</g>
<g id="_x2D_GuideText">
	<rect x="-38.5" y="80" fill="none" width="157" height="37.5"/>
	<text transform="matrix(1 0 0 1 11.9023 114.0919)" fill="#999999" font-family="'Klavika-Light'" font-size="18px">Washer</text>
</g>
<g id="_x2D_GuideLines" display="none">
</g>
<g id="nyt_x5F_exporter_x5F_info" display="none">
</g>
</svg>
