<?xml version="1.0" encoding="utf-8"?>
<!-- Generator: Adobe Illustrator 19.1.0, SVG Export Plug-In . SVG Version: 6.00 Build 0)  -->
<!DOCTYPE svg PUBLIC "-//W3C//DTD SVG 1.1//EN" "http://www.w3.org/Graphics/SVG/1.1/DTD/svg11.dtd">
<svg version="1.1" xmlns="http://www.w3.org/2000/svg" xmlns:xlink="http://www.w3.org/1999/xlink" x="0px" y="0px"
	 viewBox="0 0 80 80" enable-background="new 0 0 80 80" xml:space="preserve">
<g id="_x2D_Background2">
</g>
<g id="Gfx1">
	<path d="M61.2,23.9c-1.1-1.8-5.3-2.6-7.5-3c-2.2-0.3-7.1,3.8-8.5,3.8c-1.4,0-9.2,0-10.5,0c-1.4,0-6.3-4.2-8.5-3.8s-6.3,1.2-7.5,3
		c-1.1,1.8-6.7,14.3-6.3,27.8c0.5,14.9,12.7,2.7,14.3,1.1c2.7-2.7,8-3.3,13.2-3.3c5.2,0,10.5,0.6,13.2,3.3
		c1.6,1.6,13.7,13.8,14.3-1.1C68,38.2,62.3,25.7,61.2,23.9z"/>
</g>
<g id="GfxWhite">
	<circle fill="#FFFFFF" cx="48" cy="40.9" r="3.7"/>
	<g>
		<circle fill="#FFFFFF" cx="56.4" cy="35.4" r="1.8"/>
		<circle fill="#FFFFFF" cx="56.4" cy="26.6" r="1.8"/>
	</g>
	<g>
		<circle fill="#FFFFFF" cx="52" cy="31" r="1.8"/>
		<circle fill="#FFFFFF" cx="60.8" cy="31" r="1.8"/>
	</g>
	<circle fill="#FFFFFF" cx="23.5" cy="31" r="3.8"/>
	<circle fill="#FFFFFF" cx="31.5" cy="40.9" r="4.6"/>
	<g>
		<circle fill="#FFFFFF" cx="40" cy="31.5" r="3.6"/>
		<path d="M42.4,31.9c-0.5-1-1.4-2-1.4-2s0.5-0.6,1-0.8c0.2-0.1,0.4-0.1,0.5-0.2c-0.2-0.1-0.3-0.3-0.5-0.4c-0.1,0-0.2,0-0.4,0
			C40.9,28.5,40,29,40,29s-0.9-0.5-1.5-0.5c-0.2,0-0.3,0-0.4,0c-0.2,0.1-0.3,0.2-0.5,0.4c0.1,0,0.3,0.1,0.5,0.2c0.5,0.3,1,0.8,1,0.8
			s-1,1.1-1.4,2c-0.4,0.9-0.5,1.4-0.5,1.7c0.1,0.2,0.2,0.3,0.4,0.4c0-1.1,1.7-2.8,2.5-3.3c0.8,0.5,2.4,2.2,2.5,3.3
			c0.1-0.1,0.3-0.3,0.4-0.4C42.9,33.3,42.8,32.8,42.4,31.9z"/>
	</g>
</g>
<g id="_x2D_GuideText">
	<polyline fill="none" points="118.5,80 118.5,117.5 -38.5,117.5 -38.5,80 	"/>
	<text transform="matrix(1 0 0 1 21.7574 114.0916)" fill="#999999" font-family="'Klavika-Light'" font-size="18px">Xbox</text>
</g>
<g id="_x2D_GuideLines" display="none">
</g>
<g id="nyt_x5F_exporter_x5F_info" display="none">
</g>
</svg>
