<?xml version="1.0" encoding="utf-8"?>
<!-- Generator: Adobe Illustrator 18.1.1, SVG Export Plug-In . SVG Version: 6.00 Build 0)  -->
<!DOCTYPE svg PUBLIC "-//W3C//DTD SVG 1.1//EN" "http://www.w3.org/Graphics/SVG/1.1/DTD/svg11.dtd">
<svg version="1.1" xmlns="http://www.w3.org/2000/svg" xmlns:xlink="http://www.w3.org/1999/xlink" x="0px" y="0px"
	 viewBox="0 0 80 80" style="enable-background:new 0 0 80 80;" xml:space="preserve">
<style type="text/css">
	.st0{stroke:#000000;stroke-width:4;stroke-linecap:round;stroke-linejoin:round;stroke-miterlimit:10;}
	.st1{fill:#FFFFFF;}
	.st2{fill-rule:evenodd;clip-rule:evenodd;fill:#FFFFFF;}
	.st3{fill:none;}
	.st4{fill:#999999;}
	.st5{font-family:'Klavika-Light';}
	.st6{font-size:18;}
	.st7{fill:none;stroke:#000000;stroke-width:2;stroke-miterlimit:10;}
	.st8{stroke:#000000;stroke-width:2;stroke-linecap:round;stroke-linejoin:round;stroke-miterlimit:10;}
	.st9{stroke:#000000;stroke-linecap:round;stroke-linejoin:round;stroke-miterlimit:10;}
	.st10{display:none;}
</style>
<g id="_x2D_Background2">
</g>
<g id="Gfx1">
	<path d="M55.4,63.8c0,1.7-1.4,3-3,3H30.1c-1.7,0-3-1.4-3-3v-49c0-1.7,1.4-3,3-3h22.3c1.7,0,3,1.4,3,3V63.8z"/>
</g>
<g id="GfxWhite">
	<rect x="29.2" y="21.2" class="st1" width="24.1" height="36.2"/>
	<path class="st1" d="M41.2,65c-1.6,0-2.8-1.3-2.8-2.8c0-1.6,1.3-2.8,2.8-2.8c1.6,0,2.8,1.3,2.8,2.8C44.1,63.8,42.8,65,41.2,65z
		 M41.2,59.8c-1.4,0-2.5,1.1-2.5,2.5c0,1.4,1.1,2.5,2.5,2.5c1.4,0,2.5-1.1,2.5-2.5C43.7,60.9,42.6,59.8,41.2,59.8z"/>
	<circle class="st1" cx="36.5" cy="16.4" r="0.8"/>
	<path class="st2" d="M38.4,16.4c0-0.4,0.3-0.7,0.6-0.7h4.4c0.3,0,0.6,0.3,0.6,0.7v0.1c0,0.4-0.3,0.7-0.6,0.7h-4.4
		C38.7,17.1,38.4,16.8,38.4,16.4L38.4,16.4z"/>
	<path class="st1" d="M42.1,62.6c0,0.3-0.2,0.5-0.5,0.5h-0.8c-0.3,0-0.5-0.2-0.5-0.5v-0.8c0-0.3,0.2-0.5,0.5-0.5h0.8
		c0.3,0,0.5,0.2,0.5,0.5V62.6z"/>
</g>
<g id="_x2D_GuideText">
	<rect x="-38.5" y="80" class="st3" width="157" height="37.5"/>
	<text transform="matrix(1 0 0 1 14.8813 114.0918)" class="st4 st5 st6">iPhone</text>
</g>
<g id="_x2D_GuideLines" class="st10">
</g>
<g id="nyt_x5F_exporter_x5F_info" class="st10">
</g>
</svg>
