<?xml version="1.0" encoding="utf-8"?>
<!-- Generator: Adobe Illustrator 18.1.1, SVG Export Plug-In . SVG Version: 6.00 Build 0)  -->
<!DOCTYPE svg PUBLIC "-//W3C//DTD SVG 1.1//EN" "http://www.w3.org/Graphics/SVG/1.1/DTD/svg11.dtd">
<svg version="1.1" xmlns="http://www.w3.org/2000/svg" xmlns:xlink="http://www.w3.org/1999/xlink" x="0px" y="0px"
	 viewBox="0 0 80 80" style="enable-background:new 0 0 80 80;" xml:space="preserve">
<style type="text/css">
	.st0{stroke:#000000;stroke-width:4;stroke-linecap:round;stroke-linejoin:round;stroke-miterlimit:10;}
	.st1{fill:#FFFFFF;}
	.st2{fill-rule:evenodd;clip-rule:evenodd;fill:#FFFFFF;}
	.st3{fill:none;}
	.st4{fill:#999999;}
	.st5{font-family:'Klavika-Light';}
	.st6{font-size:18;}
	.st7{fill:none;stroke:#000000;stroke-width:2;stroke-miterlimit:10;}
	.st8{stroke:#000000;stroke-width:2;stroke-linecap:round;stroke-linejoin:round;stroke-miterlimit:10;}
	.st9{stroke:#000000;stroke-linecap:round;stroke-linejoin:round;stroke-miterlimit:10;}
	.st10{display:none;}
</style>
<g id="_x2D_Background2">
</g>
<g id="Gfx1">
	<g>
		<path d="M64.9,57.9H15.1V30.4c0-1.9,1.5-3.4,3.4-3.4h43c1.9,0,3.4,1.5,3.4,3.4V57.9z"/>
	</g>
	<path d="M44.5,59.5c0,0.9-0.7,1.6-1.6,1.6h-5.7c-0.9,0-1.6-0.7-1.6-1.6H10.8v0c0,2.2,1.8,4,4,4h50.3c2.2,0,4-1.8,4-4v0H44.5z"/>
</g>
<g id="GfxWhite">
	<g>
		<rect x="17.4" y="29.4" class="st1" width="45.3" height="26.1"/>
	</g>
</g>
<g id="_x2D_GuideText">
	<rect x="-38.5" y="80" class="st3" width="157" height="37.5"/>
	<text transform="matrix(1 0 0 1 14.1709 114.0919)" class="st4 st5 st6">Laptop</text>
</g>
<g id="_x2D_GuideLines" class="st10">
</g>
<g id="nyt_x5F_exporter_x5F_info" class="st10">
</g>
</svg>
