<?xml version="1.0" encoding="utf-8"?>
<!-- Generator: Adobe Illustrator 18.1.1, SVG Export Plug-In . SVG Version: 6.00 Build 0)  -->
<!DOCTYPE svg PUBLIC "-//W3C//DTD SVG 1.1//EN" "http://www.w3.org/Graphics/SVG/1.1/DTD/svg11.dtd">
<svg version="1.1" xmlns="http://www.w3.org/2000/svg" xmlns:xlink="http://www.w3.org/1999/xlink" x="0px" y="0px"
	 viewBox="0 0 80 80" style="enable-background:new 0 0 80 80;" xml:space="preserve">
<style type="text/css">
	.st0{stroke:#000000;stroke-width:4;stroke-linecap:round;stroke-linejoin:round;stroke-miterlimit:10;}
	.st1{fill:#FFFFFF;}
	.st2{fill-rule:evenodd;clip-rule:evenodd;fill:#FFFFFF;}
	.st3{fill:none;}
	.st4{fill:#999999;}
	.st5{font-family:'Klavika-Light';}
	.st6{font-size:18;}
	.st7{fill:none;stroke:#000000;stroke-width:2;stroke-miterlimit:10;}
	.st8{stroke:#000000;stroke-width:2;stroke-linecap:round;stroke-linejoin:round;stroke-miterlimit:10;}
	.st9{stroke:#000000;stroke-linecap:round;stroke-linejoin:round;stroke-miterlimit:10;}
	.st10{display:none;}
</style>
<g id="_x2D_Background2">
</g>
<g id="Gfx1">
	<polygon points="32.4,30.3 30.5,28.8 30.5,21 32.4,19.5 	"/>
	<polygon points="27.9,19.5 29.8,21 29.8,28.8 27.9,30.3 	"/>
	<polygon points="41.3,30.3 39.5,28.8 39.5,21 41.3,19.5 	"/>
	<polygon points="36.8,19.5 38.7,21 38.7,28.8 36.8,30.3 	"/>
	<polygon points="50.3,30.3 48.4,28.8 48.4,21 50.3,19.5 	"/>
	<polygon points="45.8,19.5 47.7,21 47.7,28.8 45.8,30.3 	"/>
	<polygon points="32.4,60.5 30.5,59 30.5,51.2 32.4,49.7 	"/>
	<polygon points="27.9,49.7 29.8,51.2 29.8,59 27.9,60.5 	"/>
	<polygon points="23.4,60.5 21.6,59 21.6,51.2 23.4,49.7 	"/>
	<polygon points="23.4,30.3 21.6,28.8 21.6,21 23.4,19.5 	"/>
	<polygon points="18.9,19.5 20.8,21 20.8,28.8 18.9,30.3 	"/>
	<polygon points="18.9,49.7 20.8,51.2 20.8,59 18.9,60.5 	"/>
	<polygon points="41.3,60.5 39.5,59 39.5,51.2 41.3,49.7 	"/>
	<polygon points="36.8,49.7 38.7,51.2 38.7,59 36.8,60.5 	"/>
	<polygon points="50.3,60.5 48.4,59 48.4,51.2 50.3,49.7 	"/>
	<polygon points="45.8,49.7 47.7,51.2 47.7,59 45.8,60.5 	"/>
	<path d="M27.9,63.2c0,1.2-1,2.2-2.2,2.2l0,0c-1.2,0-2.2-1-2.2-2.2V16.8c0-1.2,1-2.2,2.2-2.2l0,0c1.2,0,2.2,1,2.2,2.2V63.2z"/>
	<path d="M18.9,63.2c0,1.2-1,2.2-2.2,2.2l0,0c-1.2,0-2.2-1-2.2-2.2V16.8c0-1.2,1-2.2,2.2-2.2l0,0c1.2,0,2.2,1,2.2,2.2V63.2z"/>
	<path d="M36.8,63.2c0,1.2-1,2.2-2.2,2.2l0,0c-1.2,0-2.2-1-2.2-2.2V16.8c0-1.2,1-2.2,2.2-2.2l0,0c1.2,0,2.2,1,2.2,2.2V63.2z"/>
	<path d="M45.8,63.2c0,1.2-1,2.2-2.2,2.2l0,0c-1.2,0-2.2-1-2.2-2.2V16.8c0-1.2,1-2.2,2.2-2.2l0,0c1.2,0,2.2,1,2.2,2.2V63.2z"/>
	<path d="M54.7,63.2c0,1.2-1,2.2-2.2,2.2l0,0c-1.2,0-2.2-1-2.2-2.2V16.8c0-1.2,1-2.2,2.2-2.2l0,0c1.2,0,2.2,1,2.2,2.2V63.2z"/>
	<polygon points="61.8,20.1 59.1,20.1 59.1,29.4 61.8,29.4 61.8,29.5 69.5,28 69.5,21.6 	"/>
	<rect x="52.5" y="23.4" width="6.6" height="3"/>
</g>
<g id="GfxWhite">
	<rect x="59.1" y="24" class="st1" width="4.5" height="1.5"/>
</g>
<g id="_x2D_GuideText">
	<rect x="-38.5" y="80" class="st3" width="157" height="37.5"/>
	<text transform="matrix(1 0 0 1 21.415 114.0918)" class="st4 st5 st6">Oven</text>
</g>
<g id="_x2D_GuideLines" class="st10">
</g>
<g id="nyt_x5F_exporter_x5F_info" class="st10">
</g>
</svg>
