<?xml version="1.0" encoding="utf-8"?>
<!-- Generator: Adobe Illustrator 18.1.1, SVG Export Plug-In . SVG Version: 6.00 Build 0)  -->
<!DOCTYPE svg PUBLIC "-//W3C//DTD SVG 1.1//EN" "http://www.w3.org/Graphics/SVG/1.1/DTD/svg11.dtd">
<svg version="1.1" xmlns="http://www.w3.org/2000/svg" xmlns:xlink="http://www.w3.org/1999/xlink" x="0px" y="0px"
	 viewBox="0 0 80 80" style="enable-background:new 0 0 80 80;" xml:space="preserve">
<style type="text/css">
	.st0{stroke:#000000;stroke-width:4;stroke-linecap:round;stroke-linejoin:round;stroke-miterlimit:10;}
	.st1{fill:#FFFFFF;}
	.st2{fill-rule:evenodd;clip-rule:evenodd;fill:#FFFFFF;}
	.st3{fill:none;}
	.st4{fill:#999999;}
	.st5{font-family:'Klavika-Light';}
	.st6{font-size:18;}
	.st7{fill:none;stroke:#000000;stroke-width:2;stroke-miterlimit:10;}
	.st8{stroke:#000000;stroke-width:2;stroke-linecap:round;stroke-linejoin:round;stroke-miterlimit:10;}
	.st9{stroke:#000000;stroke-linecap:round;stroke-linejoin:round;stroke-miterlimit:10;}
	.st10{display:none;}
</style>
<g id="_x2D_Background2">
</g>
<g id="Gfx1">
	<path d="M55.9,62.7H21.3V42h34.7V62.7z"/>
	<rect x="17.4" y="24" width="42.4" height="6.7"/>
	<path d="M55.9,34.9H21.3V17.3h34.7V34.9z M23.3,32.9h30.7V19.3H23.3V32.9z"/>
	<path d="M62.6,30.7h-48c-1.9,0-3.5,1.6-3.5,3.5v11.2c0,4.3,3.5,7.9,7.8,8v-8.5h39.3v8.5c4.3-0.1,7.8-3.6,7.8-8V34.2
		C66.1,32.3,64.5,30.7,62.6,30.7z"/>
</g>
<g id="GfxWhite">
	<path class="st1" d="M23.3,45.2v15.5h30.7V45.2H23.3z M36.4,55.7h-9.7v-1h9.7V55.7z M50.6,52.5h-24v-1h24V52.5z M50.6,49.2h-24v-1
		h24V49.2z"/>
	<rect x="23.3" y="19.3" class="st1" width="30.7" height="11.4"/>
	<circle class="st1" cx="61.6" cy="35.2" r="1.8"/>
</g>
<g id="_x2D_GuideText">
	<rect x="-38.5" y="80" class="st3" width="157" height="37.5"/>
	<text transform="matrix(1 0 0 1 15.0976 114.092)" class="st4 st5 st6">Printer</text>
</g>
<g id="_x2D_GuideLines" class="st10">
</g>
<g id="nyt_x5F_exporter_x5F_info" class="st10">
</g>
</svg>
