<?xml version="1.0" encoding="utf-8"?>
<!-- Generator: Adobe Illustrator 18.1.1, SVG Export Plug-In . SVG Version: 6.00 Build 0)  -->
<!DOCTYPE svg PUBLIC "-//W3C//DTD SVG 1.1//EN" "http://www.w3.org/Graphics/SVG/1.1/DTD/svg11.dtd">
<svg version="1.1" xmlns="http://www.w3.org/2000/svg" xmlns:xlink="http://www.w3.org/1999/xlink" x="0px" y="0px"
	 viewBox="0 0 80 80" style="enable-background:new 0 0 80 80;" xml:space="preserve">
<style type="text/css">
	.st0{stroke:#000000;stroke-width:4;stroke-linecap:round;stroke-linejoin:round;stroke-miterlimit:10;}
	.st1{fill:#FFFFFF;}
	.st2{fill-rule:evenodd;clip-rule:evenodd;fill:#FFFFFF;}
	.st3{fill:none;}
	.st4{fill:#999999;}
	.st5{font-family:'Klavika-Light';}
	.st6{font-size:18;}
	.st7{fill:none;stroke:#000000;stroke-width:2;stroke-miterlimit:10;}
	.st8{stroke:#000000;stroke-width:2;stroke-linecap:round;stroke-linejoin:round;stroke-miterlimit:10;}
	.st9{stroke:#000000;stroke-linecap:round;stroke-linejoin:round;stroke-miterlimit:10;}
	.st10{display:none;}
</style>
<g id="_x2D_Background2">
</g>
<g id="Gfx1">
	<path d="M63.6,51.8"/>
	<path d="M60.1,55.2"/>
	<path d="M64.7,36.8c-1.4-4.4-5.5-7.6-10.4-7.6c-3.5,0-6.6,1.7-8.6,4.2c-1.5-0.1-3-0.1-4.6-0.1c-15.2,0-27.5,3.2-27.5,7.1v4.5
		c0,3.6,2.9,6.6,6.6,6.6H62c3.6,0,6.6-2.9,6.6-6.6v-4.5C68.6,39.1,67.2,37.8,64.7,36.8z"/>
	<path d="M28.6,52.9c0,1.9-1.5,3.5-3.5,3.5s-3.5-1.5-3.5-3.5H28.6z"/>
	<path d="M60.9,52.9c0,1.9-1.5,3.5-3.5,3.5s-3.5-1.5-3.5-3.5H60.9z"/>
</g>
<g id="GfxWhite">
	<path class="st1" d="M54.3,47.8c-4.3,0-7.7-3.5-7.7-7.7s3.5-7.7,7.7-7.7c4.3,0,7.7,3.5,7.7,7.7S58.6,47.8,54.3,47.8z M54.3,34.2
		c-3.3,0-5.9,2.6-5.9,5.9c0,3.3,2.6,5.9,5.9,5.9c3.3,0,5.9-2.6,5.9-5.9C60.2,36.9,57.6,34.2,54.3,34.2z"/>
	<g>
		<path class="st1" d="M22.2,39.8c-0.3,0-0.5-0.2-0.5-0.5c0-0.3,0.2-0.5,0.5-0.5h10.6c0.3,0,0.5,0.2,0.5,0.5c0,0.3-0.2,0.5-0.5,0.5
			H22.2z"/>
		<path class="st1" d="M22.2,43.7c-0.3,0-0.5-0.2-0.5-0.5c0-0.3,0.2-0.5,0.5-0.5h10.6c0.3,0,0.5,0.2,0.5,0.5c0,0.3-0.2,0.5-0.5,0.5
			H22.2z"/>
		<path class="st1" d="M22.2,47.5c-0.3,0-0.5-0.2-0.5-0.5s0.2-0.5,0.5-0.5h10.6c0.3,0,0.5,0.2,0.5,0.5s-0.2,0.5-0.5,0.5H22.2z"/>
	</g>
</g>
<g id="_x2D_GuideText">
	<rect x="-38.5" y="80.5" class="st3" width="157" height="37"/>
	<text transform="matrix(1 0 0 1 7.2676 114.5693)" class="st4 st5 st6">Projector</text>
</g>
<g id="_x2D_GuideLines" class="st10">
</g>
<g id="nyt_x5F_exporter_x5F_info" class="st10">
</g>
</svg>
