<?xml version="1.0" encoding="utf-8"?>
<!-- Generator: Adobe Illustrator 18.1.1, SVG Export Plug-In . SVG Version: 6.00 Build 0)  -->
<!DOCTYPE svg PUBLIC "-//W3C//DTD SVG 1.1//EN" "http://www.w3.org/Graphics/SVG/1.1/DTD/svg11.dtd">
<svg version="1.1" xmlns="http://www.w3.org/2000/svg" xmlns:xlink="http://www.w3.org/1999/xlink" x="0px" y="0px"
	 viewBox="0 0 80 80" style="enable-background:new 0 0 80 80;" xml:space="preserve">
<style type="text/css">
	.st0{stroke:#000000;stroke-width:4;stroke-linecap:round;stroke-linejoin:round;stroke-miterlimit:10;}
	.st1{fill:#FFFFFF;}
	.st2{fill-rule:evenodd;clip-rule:evenodd;fill:#FFFFFF;}
	.st3{fill:none;}
	.st4{fill:#999999;}
	.st5{font-family:'Klavika-Light';}
	.st6{font-size:18;}
	.st7{fill:none;stroke:#000000;stroke-width:2;stroke-miterlimit:10;}
	.st8{stroke:#000000;stroke-width:2;stroke-linecap:round;stroke-linejoin:round;stroke-miterlimit:10;}
	.st9{stroke:#000000;stroke-linecap:round;stroke-linejoin:round;stroke-miterlimit:10;}
	.st10{display:none;}
</style>
<g id="_x2D_Background2">
</g>
<g id="Gfx1">
	<path d="M34.6,63.4c0,2.3-1.8,4.1-4.1,4.1s-4.1-1.8-4.1-4.1H34.6z"/>
	<path d="M57.2,63.4c0,2.3-1.8,4.1-4.1,4.1S49,65.6,49,63.4H57.2z"/>
	<path d="M63.6,61.9H19.2c-1.6,0-3-1.4-3-3V54c0-1.7,1.4-3,3-3h44.3c1.7,0,3,1.3,3,3v4.9C66.6,60.6,65.2,61.9,63.6,61.9z"/>
	<rect x="49.9" y="48.3" width="5.3" height="3.1"/>
	<path d="M54,14c0-0.8-0.7-1.5-1.5-1.5c-0.8,0-1.5,0.7-1.5,1.5c0,0.1,0,0.1,0,0.2h0v32.9h3V14.2h0C54,14.1,54,14.1,54,14z"/>
</g>
<g id="GfxWhite">
	<g>
		<circle class="st1" cx="24.1" cy="56.5" r="2.5"/>
		<g>
			<circle class="st1" cx="35.7" cy="56.5" r="1.1"/>
			<circle class="st1" cx="41.8" cy="56.5" r="1.1"/>
			<circle class="st1" cx="47.9" cy="56.5" r="1.1"/>
			<circle class="st1" cx="54" cy="56.5" r="1.1"/>
			<circle class="st1" cx="60.1" cy="56.5" r="1.1"/>
		</g>
	</g>
</g>
<g id="_x2D_GuideText">
	<rect x="-38.5" y="80.5" class="st3" width="157" height="36.5"/>
	<text transform="matrix(1 0 0 1 14.8003 114.5693)" class="st4 st5 st6">Router</text>
</g>
<g id="_x2D_GuideLines" class="st10">
</g>
<g id="nyt_x5F_exporter_x5F_info" class="st10">
</g>
</svg>
