<?xml version="1.0" encoding="utf-8"?>
<!-- Generator: Adobe Illustrator 18.1.1, SVG Export Plug-In . SVG Version: 6.00 Build 0)  -->
<!DOCTYPE svg PUBLIC "-//W3C//DTD SVG 1.1//EN" "http://www.w3.org/Graphics/SVG/1.1/DTD/svg11.dtd">
<svg version="1.1" xmlns="http://www.w3.org/2000/svg" xmlns:xlink="http://www.w3.org/1999/xlink" x="0px" y="0px"
	 viewBox="0 0 80 80" style="enable-background:new 0 0 80 80;" xml:space="preserve">
<style type="text/css">
	.st0{stroke:#000000;stroke-width:4;stroke-linecap:round;stroke-linejoin:round;stroke-miterlimit:10;}
	.st1{fill:#FFFFFF;}
	.st2{fill-rule:evenodd;clip-rule:evenodd;fill:#FFFFFF;}
	.st3{fill:none;}
	.st4{fill:#999999;}
	.st5{font-family:'Klavika-Light';}
	.st6{font-size:18;}
	.st7{fill:none;stroke:#000000;stroke-width:2;stroke-miterlimit:10;}
	.st8{stroke:#000000;stroke-width:2;stroke-linecap:round;stroke-linejoin:round;stroke-miterlimit:10;}
	.st9{stroke:#000000;stroke-linecap:round;stroke-linejoin:round;stroke-miterlimit:10;}
	.st10{display:none;}
</style>
<g id="_x2D_Background2">
</g>
<g id="Gfx1">
	<path d="M71,65.3H9V20.2h62V65.3z M11,63.3h58V22.2H11V63.3z"/>
	<rect x="9.2" y="68.6" width="61.5" height="2"/>
	<path d="M42,5H38c-2.2,0-4,1.8-4,4v4.3h12V9C46,6.8,44.2,5,42,5z"/>
	<path d="M46.1,13.3H33.9c-2.3,0-4.1,1.8-4.1,4.1v0h20.3v0C50.1,15.2,48.3,13.3,46.1,13.3z"/>
</g>
<g id="GfxWhite">
	<rect x="11" y="22.2" class="st1" width="58" height="41.1"/>
</g>
<g id="_x2D_GuideText">
	<rect x="-38.5" y="80" class="st3" width="157" height="37.5"/>
	<text transform="matrix(1 0 0 1 -3.6221 114.0918)" class="st4 st5 st6">Smartboard</text>
</g>
<g id="_x2D_GuideLines" class="st10">
</g>
<g id="nyt_x5F_exporter_x5F_info" class="st10">
</g>
</svg>
