<?xml version="1.0" encoding="utf-8"?>
<!-- Generator: Adobe Illustrator 18.1.1, SVG Export Plug-In . SVG Version: 6.00 Build 0)  -->
<!DOCTYPE svg PUBLIC "-//W3C//DTD SVG 1.1//EN" "http://www.w3.org/Graphics/SVG/1.1/DTD/svg11.dtd">
<svg version="1.1" xmlns="http://www.w3.org/2000/svg" xmlns:xlink="http://www.w3.org/1999/xlink" x="0px" y="0px"
	 viewBox="0 0 80 80" style="enable-background:new 0 0 80 80;" xml:space="preserve">
<style type="text/css">
	.st0{stroke:#000000;stroke-width:4;stroke-linecap:round;stroke-linejoin:round;stroke-miterlimit:10;}
	.st1{fill:#FFFFFF;}
	.st2{fill-rule:evenodd;clip-rule:evenodd;fill:#FFFFFF;}
	.st3{fill:none;}
	.st4{fill:#999999;}
	.st5{font-family:'Klavika-Light';}
	.st6{font-size:18;}
	.st7{fill:none;stroke:#000000;stroke-width:2;stroke-miterlimit:10;}
	.st8{stroke:#000000;stroke-width:2;stroke-linecap:round;stroke-linejoin:round;stroke-miterlimit:10;}
	.st9{stroke:#000000;stroke-linecap:round;stroke-linejoin:round;stroke-miterlimit:10;}
	.st10{display:none;}
</style>
<g id="_x2D_Background2">
</g>
<g id="Gfx1">
	<path d="M61.5,64.7c0,1.5-1.2,2.8-2.8,2.8H21.2c-1.5,0-2.8-1.2-2.8-2.8V15.3c0-1.5,1.2-2.8,2.8-2.8h37.6c1.5,0,2.8,1.2,2.8,2.8
		V64.7z"/>
</g>
<g id="GfxWhite">
	<rect x="23.6" y="17.6" class="st1" width="33" height="44.4"/>
	<path class="st1" d="M39.3,65.8c-0.6,0-1.1-0.5-1.1-1.1c0-0.6,0.5-1,1.1-1c0.6,0,1,0.5,1,1C40.4,65.3,39.9,65.8,39.3,65.8z
		 M39.3,63.8c-0.5,0-0.9,0.4-0.9,0.9c0,0.5,0.4,0.9,0.9,0.9c0.5,0,0.9-0.4,0.9-0.9C40.2,64.2,39.8,63.8,39.3,63.8z"/>
	<path class="st1" d="M39.6,64.9c0,0.1-0.1,0.2-0.2,0.2h-0.3c-0.1,0-0.2-0.1-0.2-0.2v-0.3c0-0.1,0.1-0.2,0.2-0.2h0.3
		c0.1,0,0.2,0.1,0.2,0.2V64.9z"/>
</g>
<g id="_x2D_GuideText">
	<rect x="-38.5" y="80" class="st3" width="157" height="37.5"/>
	<text transform="matrix(1 0 0 1 16.6905 114.0917)" class="st4 st5 st6">Tablet</text>
</g>
<g id="_x2D_GuideLines" class="st10">
</g>
<g id="nyt_x5F_exporter_x5F_info" class="st10">
</g>
</svg>
