<?xml version="1.0" encoding="utf-8"?>
<!-- Generator: Adobe Illustrator 18.1.1, SVG Export Plug-In . SVG Version: 6.00 Build 0)  -->
<!DOCTYPE svg PUBLIC "-//W3C//DTD SVG 1.1//EN" "http://www.w3.org/Graphics/SVG/1.1/DTD/svg11.dtd">
<svg version="1.1" xmlns="http://www.w3.org/2000/svg" xmlns:xlink="http://www.w3.org/1999/xlink" x="0px" y="0px"
	 viewBox="0 0 80 80" style="enable-background:new 0 0 80 80;" xml:space="preserve">
<style type="text/css">
	.st0{stroke:#000000;stroke-width:4;stroke-linecap:round;stroke-linejoin:round;stroke-miterlimit:10;}
	.st1{fill:#FFFFFF;}
	.st2{fill-rule:evenodd;clip-rule:evenodd;fill:#FFFFFF;}
	.st3{fill:none;}
	.st4{fill:#999999;}
	.st5{font-family:'Klavika-Light';}
	.st6{font-size:18;}
	.st7{fill:none;stroke:#000000;stroke-width:2;stroke-miterlimit:10;}
	.st8{stroke:#000000;stroke-width:2;stroke-linecap:round;stroke-linejoin:round;stroke-miterlimit:10;}
	.st9{stroke:#000000;stroke-linecap:round;stroke-linejoin:round;stroke-miterlimit:10;}
	.st10{display:none;}
</style>
<g id="_x2D_Background2">
</g>
<g id="Gfx1">
	<path d="M62.3,55.4V33.3c0-5.8-4.7-10.5-10.5-10.5H23c-5.8,0-10.5,4.7-10.5,10.5v22.1H62.3z"/>
	<polygon points="67.5,39.1 62.3,41.3 62.3,37.8 67.5,37.8 	"/>
	<g>
		<g>
			<line x1="22.2" y1="55.4" x2="22.2" y2="57.2"/>
			<path d="M22.2,59.2c-1.1,0-2-0.9-2-2v-1.8c0-1.1,0.9-2,2-2s2,0.9,2,2v1.8C24.2,58.3,23.3,59.2,22.2,59.2z"/>
		</g>
		<g>
			<line x1="52.5" y1="55.4" x2="52.5" y2="57.2"/>
			<path d="M52.5,59.2c-1.1,0-2-0.9-2-2v-1.8c0-1.1,0.9-2,2-2s2,0.9,2,2v1.8C54.5,58.3,53.7,59.2,52.5,59.2z"/>
		</g>
	</g>
	<path d="M50.9,26.3H24.1c-0.5,0-0.9-0.4-0.9-0.9c0-0.5,0.4-0.9,0.9-0.9h26.8c0.5,0,0.9,0.4,0.9,0.9C51.8,25.9,51.4,26.3,50.9,26.3z
		"/>
</g>
<g id="GfxWhite">
	<g>
		<g>
			<path class="st1" d="M36.6,31.2c13.6,0,9.9,6,9.2,6v11.6H27.4V37.2C26.7,37.2,23,31.2,36.6,31.2 M36.6,30.2
				c-5.8,0-9.5,1.1-10.7,3.3c-0.6,1.1-0.6,2.5,0,3.6c0.1,0.2,0.3,0.4,0.5,0.6v11.1v1h1h18.4h1v-1V37.7c0.6-0.6,1-1.6,1-2.5
				c0-0.8-0.3-2.4-2.5-3.6C43.5,30.7,40.5,30.2,36.6,30.2L36.6,30.2C36.6,30.2,36.6,30.2,36.6,30.2L36.6,30.2z"/>
		</g>
	</g>
	<g>
		<path class="st1" d="M39.8,43.9c-0.8-0.8-1.6-3,0-4.6c1.4-1.4,0.5-3.1,0-3.6l0.5-0.5c0.8,0.8,1.6,3,0,4.6c-1.4,1.4-0.5,3.1,0,3.6
			L39.8,43.9z"/>
		<path class="st1" d="M36.4,43.9c-0.8-0.8-1.6-3,0-4.6c1.4-1.4,0.5-3.1,0-3.6l0.5-0.5c0.8,0.8,1.6,3,0,4.6c-1.4,1.4-0.5,3.1,0,3.6
			L36.4,43.9z"/>
		<path class="st1" d="M32.9,43.9c-0.8-0.8-1.6-3,0-4.6c1.4-1.4,0.5-3.1,0-3.6l0.5-0.5c0.8,0.8,1.6,3,0,4.6c-1.4,1.4-0.5,3.1,0,3.6
			L32.9,43.9z"/>
	</g>
</g>
<g id="_x2D_GuideText">
	<rect x="-38.5" y="80.5" class="st3" width="157" height="37"/>
	<text transform="matrix(1 0 0 1 12.1094 114.5693)" class="st4 st5 st6">Toaster</text>
</g>
<g id="_x2D_GuideLines" class="st10">
</g>
<g id="nyt_x5F_exporter_x5F_info" class="st10">
</g>
</svg>
