<?xml version="1.0" encoding="utf-8"?>
<!-- Generator: Adobe Illustrator 18.1.1, SVG Export Plug-In . SVG Version: 6.00 Build 0)  -->
<!DOCTYPE svg PUBLIC "-//W3C//DTD SVG 1.1//EN" "http://www.w3.org/Graphics/SVG/1.1/DTD/svg11.dtd">
<svg version="1.1" xmlns="http://www.w3.org/2000/svg" xmlns:xlink="http://www.w3.org/1999/xlink" x="0px" y="0px"
	 viewBox="0 0 80 80" style="enable-background:new 0 0 80 80;" xml:space="preserve">
<style type="text/css">
	.st0{stroke:#000000;stroke-width:4;stroke-linecap:round;stroke-linejoin:round;stroke-miterlimit:10;}
	.st1{fill:#FFFFFF;}
	.st2{fill-rule:evenodd;clip-rule:evenodd;fill:#FFFFFF;}
	.st3{fill:none;}
	.st4{fill:#999999;}
	.st5{font-family:'Klavika-Light';}
	.st6{font-size:18;}
	.st7{fill:none;stroke:#000000;stroke-width:2;stroke-miterlimit:10;}
	.st8{stroke:#000000;stroke-width:2;stroke-linecap:round;stroke-linejoin:round;stroke-miterlimit:10;}
	.st9{stroke:#000000;stroke-linecap:round;stroke-linejoin:round;stroke-miterlimit:10;}
	.st10{display:none;}
</style>
<g id="_x2D_Background2">
</g>
<g id="Gfx1">
	<line x1="40" y1="60.5" x2="40" y2="66.1"/>
	<rect x="38.6" y="60.5" width="2.8" height="5.5"/>
	<line x1="49" y1="66.1" x2="31" y2="66.1"/>
	<rect x="31" y="64.7" width="18" height="2.8"/>
	<rect x="14.5" y="26.6" width="50.9" height="33.9"/>
	<path d="M44.8,24.8c0-2.6-2.1-4.8-4.8-4.8s-4.8,2.1-4.8,4.8H44.8z"/>
	<polygon points="40.1,23.4 30.7,14.1 31.2,13.6 40.1,22.4 49,13.5 49.5,14 	"/>
	<circle cx="31" cy="13.8" r="1.3"/>
	<circle cx="49" cy="13.8" r="1.3"/>
</g>
<g id="GfxWhite">
	<path class="st1" d="M63,58.1H17v-29h46V58.1z M17.7,57.4h44.6V29.8H17.7V57.4z"/>
</g>
<g id="_x2D_GuideText">
	<rect x="-38.5" y="80" class="st3" width="157" height="37.5"/>
	<text transform="matrix(1 0 0 1 31.2881 114.0917)" class="st4 st5 st6">Tv</text>
</g>
<g id="_x2D_GuideLines" class="st10">
</g>
<g id="nyt_x5F_exporter_x5F_info" class="st10">
</g>
</svg>
