<?xml version="1.0" encoding="utf-8"?>
<!-- Generator: Adobe Illustrator 18.1.1, SVG Export Plug-In . SVG Version: 6.00 Build 0)  -->
<!DOCTYPE svg PUBLIC "-//W3C//DTD SVG 1.1//EN" "http://www.w3.org/Graphics/SVG/1.1/DTD/svg11.dtd">
<svg version="1.1" xmlns="http://www.w3.org/2000/svg" xmlns:xlink="http://www.w3.org/1999/xlink" x="0px" y="0px"
	 viewBox="0 0 80 80" style="enable-background:new 0 0 80 80;" xml:space="preserve">
<style type="text/css">
	.st0{fill:none;}
	.st1{fill:#999999;}
	.st2{font-family:'Klavika-Light';}
	.st3{font-size:18;}
	.st4{fill:none;stroke:#000000;stroke-width:4;stroke-linecap:round;stroke-linejoin:round;stroke-miterlimit:10;}
	.st5{stroke:#000000;stroke-width:4;stroke-linecap:round;stroke-linejoin:round;stroke-miterlimit:10;}
	.st6{fill:#FFFFFF;}
	.st7{fill:#FFFFFF;stroke:#000000;stroke-miterlimit:10;}
	.st8{stroke:#000000;stroke-width:5;stroke-linecap:round;stroke-linejoin:round;stroke-miterlimit:10;}
	.st9{fill:none;stroke:#000000;stroke-width:5;stroke-miterlimit:10;}
	.st10{fill:none;stroke:#FFFFFF;stroke-width:2;stroke-miterlimit:10;}
	.st11{fill:none;stroke:#FFFFFF;stroke-width:4;stroke-miterlimit:10;}
	.st12{stroke:#FFFFFF;stroke-miterlimit:10;}
	.st13{fill:none;stroke:#FFFFFF;stroke-linecap:round;stroke-linejoin:round;stroke-miterlimit:10;}
	.st14{fill:none;stroke:#000000;stroke-width:4;stroke-miterlimit:10;}
	.st15{fill:none;stroke:#000000;stroke-width:6;stroke-miterlimit:10;}
	.st16{fill:none;stroke:#000000;stroke-width:3;stroke-miterlimit:10;}
	.st17{stroke:#000000;stroke-linecap:round;stroke-linejoin:round;stroke-miterlimit:10;}
	.st18{fill:#333333;stroke:#333333;stroke-linecap:round;stroke-linejoin:round;stroke-miterlimit:10;}
	.st19{fill:none;stroke:#000000;stroke-width:8;stroke-linecap:round;stroke-miterlimit:10;}
	.st20{fill:none;stroke:#000000;stroke-width:7;stroke-linecap:round;stroke-linejoin:round;stroke-miterlimit:10;}
	.st21{fill:none;stroke:#000000;stroke-miterlimit:10;}
	.st22{fill:none;stroke:#000000;stroke-width:2;stroke-linecap:round;stroke-linejoin:round;stroke-miterlimit:10;}
	.st23{display:none;}
</style>
<g id="_x2D_Background2">
</g>
<g id="Gfx1">
</g>
<g id="GfxWhite">
</g>
<g id="_x2D_GuideText">
	<rect x="-38.5" y="80" class="st0" width="157" height="37.5"/>
	<text transform="matrix(1 0 0 1 5.7109 114.0918)" class="st1 st2 st3">Activities</text>
	<g>
		<g>
			<path d="M39.2,39.2V12.5H19.6c-3.9,0-7.1,3.2-7.1,7.1v19.6H39.2z"/>
		</g>
		<g>
			<path d="M40.7,39.2h26.8V19.6c0-3.9-3.2-7.1-7.1-7.1H40.7V39.2z"/>
		</g>
		<g>
			<path d="M39.2,40.8H12.5v19.6c0,3.9,3.2,7.1,7.1,7.1h19.6V40.8z"/>
		</g>
		<g>
			<path d="M40.7,40.8v26.7h19.7c3.9,0,7.1-3.2,7.1-7.1V40.8H40.7z"/>
		</g>
		<path class="st6" d="M62.3,21.4c-0.3-0.3-0.8-0.3-1.1,0L58,24.6c-0.7,0.7-1.7,0.8-2.5,0.5l4.7-4.7c0.3-0.3,0.3-0.8,0-1.1
			c-0.3-0.3-0.8-0.3-1.1,0L54.3,24c-0.4-0.8-0.2-1.8,0.5-2.5l3.2-3.2c0.3-0.3,0.3-0.8,0-1.1c-0.3-0.3-0.8-0.3-1.1,0l-3.2,3.2
			c-1.3,1.3-1.5,3.3-0.5,4.8l-7.3,7.3c-0.3,0.3-0.3,0.8,0,1.1c0.3,0.3,0.8,0.3,1.1,0l7.3-7.3c1.5,1,3.5,0.8,4.8-0.5l3.2-3.2
			C62.6,22.2,62.6,21.7,62.3,21.4z"/>
		<polygon class="st6" points="28.2,32.5 30.7,32.5 30.7,30.1 27.2,30.1 27.2,22.5 30.7,22.5 30.7,20.1 28.2,20.1 28.2,19 24.3,19 
			24.3,20.1 21.9,20.1 21.9,22.5 25.3,22.5 25.3,30.1 21.9,30.1 21.9,32.5 24.3,32.5 24.3,33.7 28.2,33.7 		"/>
		<g>
			<path class="st6" d="M53.7,57.4l-6-2.5v2.3c0,1.4,2.7,2.5,6,2.5c3.3,0,6-1.1,6-2.5v-2.3L53.7,57.4z"/>
			<polygon class="st6" points="63.5,52.6 53.7,56.8 43.9,52.6 53.7,48.4 			"/>
			<g>
				<rect x="44.9" y="52.5" class="st6" width="0.4" height="4.2"/>
				<rect x="44.9" y="52.5" class="st6" width="0.4" height="4.2"/>
				<circle class="st6" cx="45.1" cy="56.8" r="0.6"/>
				<path class="st6" d="M45.8,59.9V58c0-0.3-0.3-0.6-0.6-0.6l0,0c-0.3,0-0.6,0.3-0.6,0.6v1.8H45.8z"/>
				<circle class="st6" cx="45.1" cy="56.8" r="0.6"/>
				<path class="st6" d="M45.8,59.9V58c0-0.3-0.3-0.6-0.6-0.6l0,0c-0.3,0-0.6,0.3-0.6,0.6v1.8H45.8z"/>
			</g>
		</g>
		<path class="st6" d="M30.6,49c-1.5-3.7-1.3-1.2-5.9,0.6c-4.7,1.9-6.2-0.1-4.7,3.6c2.3,5.7,6.4,9.1,9.3,7.9
			C32.2,59.9,32.9,54.7,30.6,49z M29.1,50.9c0.3,0.7-0.1,1.4-0.7,1.7c-0.7,0.3-1.4-0.1-1.7-0.7L29.1,50.9z M24,54.3
			c-0.7,0.3-1.4-0.1-1.7-0.7l2.4-0.9C24.9,53.3,24.6,54,24,54.3z M27.8,57.4c-2.1,0.8-1.9,2.1-1.9,2.1c-0.5-1.3,0.1-2.8,1.4-3.3
			c1.3-0.5,2.8,0.1,3.3,1.4C30.6,57.6,29.9,56.5,27.8,57.4z"/>
	</g>
</g>
<g id="nyt_x5F_exporter_x5F_info" class="st23">
</g>
</svg>
