<?xml version="1.0" encoding="utf-8"?>
<!-- Generator: Adobe Illustrator 18.1.1, SVG Export Plug-In . SVG Version: 6.00 Build 0)  -->
<!DOCTYPE svg PUBLIC "-//W3C//DTD SVG 1.1//EN" "http://www.w3.org/Graphics/SVG/1.1/DTD/svg11.dtd">
<svg version="1.1" xmlns="http://www.w3.org/2000/svg" xmlns:xlink="http://www.w3.org/1999/xlink" x="0px" y="0px"
	 viewBox="0 0 80 80" style="enable-background:new 0 0 80 80;" xml:space="preserve">
<style type="text/css">
	.st0{fill:none;}
	.st1{fill:#999999;}
	.st2{font-family:'Klavika-Light';}
	.st3{font-size:18;}
	.st4{fill:none;stroke:#000000;stroke-width:4;stroke-linecap:round;stroke-linejoin:round;stroke-miterlimit:10;}
	.st5{stroke:#000000;stroke-width:4;stroke-linecap:round;stroke-linejoin:round;stroke-miterlimit:10;}
	.st6{fill:#FFFFFF;}
	.st7{fill:#FFFFFF;stroke:#000000;stroke-miterlimit:10;}
	.st8{stroke:#000000;stroke-width:5;stroke-linecap:round;stroke-linejoin:round;stroke-miterlimit:10;}
	.st9{fill:none;stroke:#000000;stroke-width:5;stroke-miterlimit:10;}
	.st10{fill:none;stroke:#FFFFFF;stroke-width:2;stroke-miterlimit:10;}
	.st11{fill:none;stroke:#FFFFFF;stroke-width:4;stroke-miterlimit:10;}
	.st12{stroke:#FFFFFF;stroke-miterlimit:10;}
	.st13{fill:none;stroke:#FFFFFF;stroke-linecap:round;stroke-linejoin:round;stroke-miterlimit:10;}
	.st14{fill:none;stroke:#000000;stroke-width:4;stroke-miterlimit:10;}
	.st15{fill:none;stroke:#000000;stroke-width:6;stroke-miterlimit:10;}
	.st16{fill:none;stroke:#000000;stroke-width:3;stroke-miterlimit:10;}
	.st17{stroke:#000000;stroke-linecap:round;stroke-linejoin:round;stroke-miterlimit:10;}
	.st18{fill:#333333;stroke:#333333;stroke-linecap:round;stroke-linejoin:round;stroke-miterlimit:10;}
	.st19{fill:none;stroke:#000000;stroke-width:8;stroke-linecap:round;stroke-miterlimit:10;}
	.st20{fill:none;stroke:#000000;stroke-width:7;stroke-linecap:round;stroke-linejoin:round;stroke-miterlimit:10;}
	.st21{fill:none;stroke:#000000;stroke-miterlimit:10;}
	.st22{fill:none;stroke:#000000;stroke-width:2;stroke-linecap:round;stroke-linejoin:round;stroke-miterlimit:10;}
	.st23{display:none;}
</style>
<g id="_x2D_Background2">
</g>
<g id="Gfx1">
</g>
<g id="GfxWhite">
</g>
<g id="_x2D_GuideText">
	<rect x="-38.5" y="80.5" class="st0" width="157" height="36.5"/>
	<text transform="matrix(1 0 0 1 4.4146 114.5693)" class="st1 st2 st3">Breakfast</text>
	<g>
		<path d="M10,38.1c0,5.2,3.7,9.6,8.6,10.6v1.1c0,2.9-2.3,5.2-5.2,5.2c-1.1,0-2.1,0.9-2.1,2.1c0,1.1,0.9,2.1,2.1,2.1h14.5
			c0,0,0,0,0,0c1.1,0,2.1-0.9,2.1-2.1c0-1.1-0.9-2.1-2.1-2.1h0c0,0,0,0,0,0c-2.9,0-5.2-2.3-5.2-5.2v-1c5.1-0.9,9-5.3,9-10.7V36H10
			V38.1z"/>
		<path d="M20.9,20.9c-5,0-9,8.8-9,13.8h18.1C29.9,29.7,25.9,20.9,20.9,20.9z"/>
		<path d="M60,32.8v-2.5H36.4v23.9c0,1.9,1.5,3.4,3.4,3.4h0.5v1.4h15.9v-1.4h0.4c1.9,0,3.4-1.5,3.4-3.4v-1.5c5.5,0,10-4.5,10-10
			C70,37.3,65.5,32.8,60,32.8z M60,48.7V37c3.2,0,5.9,2.6,5.9,5.9C65.9,46,63.2,48.7,60,48.7z"/>
	</g>
</g>
<g id="nyt_x5F_exporter_x5F_info" class="st23">
</g>
</svg>
