<?xml version="1.0" encoding="utf-8"?>
<!-- Generator: Adobe Illustrator 18.1.1, SVG Export Plug-In . SVG Version: 6.00 Build 0)  -->
<!DOCTYPE svg PUBLIC "-//W3C//DTD SVG 1.1//EN" "http://www.w3.org/Graphics/SVG/1.1/DTD/svg11.dtd">
<svg version="1.1" xmlns="http://www.w3.org/2000/svg" xmlns:xlink="http://www.w3.org/1999/xlink" x="0px" y="0px"
	 viewBox="0 0 80 80" style="enable-background:new 0 0 80 80;" xml:space="preserve">
<style type="text/css">
	.st0{fill:none;}
	.st1{fill:#999999;}
	.st2{font-family:'Klavika-Light';}
	.st3{font-size:18;}
	.st4{fill:none;stroke:#000000;stroke-width:4;stroke-linecap:round;stroke-linejoin:round;stroke-miterlimit:10;}
	.st5{stroke:#000000;stroke-width:4;stroke-linecap:round;stroke-linejoin:round;stroke-miterlimit:10;}
	.st6{fill:#FFFFFF;}
	.st7{fill:#FFFFFF;stroke:#000000;stroke-miterlimit:10;}
	.st8{stroke:#000000;stroke-width:5;stroke-linecap:round;stroke-linejoin:round;stroke-miterlimit:10;}
	.st9{fill:none;stroke:#000000;stroke-width:5;stroke-miterlimit:10;}
	.st10{fill:none;stroke:#FFFFFF;stroke-width:2;stroke-miterlimit:10;}
	.st11{fill:none;stroke:#FFFFFF;stroke-width:4;stroke-miterlimit:10;}
	.st12{stroke:#FFFFFF;stroke-miterlimit:10;}
	.st13{fill:none;stroke:#FFFFFF;stroke-linecap:round;stroke-linejoin:round;stroke-miterlimit:10;}
	.st14{fill:none;stroke:#000000;stroke-width:4;stroke-miterlimit:10;}
	.st15{fill:none;stroke:#000000;stroke-width:6;stroke-miterlimit:10;}
	.st16{fill:none;stroke:#000000;stroke-width:3;stroke-miterlimit:10;}
	.st17{stroke:#000000;stroke-linecap:round;stroke-linejoin:round;stroke-miterlimit:10;}
	.st18{fill:#333333;stroke:#333333;stroke-linecap:round;stroke-linejoin:round;stroke-miterlimit:10;}
	.st19{fill:none;stroke:#000000;stroke-width:8;stroke-linecap:round;stroke-miterlimit:10;}
	.st20{fill:none;stroke:#000000;stroke-width:7;stroke-linecap:round;stroke-linejoin:round;stroke-miterlimit:10;}
	.st21{fill:none;stroke:#000000;stroke-miterlimit:10;}
	.st22{fill:none;stroke:#000000;stroke-width:2;stroke-linecap:round;stroke-linejoin:round;stroke-miterlimit:10;}
	.st23{display:none;}
</style>
<g id="_x2D_Background2">
</g>
<g id="Gfx1">
</g>
<g id="GfxWhite">
</g>
<g id="_x2D_GuideText">
	<rect x="-38.5" y="80" class="st0" width="157" height="37.5"/>
	<text transform="matrix(1 0 0 1 8.6265 114.0918)" class="st1 st2 st3">Cleaning</text>
	<g>
		<path d="M65.3,56.2c-1.9-3.8-5.9-6.4-10.4-6.4C48.4,49.8,35,55,35,61.4c0,2.1,1.7,3.8,3.8,3.8h2.6H62c1.1,0,2.5-0.2,3.2-1.3
			c0.7-1.2,0.9-2.6,0.9-4C66.1,58.6,65.8,57.4,65.3,56.2L65.3,56.2z"/>
		<path class="st14" d="M51.5,20.2c-6.4,6.4-30,30-30,30"/>
		<path class="st15" d="M53.5,18.2c-0.3,0.3-1,1-2.1,2.1"/>
		<path class="st16" d="M36.5,56.7c-2.1-2.1-1.7-9.5,5.8-14.3c11-7.1,21.1-6.8,24.5-16.1c3.4-9.2-5.5-15.8-13.2-8.1"/>
		<path class="st15" d="M38.5,58.7c0,0,0,0-2.1-2.1"/>
		<g>
			<path d="M56.9,66.2c-3.5,0-6.3-2.8-6.3-6.3s2.8-6.3,6.3-6.3s6.3,2.8,6.3,6.3S60.4,66.2,56.9,66.2z"/>
			<path class="st6" d="M56.9,54.7c2.9,0,5.3,2.4,5.3,5.3c0,2.9-2.4,5.3-5.3,5.3c-2.9,0-5.3-2.4-5.3-5.3C51.6,57,54,54.7,56.9,54.7
				 M56.9,52.7c-4,0-7.3,3.3-7.3,7.3c0,4,3.3,7.3,7.3,7.3s7.3-3.3,7.3-7.3C64.2,55.9,60.9,52.7,56.9,52.7L56.9,52.7z"/>
		</g>
		<path d="M28.5,58.4c-1.1,1.1-2.9,1.1-4,0L13.3,47.2c-1.1-1.1-1.1-2.9,0-4l1-1c1.1-1.1,2.9-1.1,4,0l11.1,11.1c1.1,1.1,1.1,2.9,0,4
			L28.5,58.4z"/>
	</g>
</g>
<g id="nyt_x5F_exporter_x5F_info" class="st23">
</g>
</svg>
