<?xml version="1.0" encoding="utf-8"?>
<!-- Generator: Adobe Illustrator 18.1.1, SVG Export Plug-In . SVG Version: 6.00 Build 0)  -->
<!DOCTYPE svg PUBLIC "-//W3C//DTD SVG 1.1//EN" "http://www.w3.org/Graphics/SVG/1.1/DTD/svg11.dtd">
<svg version="1.1" xmlns="http://www.w3.org/2000/svg" xmlns:xlink="http://www.w3.org/1999/xlink" x="0px" y="0px"
	 viewBox="0 0 80 80" style="enable-background:new 0 0 80 80;" xml:space="preserve">
<style type="text/css">
	.st0{fill:none;}
	.st1{fill:#999999;}
	.st2{font-family:'Klavika-Light';}
	.st3{font-size:18;}
	.st4{fill:none;stroke:#000000;stroke-width:4;stroke-linecap:round;stroke-linejoin:round;stroke-miterlimit:10;}
	.st5{stroke:#000000;stroke-width:4;stroke-linecap:round;stroke-linejoin:round;stroke-miterlimit:10;}
	.st6{fill:#FFFFFF;}
	.st7{fill:#FFFFFF;stroke:#000000;stroke-miterlimit:10;}
	.st8{stroke:#000000;stroke-width:5;stroke-linecap:round;stroke-linejoin:round;stroke-miterlimit:10;}
	.st9{fill:none;stroke:#000000;stroke-width:5;stroke-miterlimit:10;}
	.st10{fill:none;stroke:#FFFFFF;stroke-width:2;stroke-miterlimit:10;}
	.st11{fill:none;stroke:#FFFFFF;stroke-width:4;stroke-miterlimit:10;}
	.st12{stroke:#FFFFFF;stroke-miterlimit:10;}
	.st13{fill:none;stroke:#FFFFFF;stroke-linecap:round;stroke-linejoin:round;stroke-miterlimit:10;}
	.st14{fill:none;stroke:#000000;stroke-width:4;stroke-miterlimit:10;}
	.st15{fill:none;stroke:#000000;stroke-width:6;stroke-miterlimit:10;}
	.st16{fill:none;stroke:#000000;stroke-width:3;stroke-miterlimit:10;}
	.st17{stroke:#000000;stroke-linecap:round;stroke-linejoin:round;stroke-miterlimit:10;}
	.st18{fill:#333333;stroke:#333333;stroke-linecap:round;stroke-linejoin:round;stroke-miterlimit:10;}
	.st19{fill:none;stroke:#000000;stroke-width:8;stroke-linecap:round;stroke-miterlimit:10;}
	.st20{fill:none;stroke:#000000;stroke-width:7;stroke-linecap:round;stroke-linejoin:round;stroke-miterlimit:10;}
	.st21{fill:none;stroke:#000000;stroke-miterlimit:10;}
	.st22{fill:none;stroke:#000000;stroke-width:2;stroke-linecap:round;stroke-linejoin:round;stroke-miterlimit:10;}
	.st23{display:none;}
</style>
<g id="_x2D_Background2">
</g>
<g id="Gfx1">
</g>
<g id="GfxWhite">
</g>
<g id="_x2D_GuideText">
	<rect x="-38.5" y="80.5" class="st0" width="157" height="36.5"/>
	<text transform="matrix(1 0 0 1 16.1411 114.5693)" class="st1 st2 st3">Dinner</text>
	<g>
		<g>
			<polygon points="58.3,54.3 34.8,54.3 30.7,49.5 62.4,49.5 			"/>
			<path d="M66.2,50.3H26.9c-0.7,0-1.3-0.6-1.3-1.3c0-0.7,0.6-1.3,1.3-1.3h39.4c0.7,0,1.3,0.6,1.3,1.3
				C67.5,49.8,66.9,50.3,66.2,50.3z"/>
		</g>
		<path d="M55.2,45.8c0-6.8-1.6-12.3-7-12.3c-5.3,0-12.4,5.5-12.4,12.3H55.2z"/>
		<g>
			<path class="st12" d="M52.1,41c-1,1.9-3.3,2.6-5.2,1.6c-1.9-1-2.6-3.3-1.6-5.2c1-1.9,4.8-5.5,6.7-4.5
				C53.9,33.9,53.1,39.2,52.1,41z"/>
			<path d="M56.8,27.3c-0.8-0.4-1.7-0.1-2.1,0.7c0.4-0.8,0.1-1.7-0.7-2.1c-0.8-0.4-1.7-0.1-2.1,0.7c-0.4,0.8-0.1,1.7,0.7,2.1
				c0.4,0.2,0.6,0.7,0.4,1.1l-3.7,7.1l1.3,0.7l3.7-7.1c0.2-0.4,0.7-0.6,1.1-0.4c0.8,0.4,1.7,0.1,2.1-0.7
				C57.9,28.7,57.6,27.7,56.8,27.3z"/>
		</g>
		<g>
			<g>
				<path d="M29.3,33.1v-5.3H12.5v5.3c0,4.4,3.3,8,7.6,8.3v11.2h-4.3c-0.9,0-1.6,0.7-1.6,1.6h13.3c0-0.9-0.7-1.6-1.6-1.6h-4.3V41.5
					C25.9,41.1,29.3,37.5,29.3,33.1z"/>
			</g>
			<path class="st6" d="M28,31.3v1.8c0,3.9-3.2,7.2-7.2,7.2c-4,0-7.2-3.2-7.2-7.2v-1.8H28z"/>
		</g>
	</g>
</g>
<g id="nyt_x5F_exporter_x5F_info" class="st23">
</g>
</svg>
