<?xml version="1.0" encoding="utf-8"?>
<!-- Generator: Adobe Illustrator 18.1.1, SVG Export Plug-In . SVG Version: 6.00 Build 0)  -->
<!DOCTYPE svg PUBLIC "-//W3C//DTD SVG 1.1//EN" "http://www.w3.org/Graphics/SVG/1.1/DTD/svg11.dtd">
<svg version="1.1" xmlns="http://www.w3.org/2000/svg" xmlns:xlink="http://www.w3.org/1999/xlink" x="0px" y="0px"
	 viewBox="0 0 80 80" style="enable-background:new 0 0 80 80;" xml:space="preserve">
<style type="text/css">
	.st0{fill:none;}
	.st1{fill:#999999;}
	.st2{font-family:'Klavika-Light';}
	.st3{font-size:18;}
	.st4{fill:none;stroke:#000000;stroke-width:4;stroke-linecap:round;stroke-linejoin:round;stroke-miterlimit:10;}
	.st5{stroke:#000000;stroke-width:4;stroke-linecap:round;stroke-linejoin:round;stroke-miterlimit:10;}
	.st6{fill:#FFFFFF;}
	.st7{fill:#FFFFFF;stroke:#000000;stroke-miterlimit:10;}
	.st8{stroke:#000000;stroke-width:5;stroke-linecap:round;stroke-linejoin:round;stroke-miterlimit:10;}
	.st9{fill:none;stroke:#000000;stroke-width:5;stroke-miterlimit:10;}
	.st10{fill:none;stroke:#FFFFFF;stroke-width:2;stroke-miterlimit:10;}
	.st11{fill:none;stroke:#FFFFFF;stroke-width:4;stroke-miterlimit:10;}
	.st12{stroke:#FFFFFF;stroke-miterlimit:10;}
	.st13{fill:none;stroke:#FFFFFF;stroke-linecap:round;stroke-linejoin:round;stroke-miterlimit:10;}
	.st14{fill:none;stroke:#000000;stroke-width:4;stroke-miterlimit:10;}
	.st15{fill:none;stroke:#000000;stroke-width:6;stroke-miterlimit:10;}
	.st16{fill:none;stroke:#000000;stroke-width:3;stroke-miterlimit:10;}
	.st17{stroke:#000000;stroke-linecap:round;stroke-linejoin:round;stroke-miterlimit:10;}
	.st18{fill:#333333;stroke:#333333;stroke-linecap:round;stroke-linejoin:round;stroke-miterlimit:10;}
	.st19{fill:none;stroke:#000000;stroke-width:8;stroke-linecap:round;stroke-miterlimit:10;}
	.st20{fill:none;stroke:#000000;stroke-width:7;stroke-linecap:round;stroke-linejoin:round;stroke-miterlimit:10;}
	.st21{fill:none;stroke:#000000;stroke-miterlimit:10;}
	.st22{fill:none;stroke:#000000;stroke-width:2;stroke-linecap:round;stroke-linejoin:round;stroke-miterlimit:10;}
	.st23{display:none;}
</style>
<g id="_x2D_Background2">
</g>
<g id="Gfx1">
</g>
<g id="GfxWhite">
</g>
<g id="_x2D_GuideText">
	<rect x="-38.5" y="80" class="st0" width="157" height="37.5"/>
	<text transform="matrix(1 0 0 1 -10.7862 114.0919)" class="st1 st2 st3">Enertainment</text>
	<g>
		<path d="M54.2,23.8c-11.9-3.2-12.1-9.2-14.6,0.2c-0.2,0.7-0.4,1.4-0.5,2.1c0.8,1,1.4,2.4,2.1,4.2c1.4,3.4,2.3,6.8,2.8,10
			c0.5,1,1.8,2.5,4.9,3.3c5.4,1.4,6.8-1.4,6.8-1.4c-0.9,3.3-4.3,5.3-7.7,4.4c-1.6-0.4-2.8-1.4-3.6-2.6c0.2,2.9,0.1,5.6-0.5,8
			c0.7,0.5,1.5,0.8,2.3,1.1c7.5,2,16.5-7.3,20.4-21.8C69.2,21.9,66,27,54.2,23.8z M48.9,32.8c0,0,0.1-1.6-2.6-2.3
			c-2.7-0.7-3.4,0.7-3.4,0.7c0.4-1.7,2.2-2.6,3.8-2.2C48.3,29.5,49.3,31.2,48.9,32.8z M60.2,35.9c0,0,0.1-1.6-2.6-2.3
			c-2.7-0.7-3.4,0.7-3.4,0.7c0.4-1.7,2.2-2.6,3.8-2.2C59.7,32.5,60.7,34.2,60.2,35.9z"/>
		<path d="M39.9,30.8c-3.6-9-3.1-3-14.5,1.5c-11.4,4.5-15.2-0.2-11.6,8.9c5.5,13.9,15.6,22.2,22.8,19.3
			C43.8,57.6,45.4,44.7,39.9,30.8z M34,38.1c2.6-1,2.3-2.6,2.3-2.6c0.6,1.6-0.1,3.4-1.7,4c-1.6,0.6-3.4-0.1-4-1.7
			C30.5,37.8,31.4,39.1,34,38.1z M23.7,43.8c-1.6,0.6-3.4-0.1-4-1.7c0,0,0.9,1.3,3.5,0.3c2.6-1,2.3-2.6,2.3-2.6
			C26.1,41.4,25.3,43.2,23.7,43.8z M33,51.3c-5.2,2-4.7,5.2-4.7,5.2c-1.3-3.2,0.3-6.8,3.5-8.1c3.2-1.3,6.8,0.3,8.1,3.5
			C39.9,51.9,38.1,49.3,33,51.3z"/>
		<path class="st6" d="M24.8,47.2c0,0.8-0.6,1.4-1.4,1.4c-0.8,0-1.4-0.6-1.4-1.4c0-0.8,1.4-3.2,1.4-3.2S24.8,46.4,24.8,47.2z"/>
	</g>
</g>
<g id="nyt_x5F_exporter_x5F_info" class="st23">
</g>
</svg>
