<?xml version="1.0" encoding="utf-8"?>
<!-- Generator: Adobe Illustrator 18.1.1, SVG Export Plug-In . SVG Version: 6.00 Build 0)  -->
<!DOCTYPE svg PUBLIC "-//W3C//DTD SVG 1.1//EN" "http://www.w3.org/Graphics/SVG/1.1/DTD/svg11.dtd">
<svg version="1.1" xmlns="http://www.w3.org/2000/svg" xmlns:xlink="http://www.w3.org/1999/xlink" x="0px" y="0px"
	 viewBox="0 0 80 80" style="enable-background:new 0 0 80 80;" xml:space="preserve">
<style type="text/css">
	.st0{fill:none;}
	.st1{fill:#999999;}
	.st2{font-family:'Klavika-Light';}
	.st3{font-size:18;}
	.st4{fill:none;stroke:#000000;stroke-width:4;stroke-linecap:round;stroke-linejoin:round;stroke-miterlimit:10;}
	.st5{stroke:#000000;stroke-width:4;stroke-linecap:round;stroke-linejoin:round;stroke-miterlimit:10;}
	.st6{fill:#FFFFFF;}
	.st7{fill:#FFFFFF;stroke:#000000;stroke-miterlimit:10;}
	.st8{stroke:#000000;stroke-width:5;stroke-linecap:round;stroke-linejoin:round;stroke-miterlimit:10;}
	.st9{fill:none;stroke:#000000;stroke-width:5;stroke-miterlimit:10;}
	.st10{fill:none;stroke:#FFFFFF;stroke-width:2;stroke-miterlimit:10;}
	.st11{fill:none;stroke:#FFFFFF;stroke-width:4;stroke-miterlimit:10;}
	.st12{stroke:#FFFFFF;stroke-miterlimit:10;}
	.st13{fill:none;stroke:#FFFFFF;stroke-linecap:round;stroke-linejoin:round;stroke-miterlimit:10;}
	.st14{fill:none;stroke:#000000;stroke-width:4;stroke-miterlimit:10;}
	.st15{fill:none;stroke:#000000;stroke-width:6;stroke-miterlimit:10;}
	.st16{fill:none;stroke:#000000;stroke-width:3;stroke-miterlimit:10;}
	.st17{stroke:#000000;stroke-linecap:round;stroke-linejoin:round;stroke-miterlimit:10;}
	.st18{fill:#333333;stroke:#333333;stroke-linecap:round;stroke-linejoin:round;stroke-miterlimit:10;}
	.st19{fill:none;stroke:#000000;stroke-width:8;stroke-linecap:round;stroke-miterlimit:10;}
	.st20{fill:none;stroke:#000000;stroke-width:7;stroke-linecap:round;stroke-linejoin:round;stroke-miterlimit:10;}
	.st21{fill:none;stroke:#000000;stroke-miterlimit:10;}
	.st22{fill:none;stroke:#000000;stroke-width:2;stroke-linecap:round;stroke-linejoin:round;stroke-miterlimit:10;}
	.st23{display:none;}
</style>
<g id="_x2D_Background2">
</g>
<g id="Gfx1">
</g>
<g id="GfxWhite">
</g>
<g id="_x2D_GuideText">
	<rect x="-38.5" y="80" class="st0" width="157" height="37.5"/>
	<text transform="matrix(1 0 0 1 10.3906 114.0918)" class="st1 st2 st3">Laundry</text>
	<path d="M67.3,35c-0.3-0.5-0.8-0.8-1.4-0.8H52v-2.5c0-6.6-5.4-12-12-12s-12,5.4-12,12v2.5H14.1c-0.6,0-1.1,0.3-1.4,0.8
		c-0.3,0.5-0.3,1.1,0,1.6L25,59.4c0.3,0.5,0.8,0.8,1.4,0.8h27.3c0.6,0,1.1-0.3,1.4-0.8l12.3-22.8C67.6,36.1,67.6,35.5,67.3,35z
		 M31.2,31.7c0-4.8,3.9-8.8,8.8-8.8s8.8,3.9,8.8,8.8v2.5H31.2V31.7z M49.2,37.4l-1.1,5.2H31.9l-1.1-5.2H49.2z M16.8,37.4h12.4
		l1.1,5.2H19.6L16.8,37.4z M20.4,44.3h10.2l1.3,6h-8.3L20.4,44.3z M27.3,57.1l-2.8-5.2h7.8l1.1,5.2H27.3z M45,57.1H35l-1.1-5.2h12.2
		L45,57.1z M33.6,50.3l-1.3-6h15.5l-1.3,6H33.6z M52.7,57.1h-6.1l1.1-5.2h7.8L52.7,57.1z M56.3,50.3h-8.3l1.3-6h10.2L56.3,50.3z
		 M60.4,42.7H49.7l1.1-5.2h12.4L60.4,42.7z"/>
</g>
<g id="nyt_x5F_exporter_x5F_info" class="st23">
</g>
</svg>
