<?xml version="1.0" encoding="utf-8"?>
<!-- Generator: Adobe Illustrator 18.1.1, SVG Export Plug-In . SVG Version: 6.00 Build 0)  -->
<!DOCTYPE svg PUBLIC "-//W3C//DTD SVG 1.1//EN" "http://www.w3.org/Graphics/SVG/1.1/DTD/svg11.dtd">
<svg version="1.1" xmlns="http://www.w3.org/2000/svg" xmlns:xlink="http://www.w3.org/1999/xlink" x="0px" y="0px"
	 viewBox="0 0 80 80" style="enable-background:new 0 0 80 80;" xml:space="preserve">
<style type="text/css">
	.st0{fill:none;}
	.st1{fill:#999999;}
	.st2{font-family:'Klavika-Light';}
	.st3{font-size:18;}
	.st4{fill:none;stroke:#000000;stroke-width:4;stroke-linecap:round;stroke-linejoin:round;stroke-miterlimit:10;}
	.st5{stroke:#000000;stroke-width:4;stroke-linecap:round;stroke-linejoin:round;stroke-miterlimit:10;}
	.st6{fill:#FFFFFF;}
	.st7{fill:#FFFFFF;stroke:#000000;stroke-miterlimit:10;}
	.st8{stroke:#000000;stroke-width:5;stroke-linecap:round;stroke-linejoin:round;stroke-miterlimit:10;}
	.st9{fill:none;stroke:#000000;stroke-width:5;stroke-miterlimit:10;}
	.st10{fill:none;stroke:#FFFFFF;stroke-width:2;stroke-miterlimit:10;}
	.st11{fill:none;stroke:#FFFFFF;stroke-width:4;stroke-miterlimit:10;}
	.st12{stroke:#FFFFFF;stroke-miterlimit:10;}
	.st13{fill:none;stroke:#FFFFFF;stroke-linecap:round;stroke-linejoin:round;stroke-miterlimit:10;}
	.st14{fill:none;stroke:#000000;stroke-width:4;stroke-miterlimit:10;}
	.st15{fill:none;stroke:#000000;stroke-width:6;stroke-miterlimit:10;}
	.st16{fill:none;stroke:#000000;stroke-width:3;stroke-miterlimit:10;}
	.st17{stroke:#000000;stroke-linecap:round;stroke-linejoin:round;stroke-miterlimit:10;}
	.st18{fill:#333333;stroke:#333333;stroke-linecap:round;stroke-linejoin:round;stroke-miterlimit:10;}
	.st19{fill:none;stroke:#000000;stroke-width:8;stroke-linecap:round;stroke-miterlimit:10;}
	.st20{fill:none;stroke:#000000;stroke-width:7;stroke-linecap:round;stroke-linejoin:round;stroke-miterlimit:10;}
	.st21{fill:none;stroke:#000000;stroke-miterlimit:10;}
	.st22{fill:none;stroke:#000000;stroke-width:2;stroke-linecap:round;stroke-linejoin:round;stroke-miterlimit:10;}
	.st23{display:none;}
</style>
<g id="_x2D_Background2">
</g>
<g id="Gfx1">
</g>
<g id="GfxWhite">
</g>
<g id="_x2D_GuideText">
	<rect x="-38.5" y="80.6" class="st0" width="157" height="36.8"/>
	<text transform="matrix(1 0 0 1 17.8867 114.6487)" class="st1 st2 st3">Lunch</text>
	<g>
		<path d="M48.3,44.3c1.1,2.2,0.3,4.8-1.9,5.9l-18.6,9.7C25.6,61,23,60.2,21.9,58l-8.5-16.4c-1,0.5-10.9-5.4,8.7-15.5
			c19.6-10.2,18.7,1.3,17.7,1.8L48.3,44.3z"/>
		<path class="st6" d="M25.5,30.1l14.3,17.4l5.4-2.5l-9.3-19.7L25.5,30.1z M33.2,28.3c0.8-0.4,1.8,0,2.2,0.8c0.4,0.8,0,1.8-0.8,2.2
			c-0.8,0.4-1.8,0-2.2-0.8C32.1,29.6,32.4,28.6,33.2,28.3z M40.7,44.8c-1.2,0.6-2.7,0.1-3.2-1.2c-0.6-1.2,0-2.7,1.2-3.2
			c1.2-0.6,2.7,0,3.2,1.2C42.5,42.7,42,44.2,40.7,44.8z"/>
		<path class="st6" d="M22.7,48.7c-0.1,0.1-0.2,0.2-0.3,0.2l5.7,7l10.4-8.5L23.8,29.5l-10.4,8.5l6.2,7.6c0.1-0.1,0.2-0.2,0.3-0.3
			c0.9-0.8,2.3-0.6,3.1,0.3C23.8,46.6,23.7,47.9,22.7,48.7z M21.9,33.3c0.7-0.6,1.8-0.5,2.4,0.2c0.6,0.7,0.5,1.8-0.2,2.4
			c-0.7,0.6-1.8,0.5-2.4-0.2C21.1,35,21.2,33.9,21.9,33.3z M30.7,44.4c1.1-0.9,2.7-0.7,3.6,0.3c0.9,1.1,0.7,2.7-0.3,3.6
			c-1.1,0.9-2.7,0.7-3.6-0.3C29.4,46.9,29.6,45.3,30.7,44.4z"/>
		<path d="M58.6,29.9l-0.5-0.3c0.7-1.4,0.9-3,0.7-4.6c-0.1-0.8-0.2-1.6-0.4-2.3c-0.1-0.4-0.2-0.8-0.4-1.1c-0.1-0.4-0.3-0.7-0.4-1
			c0-0.1,1,0.2,1.4,0.1c0.5-0.1,1.1-0.9,1.1-1c0.1,0.5,0.2,0.9,0.2,1.4c0.1,0.4,0.1,0.9,0.1,1.3c0.1,0.9,0,1.8-0.1,2.7
			C60.3,26.7,59.8,28.5,58.6,29.9z"/>
		<path d="M68.9,31.4c-1.4-3.5-5.6-3.3-9.3-4.9c-3.8-1.6-6.5-4.7-10.1-3.2c-2.9,1.2-5.5,3.3-7.2,6.2l7.3,14.1c0.7,1.4,0.9,3,0.4,4.5
			c-0.4,1.1-1,2.1-1.9,2.8c0.3,0.2,0.6,0.3,1,0.4c9.2,3.9,16.5-1,19.7-8.5C70.4,39,70.3,34.9,68.9,31.4z"/>
	</g>
</g>
<g id="nyt_x5F_exporter_x5F_info" class="st23">
</g>
</svg>
