<?xml version="1.0" encoding="utf-8"?>
<!-- Generator: Adobe Illustrator 18.1.1, SVG Export Plug-In . SVG Version: 6.00 Build 0)  -->
<!DOCTYPE svg PUBLIC "-//W3C//DTD SVG 1.1//EN" "http://www.w3.org/Graphics/SVG/1.1/DTD/svg11.dtd">
<svg version="1.1" xmlns="http://www.w3.org/2000/svg" xmlns:xlink="http://www.w3.org/1999/xlink" x="0px" y="0px"
	 viewBox="0 0 80 80" style="enable-background:new 0 0 80 80;" xml:space="preserve">
<style type="text/css">
	.st0{fill:none;}
	.st1{fill:#999999;}
	.st2{font-family:'Klavika-Light';}
	.st3{font-size:18;}
	.st4{fill:none;stroke:#000000;stroke-width:4;stroke-linecap:round;stroke-linejoin:round;stroke-miterlimit:10;}
	.st5{stroke:#000000;stroke-width:4;stroke-linecap:round;stroke-linejoin:round;stroke-miterlimit:10;}
	.st6{fill:#FFFFFF;}
	.st7{fill:#FFFFFF;stroke:#000000;stroke-miterlimit:10;}
	.st8{stroke:#000000;stroke-width:5;stroke-linecap:round;stroke-linejoin:round;stroke-miterlimit:10;}
	.st9{fill:none;stroke:#000000;stroke-width:5;stroke-miterlimit:10;}
	.st10{fill:none;stroke:#FFFFFF;stroke-width:2;stroke-miterlimit:10;}
	.st11{fill:none;stroke:#FFFFFF;stroke-width:4;stroke-miterlimit:10;}
	.st12{stroke:#FFFFFF;stroke-miterlimit:10;}
	.st13{fill:none;stroke:#FFFFFF;stroke-linecap:round;stroke-linejoin:round;stroke-miterlimit:10;}
	.st14{fill:none;stroke:#000000;stroke-width:4;stroke-miterlimit:10;}
	.st15{fill:none;stroke:#000000;stroke-width:6;stroke-miterlimit:10;}
	.st16{fill:none;stroke:#000000;stroke-width:3;stroke-miterlimit:10;}
	.st17{stroke:#000000;stroke-linecap:round;stroke-linejoin:round;stroke-miterlimit:10;}
	.st18{fill:#333333;stroke:#333333;stroke-linecap:round;stroke-linejoin:round;stroke-miterlimit:10;}
	.st19{fill:none;stroke:#000000;stroke-width:8;stroke-linecap:round;stroke-miterlimit:10;}
	.st20{fill:none;stroke:#000000;stroke-width:7;stroke-linecap:round;stroke-linejoin:round;stroke-miterlimit:10;}
	.st21{fill:none;stroke:#000000;stroke-miterlimit:10;}
	.st22{fill:none;stroke:#000000;stroke-width:2;stroke-linecap:round;stroke-linejoin:round;stroke-miterlimit:10;}
	.st23{display:none;}
</style>
<g id="_x2D_Background2">
</g>
<g id="Gfx1">
</g>
<g id="GfxWhite">
</g>
<g id="_x2D_GuideText">
	<rect x="-38.5" y="80" class="st0" width="157" height="37.5"/>
	<text transform="matrix(1 0 0 1 4.3247 114.0918)" class="st1 st2 st3">Transport</text>
	<g>
		<g>
			<g>
				<path d="M65.1,46v-5.8c0-1.4-1.2-2.6-2.6-2.6h-1L56.6,30c-0.9-1.5-2.3-2.4-3-2.4H34.8c-2.4,0-3.9,0.9-4.8,2.4l-4.4,7.6h-8.2
					c-1.4,0-2.6,1.2-2.6,2.6V46c-1.3,0-2.4,1.1-2.4,2.4c0,1.3,1.1,2.4,2.4,2.4h50.2c1.3,0,2.4-1.1,2.4-2.4
					C67.5,47.1,66.4,46,65.1,46z"/>
			</g>
		</g>
		<path class="st6" d="M38.3,36.8c0,0.5-0.4,0.9-0.8,0.9h-8c-0.5,0-1.1-0.5-0.5-1.4c0.2-0.4,2.7-4.7,3.2-5.6
			c0.3-0.5,0.7-0.9,1.1-0.9h4.2c0.5,0,0.8,0.4,0.8,0.9V36.8z"/>
		<path class="st6" d="M52.5,36.8c0,0.5,0.4,0.9,0.9,0.9h4.1c0.5,0,1.1-0.5,0.5-1.4c-0.2-0.4-2.7-4.7-3.2-5.6
			c-0.3-0.5-0.7-0.9-1.1-0.9h-0.3c-0.5,0-0.9,0.4-0.9,0.9V36.8z"/>
		<g>
			<g>
				<path d="M28,55.6c-2.6,0-4.7-2.1-4.7-4.7c0-2.6,2.1-4.7,4.7-4.7c2.6,0,4.7,2.1,4.7,4.7C32.7,53.5,30.6,55.6,28,55.6z"/>
				<path class="st6" d="M28,46.1c2.6,0,4.7,2.1,4.7,4.7c0,2.6-2.1,4.7-4.7,4.7c-2.6,0-4.7-2.1-4.7-4.7C23.2,48.2,25.4,46.1,28,46.1
					 M28,45.3c-3.1,0-5.5,2.5-5.5,5.5c0,3.1,2.5,5.5,5.5,5.5c3.1,0,5.5-2.5,5.5-5.5C33.5,47.8,31,45.3,28,45.3L28,45.3z"/>
			</g>
			<g>
				<path d="M54.5,55.6c-2.6,0-4.7-2.1-4.7-4.7c0-2.6,2.1-4.7,4.7-4.7c2.6,0,4.7,2.1,4.7,4.7C59.2,53.5,57.1,55.6,54.5,55.6z"/>
				<path class="st6" d="M54.5,46.1c2.6,0,4.7,2.1,4.7,4.7c0,2.6-2.1,4.7-4.7,4.7c-2.6,0-4.7-2.1-4.7-4.7
					C49.8,48.2,51.9,46.1,54.5,46.1 M54.5,45.3c-3.1,0-5.5,2.5-5.5,5.5c0,3.1,2.5,5.5,5.5,5.5c3.1,0,5.5-2.5,5.5-5.5
					C60,47.8,57.5,45.3,54.5,45.3L54.5,45.3z"/>
			</g>
		</g>
		<path class="st6" d="M50.4,36.8c0,0.5-0.4,0.9-0.8,0.9h-8.3c-0.5,0-0.9-0.4-0.9-0.9v-6.2c0-0.5,0.4-0.9,0.9-0.9h8.3
			c0.5,0,0.8,0.4,0.8,0.9V36.8z"/>
		<path class="st6" d="M16.5,44.6c-0.2,0-0.4-0.2-0.4-0.4v-4.1c0-0.2,0.2-0.4,0.4-0.4s0.4,0.2,0.4,0.4v4.1
			C16.9,44.4,16.7,44.6,16.5,44.6z"/>
	</g>
</g>
<g id="nyt_x5F_exporter_x5F_info" class="st23">
</g>
</svg>
