<?xml version="1.0" encoding="utf-8"?>
<!-- Generator: Adobe Illustrator 18.1.1, SVG Export Plug-In . SVG Version: 6.00 Build 0)  -->
<!DOCTYPE svg PUBLIC "-//W3C//DTD SVG 1.1//EN" "http://www.w3.org/Graphics/SVG/1.1/DTD/svg11.dtd">
<svg version="1.1" xmlns="http://www.w3.org/2000/svg" xmlns:xlink="http://www.w3.org/1999/xlink" x="0px" y="0px"
	 viewBox="0 0 80 80" style="enable-background:new 0 0 80 80;" xml:space="preserve">
<style type="text/css">
	.st0{fill:none;}
	.st1{fill:#999999;}
	.st2{font-family:'Klavika-Light';}
	.st3{font-size:18;}
	.st4{fill:none;stroke:#000000;stroke-width:4;stroke-linecap:round;stroke-linejoin:round;stroke-miterlimit:10;}
	.st5{stroke:#000000;stroke-width:4;stroke-linecap:round;stroke-linejoin:round;stroke-miterlimit:10;}
	.st6{fill:#FFFFFF;}
	.st7{fill:#FFFFFF;stroke:#000000;stroke-miterlimit:10;}
	.st8{stroke:#000000;stroke-width:5;stroke-linecap:round;stroke-linejoin:round;stroke-miterlimit:10;}
	.st9{fill:none;stroke:#000000;stroke-width:5;stroke-miterlimit:10;}
	.st10{fill:none;stroke:#FFFFFF;stroke-width:2;stroke-miterlimit:10;}
	.st11{fill:none;stroke:#FFFFFF;stroke-width:4;stroke-miterlimit:10;}
	.st12{stroke:#FFFFFF;stroke-miterlimit:10;}
	.st13{fill:none;stroke:#FFFFFF;stroke-linecap:round;stroke-linejoin:round;stroke-miterlimit:10;}
	.st14{fill:none;stroke:#000000;stroke-width:4;stroke-miterlimit:10;}
	.st15{fill:none;stroke:#000000;stroke-width:6;stroke-miterlimit:10;}
	.st16{fill:none;stroke:#000000;stroke-width:3;stroke-miterlimit:10;}
	.st17{stroke:#000000;stroke-linecap:round;stroke-linejoin:round;stroke-miterlimit:10;}
	.st18{fill:#333333;stroke:#333333;stroke-linecap:round;stroke-linejoin:round;stroke-miterlimit:10;}
	.st19{fill:none;stroke:#000000;stroke-width:8;stroke-linecap:round;stroke-miterlimit:10;}
	.st20{fill:none;stroke:#000000;stroke-width:7;stroke-linecap:round;stroke-linejoin:round;stroke-miterlimit:10;}
	.st21{fill:none;stroke:#000000;stroke-miterlimit:10;}
	.st22{fill:none;stroke:#000000;stroke-width:2;stroke-linecap:round;stroke-linejoin:round;stroke-miterlimit:10;}
	.st23{display:none;}
</style>
<g id="_x2D_Background2">
</g>
<g id="Gfx1">
</g>
<g id="GfxWhite">
</g>
<g id="_x2D_GuideText">
	<rect x="-38.5" y="80.5" class="st0" width="157" height="37"/>
	<text transform="matrix(1 0 0 1 7.9517 114.5693)" class="st1 st2 st3">Workout</text>
	<g>
		<circle cx="39.3" cy="17.4" r="4.9"/>
		<circle cx="49.1" cy="36" r="2.1"/>
		<circle cx="49.1" cy="28.2" r="2.1"/>
		<rect x="47" y="28.2" width="4.2" height="7.8"/>
		<circle cx="56.9" cy="36" r="2.1"/>
		<rect x="49.1" y="33.9" width="7.8" height="4.2"/>
		<circle cx="29.5" cy="43.8" r="2.1"/>
		<circle cx="29.5" cy="28.2" r="2.1"/>
		<rect x="27.4" y="28.2" width="4.2" height="15.6"/>
		<circle cx="35.8" cy="64.7" r="2.8"/>
		<g>
			<circle cx="35.8" cy="40.8" r="2.8"/>
			<rect x="33" y="40.8" width="5.6" height="23.9"/>
		</g>
		<circle cx="42.8" cy="64.7" r="2.8"/>
		<circle cx="42.8" cy="40.8" r="2.8"/>
		<rect x="40" y="40.8" width="5.6" height="23.9"/>
		<rect x="33" y="30.8" width="12.6" height="13.7"/>
		<path d="M51.2,31.9V28c0-2.3-1.9-4.2-4.2-4.2H31.6c-2.3,0-4.2,1.9-4.2,4.2v3.9H51.2z"/>
		<polygon points="58.5,41.3 60.6,41.3 60.6,39.3 57.6,39.3 57.6,32.8 60.6,32.8 60.6,30.8 58.5,30.8 58.5,29.8 55.2,29.8 
			55.2,30.8 53.1,30.8 53.1,32.8 56.1,32.8 56.1,39.3 53.1,39.3 53.1,41.3 55.2,41.3 55.2,42.3 58.5,42.3 		"/>
		<rect x="53.1" y="33.9" class="st6" width="1.8" height="4.2"/>
		<rect x="27.4" y="40.6" class="st6" width="4.2" height="1.8"/>
		<polygon class="st6" points="33,40 33,48.7 38.6,48.7 38.6,44.5 40,44.5 40,48.7 45.6,48.7 45.6,40 		"/>
		<path class="st6" d="M34.5,16H44c-0.2-0.7-0.5-1.3-1-1.8h-7.5C35.1,14.7,34.7,15.4,34.5,16z"/>
	</g>
</g>
<g id="nyt_x5F_exporter_x5F_info" class="st23">
</g>
</svg>
